M48
; DRILL file KiCad 10.0.5 date 2026-08-20T14:56:19
; FORMAT={-:-/ absolute / metric / decimal}
; #@! TF.CreationDate,2026-08-20T14:56:19+03:00
; #@! TF.GenerationSoftware,Kicad,Pcbnew,10.0.5
; #@! TF.FileFunction,Plated,1,2,PTH
FMAT,2
METRIC
; #@! TA.AperFunction,Plated,PTH,ViaDrill
T1C0.300
; #@! TA.AperFunction,Plated,PTH,ComponentDrill
T2C0.800
; #@! TA.AperFunction,Plated,PTH,ComponentDrill
T3C1.000
; #@! TA.AperFunction,Plated,PTH,ComponentDrill
T4C1.500
; #@! TA.AperFunction,Plated,PTH,ComponentDrill
T5C3.048
%
G90
G05
T1
X32.385Y-140.653
X34.766Y-135.89
X237.172Y-109.696
X239.554Y-107.315
X330.041Y-71.596
X334.804Y-69.215
X358.616Y-85.884
X361.305Y-86.191
X363.379Y-88.265
X365.76Y-88.265
X394.335Y-104.934
X396.716Y-107.315
T2
X37.148Y-53.499
X37.148Y-61.119
X39.529Y-128.746
X39.529Y-136.366
X41.91Y-72.549
X41.91Y-80.169
X44.291Y-91.599
X44.291Y-99.219
X49.054Y-110.649
X49.054Y-118.269
X56.197Y-52.546
X56.197Y-60.166
X63.341Y-128.746
X63.341Y-136.366
X65.722Y-72.549
X65.722Y-80.169
X70.485Y-91.599
X70.485Y-99.219
X75.248Y-53.499
X75.248Y-61.119
X80.01Y-110.649
X80.01Y-118.269
X84.772Y-72.549
X84.772Y-80.169
X87.154Y-129.699
X87.154Y-137.319
X89.535Y-91.599
X89.535Y-99.219
X94.297Y-52.546
X94.297Y-60.166
X99.06Y-110.649
X99.06Y-118.269
X103.822Y-72.549
X103.822Y-80.169
X108.585Y-91.599
X108.585Y-99.219
X113.347Y-52.546
X113.347Y-60.166
X118.11Y-110.649
X118.11Y-118.269
X122.872Y-72.549
X122.872Y-80.169
X127.635Y-91.599
X127.635Y-99.219
X132.398Y-52.546
X132.398Y-60.166
X137.16Y-110.649
X137.16Y-118.269
X141.922Y-72.549
X141.922Y-80.169
X146.685Y-91.599
X146.685Y-99.219
X151.447Y-53.499
X151.447Y-61.119
X156.21Y-110.649
X156.21Y-118.269
X158.591Y-129.699
X158.591Y-137.319
X160.972Y-72.549
X160.972Y-80.169
X165.735Y-91.599
X165.735Y-99.219
X170.498Y-53.499
X170.498Y-61.119
X175.26Y-110.649
X175.26Y-118.269
X180.022Y-72.549
X180.022Y-80.169
X184.785Y-91.599
X184.785Y-99.219
X189.547Y-53.499
X189.547Y-61.119
X194.31Y-110.649
X194.31Y-118.269
X199.072Y-72.549
X199.072Y-80.169
X203.835Y-91.599
X203.835Y-99.219
X208.597Y-53.499
X208.597Y-61.119
X213.36Y-110.649
X213.36Y-118.269
X218.123Y-72.549
X218.123Y-80.169
X222.885Y-91.599
X222.885Y-99.219
X227.647Y-53.499
X227.647Y-61.119
X230.029Y-129.699
X230.029Y-137.319
X232.41Y-110.649
X232.41Y-118.269
X237.172Y-71.596
X237.172Y-79.216
X241.935Y-91.599
X241.935Y-99.219
X246.697Y-53.499
X246.697Y-61.119
X251.46Y-110.649
X251.46Y-118.269
X253.841Y-129.699
X253.841Y-137.319
X256.222Y-72.549
X256.222Y-80.169
X260.985Y-91.599
X260.985Y-99.219
X265.748Y-52.546
X265.748Y-60.166
X275.272Y-72.549
X275.272Y-80.169
X275.272Y-129.699
X275.272Y-137.319
X284.798Y-53.499
X284.798Y-61.119
X287.179Y-110.649
X287.179Y-118.269
X291.941Y-91.599
X291.941Y-99.219
X299.085Y-72.549
X299.085Y-80.169
X299.085Y-129.699
X299.085Y-137.319
X303.847Y-53.499
X303.847Y-61.119
X332.422Y-53.499
X332.422Y-61.119
X332.422Y-129.699
X332.422Y-137.319
X351.472Y-53.499
X351.472Y-61.119
X351.472Y-109.696
X351.472Y-117.316
X351.472Y-128.746
X351.472Y-136.366
X370.522Y-53.499
X370.522Y-61.119
X370.522Y-129.699
X370.522Y-137.319
X385.762Y-123.984
X385.762Y-143.034
X393.382Y-123.984
X393.382Y-143.034
T3
X348.774Y-74.612
X348.774Y-92.392
X351.314Y-74.612
X351.314Y-92.392
X353.854Y-74.612
X353.854Y-92.392
X356.394Y-74.612
X356.394Y-92.392
X358.934Y-74.612
X358.934Y-92.392
X361.474Y-74.612
X361.474Y-92.392
X364.014Y-74.612
X364.014Y-92.392
X366.554Y-74.612
X366.554Y-92.392
X369.094Y-74.612
X369.094Y-92.392
X371.634Y-74.612
X371.634Y-92.392
X374.174Y-74.612
X374.174Y-92.392
X376.714Y-74.612
X376.714Y-92.392
X379.254Y-74.612
X379.254Y-92.392
X379.835Y-54.69
X379.835Y-57.19
X379.835Y-59.69
X381.794Y-74.612
X381.794Y-92.392
X384.334Y-74.612
X384.334Y-92.392
X386.874Y-74.612
X386.874Y-92.392
X389.414Y-74.612
X389.414Y-92.392
X391.954Y-74.612
X391.954Y-92.392
X394.335Y-54.69
X394.335Y-59.69
X394.494Y-74.612
X394.494Y-92.392
X397.034Y-74.612
X397.034Y-92.392
T4
X23.812Y-54.769
X26.194Y-130.969
X28.575Y-73.819
X30.162Y-52.229
X30.956Y-92.869
X32.544Y-128.429
X34.925Y-71.279
X35.719Y-111.919
X37.306Y-90.329
X42.069Y-109.379
X42.862Y-54.769
X49.212Y-52.229
X50.006Y-130.969
X52.387Y-73.819
X56.356Y-128.429
X57.15Y-92.869
X58.737Y-71.279
X61.912Y-54.769
X63.5Y-90.329
X66.675Y-111.919
X68.263Y-52.229
X71.438Y-73.819
X73.025Y-109.379
X73.819Y-130.969
X76.2Y-92.869
X77.787Y-71.279
X80.169Y-128.429
X80.962Y-54.769
X82.55Y-90.329
X85.725Y-111.919
X87.312Y-52.229
X90.487Y-73.819
X92.075Y-109.379
X95.25Y-92.869
X96.837Y-71.279
X100.012Y-54.769
X101.6Y-90.329
X104.775Y-111.919
X106.362Y-52.229
X109.537Y-73.819
X111.125Y-109.379
X114.3Y-92.869
X115.887Y-71.279
X119.062Y-54.769
X120.65Y-90.329
X123.825Y-111.919
X125.412Y-52.229
X128.588Y-73.819
X130.175Y-109.379
X133.35Y-92.869
X134.938Y-71.279
X138.112Y-54.769
X139.7Y-90.329
X142.875Y-111.919
X144.463Y-52.229
X145.256Y-130.969
X147.637Y-73.819
X149.225Y-109.379
X151.606Y-128.429
X152.4Y-92.869
X153.987Y-71.279
X157.162Y-54.769
X158.75Y-90.329
X161.925Y-111.919
X163.512Y-52.229
X166.688Y-73.819
X168.275Y-109.379
X171.45Y-92.869
X173.037Y-71.279
X176.213Y-54.769
X177.8Y-90.329
X180.975Y-111.919
X182.562Y-52.229
X185.737Y-73.819
X187.325Y-109.379
X190.5Y-92.869
X192.087Y-71.279
X195.262Y-54.769
X196.85Y-90.329
X200.025Y-111.919
X201.612Y-52.229
X204.787Y-73.819
X206.375Y-109.379
X209.55Y-92.869
X211.137Y-71.279
X214.312Y-54.769
X215.741Y-130.969
X215.9Y-90.329
X219.075Y-111.919
X220.662Y-52.229
X222.091Y-128.429
X223.837Y-73.819
X225.425Y-109.379
X228.6Y-92.869
X230.188Y-71.279
X233.362Y-54.769
X234.95Y-90.329
X238.125Y-111.919
X239.712Y-52.229
X240.189Y-130.969
X242.887Y-73.819
X244.475Y-109.379
X246.539Y-128.429
X247.65Y-92.869
X249.237Y-71.279
X252.412Y-54.769
X254.0Y-90.329
X258.762Y-52.229
X261.938Y-73.819
X261.938Y-130.969
X268.287Y-71.279
X268.287Y-128.429
X271.462Y-54.769
X273.844Y-111.919
X277.812Y-52.229
X278.606Y-92.869
X280.194Y-109.379
X284.956Y-90.329
X285.75Y-73.819
X285.75Y-130.969
X290.512Y-54.769
X292.1Y-71.279
X292.1Y-128.429
X296.863Y-52.229
X319.087Y-54.769
X319.087Y-130.969
X325.438Y-52.229
X325.438Y-128.429
X338.137Y-54.769
X338.137Y-111.919
X338.137Y-130.969
X344.488Y-52.229
X344.488Y-109.379
X344.488Y-128.429
X357.188Y-54.769
X357.188Y-130.969
X363.537Y-52.229
X363.537Y-128.429
X385.604Y-111.919
X385.762Y-130.969
X391.954Y-109.379
X392.112Y-128.429
T5
X99.06Y-126.524
X199.072Y-126.524
T4
G00X386.685Y-51.59
M15
G01X387.985Y-51.59
M16
G05
G00X386.685Y-62.79
M15
G01X387.985Y-62.79
M16
G05
M30
