%TF.GenerationSoftware,KiCad,Pcbnew,10.0.5*%
%TF.CreationDate,2026-08-20T14:56:19+03:00*%
%TF.ProjectId,keeb,6b656562-2e6b-4696-9361-645f70636258,rev?*%
%TF.SameCoordinates,Original*%
%TF.FileFunction,Drillmap*%
%TF.FilePolarity,Positive*%
%FSLAX45Y45*%
G04 Gerber Fmt 4.5, Leading zero omitted, Abs format (unit mm)*
G04 Created by KiCad (PCBNEW 10.0.5) date 2026-08-20 14:56:19*
%MOMM*%
%LPD*%
G01*
G04 APERTURE LIST*
%ADD10C,0.050000*%
%ADD11C,0.200000*%
%ADD12C,0.100000*%
%ADD13C,0.150000*%
%ADD14C,0.304800*%
G04 APERTURE END LIST*
D10*
X1571625Y-4540250D02*
X40386000Y-4540250D01*
X40386000Y-14763750D01*
X1571625Y-14763750D01*
X1571625Y-4540250D01*
D11*
D12*
X3223500Y-14050250D02*
X3253500Y-14080250D01*
X3253500Y-14050250D02*
X3223500Y-14080250D01*
X3461625Y-13574000D02*
X3491625Y-13604000D01*
X3491625Y-13574000D02*
X3461625Y-13604000D01*
X23702250Y-10954625D02*
X23732250Y-10984625D01*
X23732250Y-10954625D02*
X23702250Y-10984625D01*
X23940375Y-10716500D02*
X23970375Y-10746500D01*
X23970375Y-10716500D02*
X23940375Y-10746500D01*
X32989125Y-7144625D02*
X33019125Y-7174625D01*
X33019125Y-7144625D02*
X32989125Y-7174625D01*
X33465375Y-6906500D02*
X33495375Y-6936500D01*
X33495375Y-6906500D02*
X33465375Y-6936500D01*
X35846625Y-8573375D02*
X35876625Y-8603375D01*
X35876625Y-8573375D02*
X35846625Y-8603375D01*
X36115498Y-8604123D02*
X36145498Y-8634123D01*
X36145498Y-8604123D02*
X36115498Y-8634123D01*
X36322875Y-8811500D02*
X36352875Y-8841500D01*
X36352875Y-8811500D02*
X36322875Y-8841500D01*
X36561000Y-8811500D02*
X36591000Y-8841500D01*
X36591000Y-8811500D02*
X36561000Y-8841500D01*
X39418500Y-10478375D02*
X39448500Y-10508375D01*
X39448500Y-10478375D02*
X39418500Y-10508375D01*
X39656625Y-10716500D02*
X39686625Y-10746500D01*
X39686625Y-10716500D02*
X39656625Y-10746500D01*
X3754750Y-5349875D02*
G75*
G02*
X3674750Y-5349875I-40000J0D01*
G01*
X3674750Y-5349875D02*
G75*
G02*
X3754750Y-5349875I40000J0D01*
G01*
X3754750Y-6111875D02*
G75*
G02*
X3674750Y-6111875I-40000J0D01*
G01*
X3674750Y-6111875D02*
G75*
G02*
X3754750Y-6111875I40000J0D01*
G01*
X3992875Y-12874625D02*
G75*
G02*
X3912875Y-12874625I-40000J0D01*
G01*
X3912875Y-12874625D02*
G75*
G02*
X3992875Y-12874625I40000J0D01*
G01*
X3992875Y-13636625D02*
G75*
G02*
X3912875Y-13636625I-40000J0D01*
G01*
X3912875Y-13636625D02*
G75*
G02*
X3992875Y-13636625I40000J0D01*
G01*
X4231000Y-7254875D02*
G75*
G02*
X4151000Y-7254875I-40000J0D01*
G01*
X4151000Y-7254875D02*
G75*
G02*
X4231000Y-7254875I40000J0D01*
G01*
X4231000Y-8016875D02*
G75*
G02*
X4151000Y-8016875I-40000J0D01*
G01*
X4151000Y-8016875D02*
G75*
G02*
X4231000Y-8016875I40000J0D01*
G01*
X4469125Y-9159875D02*
G75*
G02*
X4389125Y-9159875I-40000J0D01*
G01*
X4389125Y-9159875D02*
G75*
G02*
X4469125Y-9159875I40000J0D01*
G01*
X4469125Y-9921875D02*
G75*
G02*
X4389125Y-9921875I-40000J0D01*
G01*
X4389125Y-9921875D02*
G75*
G02*
X4469125Y-9921875I40000J0D01*
G01*
X4945375Y-11064875D02*
G75*
G02*
X4865375Y-11064875I-40000J0D01*
G01*
X4865375Y-11064875D02*
G75*
G02*
X4945375Y-11064875I40000J0D01*
G01*
X4945375Y-11826875D02*
G75*
G02*
X4865375Y-11826875I-40000J0D01*
G01*
X4865375Y-11826875D02*
G75*
G02*
X4945375Y-11826875I40000J0D01*
G01*
X5659750Y-5254625D02*
G75*
G02*
X5579750Y-5254625I-40000J0D01*
G01*
X5579750Y-5254625D02*
G75*
G02*
X5659750Y-5254625I40000J0D01*
G01*
X5659750Y-6016625D02*
G75*
G02*
X5579750Y-6016625I-40000J0D01*
G01*
X5579750Y-6016625D02*
G75*
G02*
X5659750Y-6016625I40000J0D01*
G01*
X6374125Y-12874625D02*
G75*
G02*
X6294125Y-12874625I-40000J0D01*
G01*
X6294125Y-12874625D02*
G75*
G02*
X6374125Y-12874625I40000J0D01*
G01*
X6374125Y-13636625D02*
G75*
G02*
X6294125Y-13636625I-40000J0D01*
G01*
X6294125Y-13636625D02*
G75*
G02*
X6374125Y-13636625I40000J0D01*
G01*
X6612250Y-7254875D02*
G75*
G02*
X6532250Y-7254875I-40000J0D01*
G01*
X6532250Y-7254875D02*
G75*
G02*
X6612250Y-7254875I40000J0D01*
G01*
X6612250Y-8016875D02*
G75*
G02*
X6532250Y-8016875I-40000J0D01*
G01*
X6532250Y-8016875D02*
G75*
G02*
X6612250Y-8016875I40000J0D01*
G01*
X7088500Y-9159875D02*
G75*
G02*
X7008500Y-9159875I-40000J0D01*
G01*
X7008500Y-9159875D02*
G75*
G02*
X7088500Y-9159875I40000J0D01*
G01*
X7088500Y-9921875D02*
G75*
G02*
X7008500Y-9921875I-40000J0D01*
G01*
X7008500Y-9921875D02*
G75*
G02*
X7088500Y-9921875I40000J0D01*
G01*
X7564750Y-5349875D02*
G75*
G02*
X7484750Y-5349875I-40000J0D01*
G01*
X7484750Y-5349875D02*
G75*
G02*
X7564750Y-5349875I40000J0D01*
G01*
X7564750Y-6111875D02*
G75*
G02*
X7484750Y-6111875I-40000J0D01*
G01*
X7484750Y-6111875D02*
G75*
G02*
X7564750Y-6111875I40000J0D01*
G01*
X8041000Y-11064875D02*
G75*
G02*
X7961000Y-11064875I-40000J0D01*
G01*
X7961000Y-11064875D02*
G75*
G02*
X8041000Y-11064875I40000J0D01*
G01*
X8041000Y-11826875D02*
G75*
G02*
X7961000Y-11826875I-40000J0D01*
G01*
X7961000Y-11826875D02*
G75*
G02*
X8041000Y-11826875I40000J0D01*
G01*
X8517250Y-7254875D02*
G75*
G02*
X8437250Y-7254875I-40000J0D01*
G01*
X8437250Y-7254875D02*
G75*
G02*
X8517250Y-7254875I40000J0D01*
G01*
X8517250Y-8016875D02*
G75*
G02*
X8437250Y-8016875I-40000J0D01*
G01*
X8437250Y-8016875D02*
G75*
G02*
X8517250Y-8016875I40000J0D01*
G01*
X8755375Y-12969875D02*
G75*
G02*
X8675375Y-12969875I-40000J0D01*
G01*
X8675375Y-12969875D02*
G75*
G02*
X8755375Y-12969875I40000J0D01*
G01*
X8755375Y-13731875D02*
G75*
G02*
X8675375Y-13731875I-40000J0D01*
G01*
X8675375Y-13731875D02*
G75*
G02*
X8755375Y-13731875I40000J0D01*
G01*
X8993500Y-9159875D02*
G75*
G02*
X8913500Y-9159875I-40000J0D01*
G01*
X8913500Y-9159875D02*
G75*
G02*
X8993500Y-9159875I40000J0D01*
G01*
X8993500Y-9921875D02*
G75*
G02*
X8913500Y-9921875I-40000J0D01*
G01*
X8913500Y-9921875D02*
G75*
G02*
X8993500Y-9921875I40000J0D01*
G01*
X9469750Y-5254625D02*
G75*
G02*
X9389750Y-5254625I-40000J0D01*
G01*
X9389750Y-5254625D02*
G75*
G02*
X9469750Y-5254625I40000J0D01*
G01*
X9469750Y-6016625D02*
G75*
G02*
X9389750Y-6016625I-40000J0D01*
G01*
X9389750Y-6016625D02*
G75*
G02*
X9469750Y-6016625I40000J0D01*
G01*
X9946000Y-11064875D02*
G75*
G02*
X9866000Y-11064875I-40000J0D01*
G01*
X9866000Y-11064875D02*
G75*
G02*
X9946000Y-11064875I40000J0D01*
G01*
X9946000Y-11826875D02*
G75*
G02*
X9866000Y-11826875I-40000J0D01*
G01*
X9866000Y-11826875D02*
G75*
G02*
X9946000Y-11826875I40000J0D01*
G01*
X10422250Y-7254875D02*
G75*
G02*
X10342250Y-7254875I-40000J0D01*
G01*
X10342250Y-7254875D02*
G75*
G02*
X10422250Y-7254875I40000J0D01*
G01*
X10422250Y-8016875D02*
G75*
G02*
X10342250Y-8016875I-40000J0D01*
G01*
X10342250Y-8016875D02*
G75*
G02*
X10422250Y-8016875I40000J0D01*
G01*
X10898500Y-9159875D02*
G75*
G02*
X10818500Y-9159875I-40000J0D01*
G01*
X10818500Y-9159875D02*
G75*
G02*
X10898500Y-9159875I40000J0D01*
G01*
X10898500Y-9921875D02*
G75*
G02*
X10818500Y-9921875I-40000J0D01*
G01*
X10818500Y-9921875D02*
G75*
G02*
X10898500Y-9921875I40000J0D01*
G01*
X11374750Y-5254625D02*
G75*
G02*
X11294750Y-5254625I-40000J0D01*
G01*
X11294750Y-5254625D02*
G75*
G02*
X11374750Y-5254625I40000J0D01*
G01*
X11374750Y-6016625D02*
G75*
G02*
X11294750Y-6016625I-40000J0D01*
G01*
X11294750Y-6016625D02*
G75*
G02*
X11374750Y-6016625I40000J0D01*
G01*
X11851000Y-11064875D02*
G75*
G02*
X11771000Y-11064875I-40000J0D01*
G01*
X11771000Y-11064875D02*
G75*
G02*
X11851000Y-11064875I40000J0D01*
G01*
X11851000Y-11826875D02*
G75*
G02*
X11771000Y-11826875I-40000J0D01*
G01*
X11771000Y-11826875D02*
G75*
G02*
X11851000Y-11826875I40000J0D01*
G01*
X12327250Y-7254875D02*
G75*
G02*
X12247250Y-7254875I-40000J0D01*
G01*
X12247250Y-7254875D02*
G75*
G02*
X12327250Y-7254875I40000J0D01*
G01*
X12327250Y-8016875D02*
G75*
G02*
X12247250Y-8016875I-40000J0D01*
G01*
X12247250Y-8016875D02*
G75*
G02*
X12327250Y-8016875I40000J0D01*
G01*
X12803500Y-9159875D02*
G75*
G02*
X12723500Y-9159875I-40000J0D01*
G01*
X12723500Y-9159875D02*
G75*
G02*
X12803500Y-9159875I40000J0D01*
G01*
X12803500Y-9921875D02*
G75*
G02*
X12723500Y-9921875I-40000J0D01*
G01*
X12723500Y-9921875D02*
G75*
G02*
X12803500Y-9921875I40000J0D01*
G01*
X13279750Y-5254625D02*
G75*
G02*
X13199750Y-5254625I-40000J0D01*
G01*
X13199750Y-5254625D02*
G75*
G02*
X13279750Y-5254625I40000J0D01*
G01*
X13279750Y-6016625D02*
G75*
G02*
X13199750Y-6016625I-40000J0D01*
G01*
X13199750Y-6016625D02*
G75*
G02*
X13279750Y-6016625I40000J0D01*
G01*
X13756000Y-11064875D02*
G75*
G02*
X13676000Y-11064875I-40000J0D01*
G01*
X13676000Y-11064875D02*
G75*
G02*
X13756000Y-11064875I40000J0D01*
G01*
X13756000Y-11826875D02*
G75*
G02*
X13676000Y-11826875I-40000J0D01*
G01*
X13676000Y-11826875D02*
G75*
G02*
X13756000Y-11826875I40000J0D01*
G01*
X14232250Y-7254875D02*
G75*
G02*
X14152250Y-7254875I-40000J0D01*
G01*
X14152250Y-7254875D02*
G75*
G02*
X14232250Y-7254875I40000J0D01*
G01*
X14232250Y-8016875D02*
G75*
G02*
X14152250Y-8016875I-40000J0D01*
G01*
X14152250Y-8016875D02*
G75*
G02*
X14232250Y-8016875I40000J0D01*
G01*
X14708500Y-9159875D02*
G75*
G02*
X14628500Y-9159875I-40000J0D01*
G01*
X14628500Y-9159875D02*
G75*
G02*
X14708500Y-9159875I40000J0D01*
G01*
X14708500Y-9921875D02*
G75*
G02*
X14628500Y-9921875I-40000J0D01*
G01*
X14628500Y-9921875D02*
G75*
G02*
X14708500Y-9921875I40000J0D01*
G01*
X15184750Y-5349875D02*
G75*
G02*
X15104750Y-5349875I-40000J0D01*
G01*
X15104750Y-5349875D02*
G75*
G02*
X15184750Y-5349875I40000J0D01*
G01*
X15184750Y-6111875D02*
G75*
G02*
X15104750Y-6111875I-40000J0D01*
G01*
X15104750Y-6111875D02*
G75*
G02*
X15184750Y-6111875I40000J0D01*
G01*
X15661000Y-11064875D02*
G75*
G02*
X15581000Y-11064875I-40000J0D01*
G01*
X15581000Y-11064875D02*
G75*
G02*
X15661000Y-11064875I40000J0D01*
G01*
X15661000Y-11826875D02*
G75*
G02*
X15581000Y-11826875I-40000J0D01*
G01*
X15581000Y-11826875D02*
G75*
G02*
X15661000Y-11826875I40000J0D01*
G01*
X15899125Y-12969875D02*
G75*
G02*
X15819125Y-12969875I-40000J0D01*
G01*
X15819125Y-12969875D02*
G75*
G02*
X15899125Y-12969875I40000J0D01*
G01*
X15899125Y-13731875D02*
G75*
G02*
X15819125Y-13731875I-40000J0D01*
G01*
X15819125Y-13731875D02*
G75*
G02*
X15899125Y-13731875I40000J0D01*
G01*
X16137250Y-7254875D02*
G75*
G02*
X16057250Y-7254875I-40000J0D01*
G01*
X16057250Y-7254875D02*
G75*
G02*
X16137250Y-7254875I40000J0D01*
G01*
X16137250Y-8016875D02*
G75*
G02*
X16057250Y-8016875I-40000J0D01*
G01*
X16057250Y-8016875D02*
G75*
G02*
X16137250Y-8016875I40000J0D01*
G01*
X16613500Y-9159875D02*
G75*
G02*
X16533500Y-9159875I-40000J0D01*
G01*
X16533500Y-9159875D02*
G75*
G02*
X16613500Y-9159875I40000J0D01*
G01*
X16613500Y-9921875D02*
G75*
G02*
X16533500Y-9921875I-40000J0D01*
G01*
X16533500Y-9921875D02*
G75*
G02*
X16613500Y-9921875I40000J0D01*
G01*
X17089750Y-5349875D02*
G75*
G02*
X17009750Y-5349875I-40000J0D01*
G01*
X17009750Y-5349875D02*
G75*
G02*
X17089750Y-5349875I40000J0D01*
G01*
X17089750Y-6111875D02*
G75*
G02*
X17009750Y-6111875I-40000J0D01*
G01*
X17009750Y-6111875D02*
G75*
G02*
X17089750Y-6111875I40000J0D01*
G01*
X17566000Y-11064875D02*
G75*
G02*
X17486000Y-11064875I-40000J0D01*
G01*
X17486000Y-11064875D02*
G75*
G02*
X17566000Y-11064875I40000J0D01*
G01*
X17566000Y-11826875D02*
G75*
G02*
X17486000Y-11826875I-40000J0D01*
G01*
X17486000Y-11826875D02*
G75*
G02*
X17566000Y-11826875I40000J0D01*
G01*
X18042250Y-7254875D02*
G75*
G02*
X17962250Y-7254875I-40000J0D01*
G01*
X17962250Y-7254875D02*
G75*
G02*
X18042250Y-7254875I40000J0D01*
G01*
X18042250Y-8016875D02*
G75*
G02*
X17962250Y-8016875I-40000J0D01*
G01*
X17962250Y-8016875D02*
G75*
G02*
X18042250Y-8016875I40000J0D01*
G01*
X18518500Y-9159875D02*
G75*
G02*
X18438500Y-9159875I-40000J0D01*
G01*
X18438500Y-9159875D02*
G75*
G02*
X18518500Y-9159875I40000J0D01*
G01*
X18518500Y-9921875D02*
G75*
G02*
X18438500Y-9921875I-40000J0D01*
G01*
X18438500Y-9921875D02*
G75*
G02*
X18518500Y-9921875I40000J0D01*
G01*
X18994750Y-5349875D02*
G75*
G02*
X18914750Y-5349875I-40000J0D01*
G01*
X18914750Y-5349875D02*
G75*
G02*
X18994750Y-5349875I40000J0D01*
G01*
X18994750Y-6111875D02*
G75*
G02*
X18914750Y-6111875I-40000J0D01*
G01*
X18914750Y-6111875D02*
G75*
G02*
X18994750Y-6111875I40000J0D01*
G01*
X19471000Y-11064875D02*
G75*
G02*
X19391000Y-11064875I-40000J0D01*
G01*
X19391000Y-11064875D02*
G75*
G02*
X19471000Y-11064875I40000J0D01*
G01*
X19471000Y-11826875D02*
G75*
G02*
X19391000Y-11826875I-40000J0D01*
G01*
X19391000Y-11826875D02*
G75*
G02*
X19471000Y-11826875I40000J0D01*
G01*
X19947250Y-7254875D02*
G75*
G02*
X19867250Y-7254875I-40000J0D01*
G01*
X19867250Y-7254875D02*
G75*
G02*
X19947250Y-7254875I40000J0D01*
G01*
X19947250Y-8016875D02*
G75*
G02*
X19867250Y-8016875I-40000J0D01*
G01*
X19867250Y-8016875D02*
G75*
G02*
X19947250Y-8016875I40000J0D01*
G01*
X20423500Y-9159875D02*
G75*
G02*
X20343500Y-9159875I-40000J0D01*
G01*
X20343500Y-9159875D02*
G75*
G02*
X20423500Y-9159875I40000J0D01*
G01*
X20423500Y-9921875D02*
G75*
G02*
X20343500Y-9921875I-40000J0D01*
G01*
X20343500Y-9921875D02*
G75*
G02*
X20423500Y-9921875I40000J0D01*
G01*
X20899750Y-5349875D02*
G75*
G02*
X20819750Y-5349875I-40000J0D01*
G01*
X20819750Y-5349875D02*
G75*
G02*
X20899750Y-5349875I40000J0D01*
G01*
X20899750Y-6111875D02*
G75*
G02*
X20819750Y-6111875I-40000J0D01*
G01*
X20819750Y-6111875D02*
G75*
G02*
X20899750Y-6111875I40000J0D01*
G01*
X21376000Y-11064875D02*
G75*
G02*
X21296000Y-11064875I-40000J0D01*
G01*
X21296000Y-11064875D02*
G75*
G02*
X21376000Y-11064875I40000J0D01*
G01*
X21376000Y-11826875D02*
G75*
G02*
X21296000Y-11826875I-40000J0D01*
G01*
X21296000Y-11826875D02*
G75*
G02*
X21376000Y-11826875I40000J0D01*
G01*
X21852250Y-7254875D02*
G75*
G02*
X21772250Y-7254875I-40000J0D01*
G01*
X21772250Y-7254875D02*
G75*
G02*
X21852250Y-7254875I40000J0D01*
G01*
X21852250Y-8016875D02*
G75*
G02*
X21772250Y-8016875I-40000J0D01*
G01*
X21772250Y-8016875D02*
G75*
G02*
X21852250Y-8016875I40000J0D01*
G01*
X22328500Y-9159875D02*
G75*
G02*
X22248500Y-9159875I-40000J0D01*
G01*
X22248500Y-9159875D02*
G75*
G02*
X22328500Y-9159875I40000J0D01*
G01*
X22328500Y-9921875D02*
G75*
G02*
X22248500Y-9921875I-40000J0D01*
G01*
X22248500Y-9921875D02*
G75*
G02*
X22328500Y-9921875I40000J0D01*
G01*
X22804750Y-5349875D02*
G75*
G02*
X22724750Y-5349875I-40000J0D01*
G01*
X22724750Y-5349875D02*
G75*
G02*
X22804750Y-5349875I40000J0D01*
G01*
X22804750Y-6111875D02*
G75*
G02*
X22724750Y-6111875I-40000J0D01*
G01*
X22724750Y-6111875D02*
G75*
G02*
X22804750Y-6111875I40000J0D01*
G01*
X23042875Y-12969875D02*
G75*
G02*
X22962875Y-12969875I-40000J0D01*
G01*
X22962875Y-12969875D02*
G75*
G02*
X23042875Y-12969875I40000J0D01*
G01*
X23042875Y-13731875D02*
G75*
G02*
X22962875Y-13731875I-40000J0D01*
G01*
X22962875Y-13731875D02*
G75*
G02*
X23042875Y-13731875I40000J0D01*
G01*
X23281000Y-11064875D02*
G75*
G02*
X23201000Y-11064875I-40000J0D01*
G01*
X23201000Y-11064875D02*
G75*
G02*
X23281000Y-11064875I40000J0D01*
G01*
X23281000Y-11826875D02*
G75*
G02*
X23201000Y-11826875I-40000J0D01*
G01*
X23201000Y-11826875D02*
G75*
G02*
X23281000Y-11826875I40000J0D01*
G01*
X23757250Y-7159625D02*
G75*
G02*
X23677250Y-7159625I-40000J0D01*
G01*
X23677250Y-7159625D02*
G75*
G02*
X23757250Y-7159625I40000J0D01*
G01*
X23757250Y-7921625D02*
G75*
G02*
X23677250Y-7921625I-40000J0D01*
G01*
X23677250Y-7921625D02*
G75*
G02*
X23757250Y-7921625I40000J0D01*
G01*
X24233500Y-9159875D02*
G75*
G02*
X24153500Y-9159875I-40000J0D01*
G01*
X24153500Y-9159875D02*
G75*
G02*
X24233500Y-9159875I40000J0D01*
G01*
X24233500Y-9921875D02*
G75*
G02*
X24153500Y-9921875I-40000J0D01*
G01*
X24153500Y-9921875D02*
G75*
G02*
X24233500Y-9921875I40000J0D01*
G01*
X24709750Y-5349875D02*
G75*
G02*
X24629750Y-5349875I-40000J0D01*
G01*
X24629750Y-5349875D02*
G75*
G02*
X24709750Y-5349875I40000J0D01*
G01*
X24709750Y-6111875D02*
G75*
G02*
X24629750Y-6111875I-40000J0D01*
G01*
X24629750Y-6111875D02*
G75*
G02*
X24709750Y-6111875I40000J0D01*
G01*
X25186000Y-11064875D02*
G75*
G02*
X25106000Y-11064875I-40000J0D01*
G01*
X25106000Y-11064875D02*
G75*
G02*
X25186000Y-11064875I40000J0D01*
G01*
X25186000Y-11826875D02*
G75*
G02*
X25106000Y-11826875I-40000J0D01*
G01*
X25106000Y-11826875D02*
G75*
G02*
X25186000Y-11826875I40000J0D01*
G01*
X25424125Y-12969875D02*
G75*
G02*
X25344125Y-12969875I-40000J0D01*
G01*
X25344125Y-12969875D02*
G75*
G02*
X25424125Y-12969875I40000J0D01*
G01*
X25424125Y-13731875D02*
G75*
G02*
X25344125Y-13731875I-40000J0D01*
G01*
X25344125Y-13731875D02*
G75*
G02*
X25424125Y-13731875I40000J0D01*
G01*
X25662250Y-7254875D02*
G75*
G02*
X25582250Y-7254875I-40000J0D01*
G01*
X25582250Y-7254875D02*
G75*
G02*
X25662250Y-7254875I40000J0D01*
G01*
X25662250Y-8016875D02*
G75*
G02*
X25582250Y-8016875I-40000J0D01*
G01*
X25582250Y-8016875D02*
G75*
G02*
X25662250Y-8016875I40000J0D01*
G01*
X26138500Y-9159875D02*
G75*
G02*
X26058500Y-9159875I-40000J0D01*
G01*
X26058500Y-9159875D02*
G75*
G02*
X26138500Y-9159875I40000J0D01*
G01*
X26138500Y-9921875D02*
G75*
G02*
X26058500Y-9921875I-40000J0D01*
G01*
X26058500Y-9921875D02*
G75*
G02*
X26138500Y-9921875I40000J0D01*
G01*
X26614750Y-5254625D02*
G75*
G02*
X26534750Y-5254625I-40000J0D01*
G01*
X26534750Y-5254625D02*
G75*
G02*
X26614750Y-5254625I40000J0D01*
G01*
X26614750Y-6016625D02*
G75*
G02*
X26534750Y-6016625I-40000J0D01*
G01*
X26534750Y-6016625D02*
G75*
G02*
X26614750Y-6016625I40000J0D01*
G01*
X27567250Y-7254875D02*
G75*
G02*
X27487250Y-7254875I-40000J0D01*
G01*
X27487250Y-7254875D02*
G75*
G02*
X27567250Y-7254875I40000J0D01*
G01*
X27567250Y-8016875D02*
G75*
G02*
X27487250Y-8016875I-40000J0D01*
G01*
X27487250Y-8016875D02*
G75*
G02*
X27567250Y-8016875I40000J0D01*
G01*
X27567250Y-12969875D02*
G75*
G02*
X27487250Y-12969875I-40000J0D01*
G01*
X27487250Y-12969875D02*
G75*
G02*
X27567250Y-12969875I40000J0D01*
G01*
X27567250Y-13731875D02*
G75*
G02*
X27487250Y-13731875I-40000J0D01*
G01*
X27487250Y-13731875D02*
G75*
G02*
X27567250Y-13731875I40000J0D01*
G01*
X28519750Y-5349875D02*
G75*
G02*
X28439750Y-5349875I-40000J0D01*
G01*
X28439750Y-5349875D02*
G75*
G02*
X28519750Y-5349875I40000J0D01*
G01*
X28519750Y-6111875D02*
G75*
G02*
X28439750Y-6111875I-40000J0D01*
G01*
X28439750Y-6111875D02*
G75*
G02*
X28519750Y-6111875I40000J0D01*
G01*
X28757875Y-11064875D02*
G75*
G02*
X28677875Y-11064875I-40000J0D01*
G01*
X28677875Y-11064875D02*
G75*
G02*
X28757875Y-11064875I40000J0D01*
G01*
X28757875Y-11826875D02*
G75*
G02*
X28677875Y-11826875I-40000J0D01*
G01*
X28677875Y-11826875D02*
G75*
G02*
X28757875Y-11826875I40000J0D01*
G01*
X29234125Y-9159875D02*
G75*
G02*
X29154125Y-9159875I-40000J0D01*
G01*
X29154125Y-9159875D02*
G75*
G02*
X29234125Y-9159875I40000J0D01*
G01*
X29234125Y-9921875D02*
G75*
G02*
X29154125Y-9921875I-40000J0D01*
G01*
X29154125Y-9921875D02*
G75*
G02*
X29234125Y-9921875I40000J0D01*
G01*
X29948500Y-7254875D02*
G75*
G02*
X29868500Y-7254875I-40000J0D01*
G01*
X29868500Y-7254875D02*
G75*
G02*
X29948500Y-7254875I40000J0D01*
G01*
X29948500Y-8016875D02*
G75*
G02*
X29868500Y-8016875I-40000J0D01*
G01*
X29868500Y-8016875D02*
G75*
G02*
X29948500Y-8016875I40000J0D01*
G01*
X29948500Y-12969875D02*
G75*
G02*
X29868500Y-12969875I-40000J0D01*
G01*
X29868500Y-12969875D02*
G75*
G02*
X29948500Y-12969875I40000J0D01*
G01*
X29948500Y-13731875D02*
G75*
G02*
X29868500Y-13731875I-40000J0D01*
G01*
X29868500Y-13731875D02*
G75*
G02*
X29948500Y-13731875I40000J0D01*
G01*
X30424750Y-5349875D02*
G75*
G02*
X30344750Y-5349875I-40000J0D01*
G01*
X30344750Y-5349875D02*
G75*
G02*
X30424750Y-5349875I40000J0D01*
G01*
X30424750Y-6111875D02*
G75*
G02*
X30344750Y-6111875I-40000J0D01*
G01*
X30344750Y-6111875D02*
G75*
G02*
X30424750Y-6111875I40000J0D01*
G01*
X33282250Y-5349875D02*
G75*
G02*
X33202250Y-5349875I-40000J0D01*
G01*
X33202250Y-5349875D02*
G75*
G02*
X33282250Y-5349875I40000J0D01*
G01*
X33282250Y-6111875D02*
G75*
G02*
X33202250Y-6111875I-40000J0D01*
G01*
X33202250Y-6111875D02*
G75*
G02*
X33282250Y-6111875I40000J0D01*
G01*
X33282250Y-12969875D02*
G75*
G02*
X33202250Y-12969875I-40000J0D01*
G01*
X33202250Y-12969875D02*
G75*
G02*
X33282250Y-12969875I40000J0D01*
G01*
X33282250Y-13731875D02*
G75*
G02*
X33202250Y-13731875I-40000J0D01*
G01*
X33202250Y-13731875D02*
G75*
G02*
X33282250Y-13731875I40000J0D01*
G01*
X35187250Y-5349875D02*
G75*
G02*
X35107250Y-5349875I-40000J0D01*
G01*
X35107250Y-5349875D02*
G75*
G02*
X35187250Y-5349875I40000J0D01*
G01*
X35187250Y-6111875D02*
G75*
G02*
X35107250Y-6111875I-40000J0D01*
G01*
X35107250Y-6111875D02*
G75*
G02*
X35187250Y-6111875I40000J0D01*
G01*
X35187250Y-10969625D02*
G75*
G02*
X35107250Y-10969625I-40000J0D01*
G01*
X35107250Y-10969625D02*
G75*
G02*
X35187250Y-10969625I40000J0D01*
G01*
X35187250Y-11731625D02*
G75*
G02*
X35107250Y-11731625I-40000J0D01*
G01*
X35107250Y-11731625D02*
G75*
G02*
X35187250Y-11731625I40000J0D01*
G01*
X35187250Y-12874625D02*
G75*
G02*
X35107250Y-12874625I-40000J0D01*
G01*
X35107250Y-12874625D02*
G75*
G02*
X35187250Y-12874625I40000J0D01*
G01*
X35187250Y-13636625D02*
G75*
G02*
X35107250Y-13636625I-40000J0D01*
G01*
X35107250Y-13636625D02*
G75*
G02*
X35187250Y-13636625I40000J0D01*
G01*
X37092250Y-5349875D02*
G75*
G02*
X37012250Y-5349875I-40000J0D01*
G01*
X37012250Y-5349875D02*
G75*
G02*
X37092250Y-5349875I40000J0D01*
G01*
X37092250Y-6111875D02*
G75*
G02*
X37012250Y-6111875I-40000J0D01*
G01*
X37012250Y-6111875D02*
G75*
G02*
X37092250Y-6111875I40000J0D01*
G01*
X37092250Y-12969875D02*
G75*
G02*
X37012250Y-12969875I-40000J0D01*
G01*
X37012250Y-12969875D02*
G75*
G02*
X37092250Y-12969875I40000J0D01*
G01*
X37092250Y-13731875D02*
G75*
G02*
X37012250Y-13731875I-40000J0D01*
G01*
X37012250Y-13731875D02*
G75*
G02*
X37092250Y-13731875I40000J0D01*
G01*
X38616250Y-12398375D02*
G75*
G02*
X38536250Y-12398375I-40000J0D01*
G01*
X38536250Y-12398375D02*
G75*
G02*
X38616250Y-12398375I40000J0D01*
G01*
X38616250Y-14303375D02*
G75*
G02*
X38536250Y-14303375I-40000J0D01*
G01*
X38536250Y-14303375D02*
G75*
G02*
X38616250Y-14303375I40000J0D01*
G01*
X39378250Y-12398375D02*
G75*
G02*
X39298250Y-12398375I-40000J0D01*
G01*
X39298250Y-12398375D02*
G75*
G02*
X39378250Y-12398375I40000J0D01*
G01*
X39378250Y-14303375D02*
G75*
G02*
X39298250Y-14303375I-40000J0D01*
G01*
X39298250Y-14303375D02*
G75*
G02*
X39378250Y-14303375I40000J0D01*
G01*
X34877375Y-7411250D02*
X34877375Y-7511250D01*
X34827375Y-7461250D02*
X34927375Y-7461250D01*
X34877375Y-9189250D02*
X34877375Y-9289250D01*
X34827375Y-9239250D02*
X34927375Y-9239250D01*
X35131375Y-7411250D02*
X35131375Y-7511250D01*
X35081375Y-7461250D02*
X35181375Y-7461250D01*
X35131375Y-9189250D02*
X35131375Y-9289250D01*
X35081375Y-9239250D02*
X35181375Y-9239250D01*
X35385375Y-7411250D02*
X35385375Y-7511250D01*
X35335375Y-7461250D02*
X35435375Y-7461250D01*
X35385375Y-9189250D02*
X35385375Y-9289250D01*
X35335375Y-9239250D02*
X35435375Y-9239250D01*
X35639375Y-7411250D02*
X35639375Y-7511250D01*
X35589375Y-7461250D02*
X35689375Y-7461250D01*
X35639375Y-9189250D02*
X35639375Y-9289250D01*
X35589375Y-9239250D02*
X35689375Y-9239250D01*
X35893375Y-7411250D02*
X35893375Y-7511250D01*
X35843375Y-7461250D02*
X35943375Y-7461250D01*
X35893375Y-9189250D02*
X35893375Y-9289250D01*
X35843375Y-9239250D02*
X35943375Y-9239250D01*
X36147375Y-7411250D02*
X36147375Y-7511250D01*
X36097375Y-7461250D02*
X36197375Y-7461250D01*
X36147375Y-9189250D02*
X36147375Y-9289250D01*
X36097375Y-9239250D02*
X36197375Y-9239250D01*
X36401375Y-7411250D02*
X36401375Y-7511250D01*
X36351375Y-7461250D02*
X36451375Y-7461250D01*
X36401375Y-9189250D02*
X36401375Y-9289250D01*
X36351375Y-9239250D02*
X36451375Y-9239250D01*
X36655375Y-7411250D02*
X36655375Y-7511250D01*
X36605375Y-7461250D02*
X36705375Y-7461250D01*
X36655375Y-9189250D02*
X36655375Y-9289250D01*
X36605375Y-9239250D02*
X36705375Y-9239250D01*
X36909375Y-7411250D02*
X36909375Y-7511250D01*
X36859375Y-7461250D02*
X36959375Y-7461250D01*
X36909375Y-9189250D02*
X36909375Y-9289250D01*
X36859375Y-9239250D02*
X36959375Y-9239250D01*
X37163375Y-7411250D02*
X37163375Y-7511250D01*
X37113375Y-7461250D02*
X37213375Y-7461250D01*
X37163375Y-9189250D02*
X37163375Y-9289250D01*
X37113375Y-9239250D02*
X37213375Y-9239250D01*
X37417375Y-7411250D02*
X37417375Y-7511250D01*
X37367375Y-7461250D02*
X37467375Y-7461250D01*
X37417375Y-9189250D02*
X37417375Y-9289250D01*
X37367375Y-9239250D02*
X37467375Y-9239250D01*
X37671375Y-7411250D02*
X37671375Y-7511250D01*
X37621375Y-7461250D02*
X37721375Y-7461250D01*
X37671375Y-9189250D02*
X37671375Y-9289250D01*
X37621375Y-9239250D02*
X37721375Y-9239250D01*
X37925375Y-7411250D02*
X37925375Y-7511250D01*
X37875375Y-7461250D02*
X37975375Y-7461250D01*
X37925375Y-9189250D02*
X37925375Y-9289250D01*
X37875375Y-9239250D02*
X37975375Y-9239250D01*
X37983500Y-5419000D02*
X37983500Y-5519000D01*
X37933500Y-5469000D02*
X38033500Y-5469000D01*
X37983500Y-5669000D02*
X37983500Y-5769000D01*
X37933500Y-5719000D02*
X38033500Y-5719000D01*
X37983500Y-5919000D02*
X37983500Y-6019000D01*
X37933500Y-5969000D02*
X38033500Y-5969000D01*
X38179375Y-7411250D02*
X38179375Y-7511250D01*
X38129375Y-7461250D02*
X38229375Y-7461250D01*
X38179375Y-9189250D02*
X38179375Y-9289250D01*
X38129375Y-9239250D02*
X38229375Y-9239250D01*
X38433375Y-7411250D02*
X38433375Y-7511250D01*
X38383375Y-7461250D02*
X38483375Y-7461250D01*
X38433375Y-9189250D02*
X38433375Y-9289250D01*
X38383375Y-9239250D02*
X38483375Y-9239250D01*
X38687375Y-7411250D02*
X38687375Y-7511250D01*
X38637375Y-7461250D02*
X38737375Y-7461250D01*
X38687375Y-9189250D02*
X38687375Y-9289250D01*
X38637375Y-9239250D02*
X38737375Y-9239250D01*
X38941375Y-7411250D02*
X38941375Y-7511250D01*
X38891375Y-7461250D02*
X38991375Y-7461250D01*
X38941375Y-9189250D02*
X38941375Y-9289250D01*
X38891375Y-9239250D02*
X38991375Y-9239250D01*
X39195375Y-7411250D02*
X39195375Y-7511250D01*
X39145375Y-7461250D02*
X39245375Y-7461250D01*
X39195375Y-9189250D02*
X39195375Y-9289250D01*
X39145375Y-9239250D02*
X39245375Y-9239250D01*
X39433500Y-5419000D02*
X39433500Y-5519000D01*
X39383500Y-5469000D02*
X39483500Y-5469000D01*
X39433500Y-5919000D02*
X39433500Y-6019000D01*
X39383500Y-5969000D02*
X39483500Y-5969000D01*
X39449375Y-7411250D02*
X39449375Y-7511250D01*
X39399375Y-7461250D02*
X39499375Y-7461250D01*
X39449375Y-9189250D02*
X39449375Y-9289250D01*
X39399375Y-9239250D02*
X39499375Y-9239250D01*
X39703375Y-7411250D02*
X39703375Y-7511250D01*
X39653375Y-7461250D02*
X39753375Y-7461250D01*
X39703375Y-9189250D02*
X39703375Y-9289250D01*
X39653375Y-9239250D02*
X39753375Y-9239250D01*
D13*
X2434284Y-5529909D02*
X2434284Y-5423842D01*
X2328217Y-5423842D01*
X2328217Y-5529909D01*
X2434284Y-5529909D01*
X2672409Y-13149908D02*
X2672409Y-13043841D01*
X2566342Y-13043841D01*
X2566342Y-13149908D01*
X2672409Y-13149908D01*
X2910533Y-7434908D02*
X2910533Y-7328841D01*
X2804466Y-7328841D01*
X2804466Y-7434908D01*
X2910533Y-7434908D01*
X3069283Y-5275909D02*
X3069283Y-5169842D01*
X2963216Y-5169842D01*
X2963216Y-5275909D01*
X3069283Y-5275909D01*
X3148658Y-9339909D02*
X3148658Y-9233842D01*
X3042591Y-9233842D01*
X3042591Y-9339909D01*
X3148658Y-9339909D01*
X3307408Y-12895908D02*
X3307408Y-12789841D01*
X3201341Y-12789841D01*
X3201341Y-12895908D01*
X3307408Y-12895908D01*
X3545533Y-7180908D02*
X3545533Y-7074841D01*
X3439466Y-7074841D01*
X3439466Y-7180908D01*
X3545533Y-7180908D01*
X3624908Y-11244908D02*
X3624908Y-11138842D01*
X3518841Y-11138842D01*
X3518841Y-11244908D01*
X3624908Y-11244908D01*
X3783658Y-9085909D02*
X3783658Y-8979842D01*
X3677591Y-8979842D01*
X3677591Y-9085909D01*
X3783658Y-9085909D01*
X4259909Y-10990909D02*
X4259909Y-10884842D01*
X4153841Y-10884842D01*
X4153841Y-10990909D01*
X4259909Y-10990909D01*
X4339284Y-5529909D02*
X4339284Y-5423842D01*
X4233217Y-5423842D01*
X4233217Y-5529909D01*
X4339284Y-5529909D01*
X4974284Y-5275909D02*
X4974284Y-5169842D01*
X4868217Y-5169842D01*
X4868217Y-5275909D01*
X4974284Y-5275909D01*
X5053659Y-13149908D02*
X5053659Y-13043841D01*
X4947592Y-13043841D01*
X4947592Y-13149908D01*
X5053659Y-13149908D01*
X5291784Y-7434908D02*
X5291784Y-7328841D01*
X5185717Y-7328841D01*
X5185717Y-7434908D01*
X5291784Y-7434908D01*
X5688658Y-12895908D02*
X5688658Y-12789841D01*
X5582592Y-12789841D01*
X5582592Y-12895908D01*
X5688658Y-12895908D01*
X5768033Y-9339909D02*
X5768033Y-9233842D01*
X5661966Y-9233842D01*
X5661966Y-9339909D01*
X5768033Y-9339909D01*
X5926783Y-7180908D02*
X5926783Y-7074841D01*
X5820716Y-7074841D01*
X5820716Y-7180908D01*
X5926783Y-7180908D01*
X6244283Y-5529909D02*
X6244283Y-5423842D01*
X6138216Y-5423842D01*
X6138216Y-5529909D01*
X6244283Y-5529909D01*
X6403033Y-9085909D02*
X6403033Y-8979842D01*
X6296966Y-8979842D01*
X6296966Y-9085909D01*
X6403033Y-9085909D01*
X6720533Y-11244908D02*
X6720533Y-11138842D01*
X6614466Y-11138842D01*
X6614466Y-11244908D01*
X6720533Y-11244908D01*
X6879283Y-5275909D02*
X6879283Y-5169842D01*
X6773216Y-5169842D01*
X6773216Y-5275909D01*
X6879283Y-5275909D01*
X7196783Y-7434908D02*
X7196783Y-7328841D01*
X7090716Y-7328841D01*
X7090716Y-7434908D01*
X7196783Y-7434908D01*
X7355533Y-10990909D02*
X7355533Y-10884842D01*
X7249466Y-10884842D01*
X7249466Y-10990909D01*
X7355533Y-10990909D01*
X7434908Y-13149908D02*
X7434908Y-13043841D01*
X7328841Y-13043841D01*
X7328841Y-13149908D01*
X7434908Y-13149908D01*
X7673033Y-9339909D02*
X7673033Y-9233842D01*
X7566966Y-9233842D01*
X7566966Y-9339909D01*
X7673033Y-9339909D01*
X7831783Y-7180908D02*
X7831783Y-7074841D01*
X7725716Y-7074841D01*
X7725716Y-7180908D01*
X7831783Y-7180908D01*
X8069908Y-12895908D02*
X8069908Y-12789841D01*
X7963841Y-12789841D01*
X7963841Y-12895908D01*
X8069908Y-12895908D01*
X8149283Y-5529909D02*
X8149283Y-5423842D01*
X8043216Y-5423842D01*
X8043216Y-5529909D01*
X8149283Y-5529909D01*
X8308033Y-9085909D02*
X8308033Y-8979842D01*
X8201966Y-8979842D01*
X8201966Y-9085909D01*
X8308033Y-9085909D01*
X8625534Y-11244908D02*
X8625534Y-11138842D01*
X8519467Y-11138842D01*
X8519467Y-11244908D01*
X8625534Y-11244908D01*
X8784284Y-5275909D02*
X8784284Y-5169842D01*
X8678217Y-5169842D01*
X8678217Y-5275909D01*
X8784284Y-5275909D01*
X9101784Y-7434908D02*
X9101784Y-7328841D01*
X8995717Y-7328841D01*
X8995717Y-7434908D01*
X9101784Y-7434908D01*
X9260534Y-10990909D02*
X9260534Y-10884842D01*
X9154467Y-10884842D01*
X9154467Y-10990909D01*
X9260534Y-10990909D01*
X9578034Y-9339909D02*
X9578034Y-9233842D01*
X9471967Y-9233842D01*
X9471967Y-9339909D01*
X9578034Y-9339909D01*
X9736784Y-7180908D02*
X9736784Y-7074841D01*
X9630717Y-7074841D01*
X9630717Y-7180908D01*
X9736784Y-7180908D01*
X10054284Y-5529909D02*
X10054284Y-5423842D01*
X9948217Y-5423842D01*
X9948217Y-5529909D01*
X10054284Y-5529909D01*
X10213034Y-9085909D02*
X10213034Y-8979842D01*
X10106967Y-8979842D01*
X10106967Y-9085909D01*
X10213034Y-9085909D01*
X10530534Y-11244908D02*
X10530534Y-11138842D01*
X10424467Y-11138842D01*
X10424467Y-11244908D01*
X10530534Y-11244908D01*
X10689284Y-5275909D02*
X10689284Y-5169842D01*
X10583217Y-5169842D01*
X10583217Y-5275909D01*
X10689284Y-5275909D01*
X11006784Y-7434908D02*
X11006784Y-7328841D01*
X10900717Y-7328841D01*
X10900717Y-7434908D01*
X11006784Y-7434908D01*
X11165534Y-10990909D02*
X11165534Y-10884842D01*
X11059467Y-10884842D01*
X11059467Y-10990909D01*
X11165534Y-10990909D01*
X11483033Y-9339909D02*
X11483033Y-9233842D01*
X11376966Y-9233842D01*
X11376966Y-9339909D01*
X11483033Y-9339909D01*
X11641783Y-7180908D02*
X11641783Y-7074841D01*
X11535716Y-7074841D01*
X11535716Y-7180908D01*
X11641783Y-7180908D01*
X11959283Y-5529909D02*
X11959283Y-5423842D01*
X11853216Y-5423842D01*
X11853216Y-5529909D01*
X11959283Y-5529909D01*
X12118033Y-9085909D02*
X12118033Y-8979842D01*
X12011966Y-8979842D01*
X12011966Y-9085909D01*
X12118033Y-9085909D01*
X12435533Y-11244908D02*
X12435533Y-11138842D01*
X12329466Y-11138842D01*
X12329466Y-11244908D01*
X12435533Y-11244908D01*
X12594283Y-5275909D02*
X12594283Y-5169842D01*
X12488216Y-5169842D01*
X12488216Y-5275909D01*
X12594283Y-5275909D01*
X12911783Y-7434908D02*
X12911783Y-7328841D01*
X12805716Y-7328841D01*
X12805716Y-7434908D01*
X12911783Y-7434908D01*
X13070533Y-10990909D02*
X13070533Y-10884842D01*
X12964466Y-10884842D01*
X12964466Y-10990909D01*
X13070533Y-10990909D01*
X13388033Y-9339909D02*
X13388033Y-9233842D01*
X13281966Y-9233842D01*
X13281966Y-9339909D01*
X13388033Y-9339909D01*
X13546783Y-7180908D02*
X13546783Y-7074841D01*
X13440716Y-7074841D01*
X13440716Y-7180908D01*
X13546783Y-7180908D01*
X13864283Y-5529909D02*
X13864283Y-5423842D01*
X13758216Y-5423842D01*
X13758216Y-5529909D01*
X13864283Y-5529909D01*
X14023033Y-9085909D02*
X14023033Y-8979842D01*
X13916966Y-8979842D01*
X13916966Y-9085909D01*
X14023033Y-9085909D01*
X14340533Y-11244908D02*
X14340533Y-11138842D01*
X14234466Y-11138842D01*
X14234466Y-11244908D01*
X14340533Y-11244908D01*
X14499283Y-5275909D02*
X14499283Y-5169842D01*
X14393216Y-5169842D01*
X14393216Y-5275909D01*
X14499283Y-5275909D01*
X14578658Y-13149908D02*
X14578658Y-13043841D01*
X14472591Y-13043841D01*
X14472591Y-13149908D01*
X14578658Y-13149908D01*
X14816783Y-7434908D02*
X14816783Y-7328841D01*
X14710716Y-7328841D01*
X14710716Y-7434908D01*
X14816783Y-7434908D01*
X14975533Y-10990909D02*
X14975533Y-10884842D01*
X14869466Y-10884842D01*
X14869466Y-10990909D01*
X14975533Y-10990909D01*
X15213658Y-12895908D02*
X15213658Y-12789841D01*
X15107591Y-12789841D01*
X15107591Y-12895908D01*
X15213658Y-12895908D01*
X15293033Y-9339909D02*
X15293033Y-9233842D01*
X15186966Y-9233842D01*
X15186966Y-9339909D01*
X15293033Y-9339909D01*
X15451783Y-7180908D02*
X15451783Y-7074841D01*
X15345716Y-7074841D01*
X15345716Y-7180908D01*
X15451783Y-7180908D01*
X15769283Y-5529909D02*
X15769283Y-5423842D01*
X15663216Y-5423842D01*
X15663216Y-5529909D01*
X15769283Y-5529909D01*
X15928033Y-9085909D02*
X15928033Y-8979842D01*
X15821966Y-8979842D01*
X15821966Y-9085909D01*
X15928033Y-9085909D01*
X16245533Y-11244908D02*
X16245533Y-11138842D01*
X16139466Y-11138842D01*
X16139466Y-11244908D01*
X16245533Y-11244908D01*
X16404283Y-5275909D02*
X16404283Y-5169842D01*
X16298216Y-5169842D01*
X16298216Y-5275909D01*
X16404283Y-5275909D01*
X16721783Y-7434908D02*
X16721783Y-7328841D01*
X16615716Y-7328841D01*
X16615716Y-7434908D01*
X16721783Y-7434908D01*
X16880534Y-10990909D02*
X16880534Y-10884842D01*
X16774466Y-10884842D01*
X16774466Y-10990909D01*
X16880534Y-10990909D01*
X17198034Y-9339909D02*
X17198034Y-9233842D01*
X17091967Y-9233842D01*
X17091967Y-9339909D01*
X17198034Y-9339909D01*
X17356784Y-7180908D02*
X17356784Y-7074841D01*
X17250717Y-7074841D01*
X17250717Y-7180908D01*
X17356784Y-7180908D01*
X17674284Y-5529909D02*
X17674284Y-5423842D01*
X17568217Y-5423842D01*
X17568217Y-5529909D01*
X17674284Y-5529909D01*
X17833034Y-9085909D02*
X17833034Y-8979842D01*
X17726967Y-8979842D01*
X17726967Y-9085909D01*
X17833034Y-9085909D01*
X18150534Y-11244908D02*
X18150534Y-11138842D01*
X18044467Y-11138842D01*
X18044467Y-11244908D01*
X18150534Y-11244908D01*
X18309284Y-5275909D02*
X18309284Y-5169842D01*
X18203217Y-5169842D01*
X18203217Y-5275909D01*
X18309284Y-5275909D01*
X18626784Y-7434908D02*
X18626784Y-7328841D01*
X18520717Y-7328841D01*
X18520717Y-7434908D01*
X18626784Y-7434908D01*
X18785534Y-10990909D02*
X18785534Y-10884842D01*
X18679467Y-10884842D01*
X18679467Y-10990909D01*
X18785534Y-10990909D01*
X19103034Y-9339909D02*
X19103034Y-9233842D01*
X18996967Y-9233842D01*
X18996967Y-9339909D01*
X19103034Y-9339909D01*
X19261784Y-7180908D02*
X19261784Y-7074841D01*
X19155717Y-7074841D01*
X19155717Y-7180908D01*
X19261784Y-7180908D01*
X19579284Y-5529909D02*
X19579284Y-5423842D01*
X19473217Y-5423842D01*
X19473217Y-5529909D01*
X19579284Y-5529909D01*
X19738034Y-9085909D02*
X19738034Y-8979842D01*
X19631967Y-8979842D01*
X19631967Y-9085909D01*
X19738034Y-9085909D01*
X20055534Y-11244908D02*
X20055534Y-11138842D01*
X19949467Y-11138842D01*
X19949467Y-11244908D01*
X20055534Y-11244908D01*
X20214284Y-5275909D02*
X20214284Y-5169842D01*
X20108217Y-5169842D01*
X20108217Y-5275909D01*
X20214284Y-5275909D01*
X20531784Y-7434908D02*
X20531784Y-7328841D01*
X20425717Y-7328841D01*
X20425717Y-7434908D01*
X20531784Y-7434908D01*
X20690534Y-10990909D02*
X20690534Y-10884842D01*
X20584467Y-10884842D01*
X20584467Y-10990909D01*
X20690534Y-10990909D01*
X21008034Y-9339909D02*
X21008034Y-9233842D01*
X20901967Y-9233842D01*
X20901967Y-9339909D01*
X21008034Y-9339909D01*
X21166784Y-7180908D02*
X21166784Y-7074841D01*
X21060717Y-7074841D01*
X21060717Y-7180908D01*
X21166784Y-7180908D01*
X21484284Y-5529909D02*
X21484284Y-5423842D01*
X21378217Y-5423842D01*
X21378217Y-5529909D01*
X21484284Y-5529909D01*
X21627159Y-13149908D02*
X21627159Y-13043841D01*
X21521092Y-13043841D01*
X21521092Y-13149908D01*
X21627159Y-13149908D01*
X21643034Y-9085909D02*
X21643034Y-8979842D01*
X21536967Y-8979842D01*
X21536967Y-9085909D01*
X21643034Y-9085909D01*
X21960534Y-11244908D02*
X21960534Y-11138842D01*
X21854467Y-11138842D01*
X21854467Y-11244908D01*
X21960534Y-11244908D01*
X22119284Y-5275909D02*
X22119284Y-5169842D01*
X22013217Y-5169842D01*
X22013217Y-5275909D01*
X22119284Y-5275909D01*
X22262159Y-12895908D02*
X22262159Y-12789841D01*
X22156092Y-12789841D01*
X22156092Y-12895908D01*
X22262159Y-12895908D01*
X22436783Y-7434908D02*
X22436783Y-7328841D01*
X22330717Y-7328841D01*
X22330717Y-7434908D01*
X22436783Y-7434908D01*
X22595533Y-10990909D02*
X22595533Y-10884842D01*
X22489466Y-10884842D01*
X22489466Y-10990909D01*
X22595533Y-10990909D01*
X22913033Y-9339909D02*
X22913033Y-9233842D01*
X22806966Y-9233842D01*
X22806966Y-9339909D01*
X22913033Y-9339909D01*
X23071783Y-7180908D02*
X23071783Y-7074841D01*
X22965716Y-7074841D01*
X22965716Y-7180908D01*
X23071783Y-7180908D01*
X23389283Y-5529909D02*
X23389283Y-5423842D01*
X23283216Y-5423842D01*
X23283216Y-5529909D01*
X23389283Y-5529909D01*
X23548033Y-9085909D02*
X23548033Y-8979842D01*
X23441966Y-8979842D01*
X23441966Y-9085909D01*
X23548033Y-9085909D01*
X23865533Y-11244908D02*
X23865533Y-11138842D01*
X23759466Y-11138842D01*
X23759466Y-11244908D01*
X23865533Y-11244908D01*
X24024283Y-5275909D02*
X24024283Y-5169842D01*
X23918216Y-5169842D01*
X23918216Y-5275909D01*
X24024283Y-5275909D01*
X24071908Y-13149908D02*
X24071908Y-13043841D01*
X23965841Y-13043841D01*
X23965841Y-13149908D01*
X24071908Y-13149908D01*
X24341783Y-7434908D02*
X24341783Y-7328841D01*
X24235716Y-7328841D01*
X24235716Y-7434908D01*
X24341783Y-7434908D01*
X24500533Y-10990909D02*
X24500533Y-10884842D01*
X24394466Y-10884842D01*
X24394466Y-10990909D01*
X24500533Y-10990909D01*
X24706908Y-12895908D02*
X24706908Y-12789841D01*
X24600841Y-12789841D01*
X24600841Y-12895908D01*
X24706908Y-12895908D01*
X24818033Y-9339909D02*
X24818033Y-9233842D01*
X24711966Y-9233842D01*
X24711966Y-9339909D01*
X24818033Y-9339909D01*
X24976783Y-7180908D02*
X24976783Y-7074841D01*
X24870716Y-7074841D01*
X24870716Y-7180908D01*
X24976783Y-7180908D01*
X25294283Y-5529909D02*
X25294283Y-5423842D01*
X25188216Y-5423842D01*
X25188216Y-5529909D01*
X25294283Y-5529909D01*
X25453033Y-9085909D02*
X25453033Y-8979842D01*
X25346966Y-8979842D01*
X25346966Y-9085909D01*
X25453033Y-9085909D01*
X25929283Y-5275909D02*
X25929283Y-5169842D01*
X25823216Y-5169842D01*
X25823216Y-5275909D01*
X25929283Y-5275909D01*
X26246783Y-7434908D02*
X26246783Y-7328841D01*
X26140716Y-7328841D01*
X26140716Y-7434908D01*
X26246783Y-7434908D01*
X26246783Y-13149908D02*
X26246783Y-13043841D01*
X26140716Y-13043841D01*
X26140716Y-13149908D01*
X26246783Y-13149908D01*
X26881783Y-7180908D02*
X26881783Y-7074841D01*
X26775716Y-7074841D01*
X26775716Y-7180908D01*
X26881783Y-7180908D01*
X26881783Y-12895908D02*
X26881783Y-12789841D01*
X26775716Y-12789841D01*
X26775716Y-12895908D01*
X26881783Y-12895908D01*
X27199283Y-5529909D02*
X27199283Y-5423842D01*
X27093216Y-5423842D01*
X27093216Y-5529909D01*
X27199283Y-5529909D01*
X27437408Y-11244908D02*
X27437408Y-11138842D01*
X27331341Y-11138842D01*
X27331341Y-11244908D01*
X27437408Y-11244908D01*
X27834283Y-5275909D02*
X27834283Y-5169842D01*
X27728216Y-5169842D01*
X27728216Y-5275909D01*
X27834283Y-5275909D01*
X27913658Y-9339909D02*
X27913658Y-9233842D01*
X27807591Y-9233842D01*
X27807591Y-9339909D01*
X27913658Y-9339909D01*
X28072408Y-10990909D02*
X28072408Y-10884842D01*
X27966341Y-10884842D01*
X27966341Y-10990909D01*
X28072408Y-10990909D01*
X28548658Y-9085909D02*
X28548658Y-8979842D01*
X28442591Y-8979842D01*
X28442591Y-9085909D01*
X28548658Y-9085909D01*
X28628033Y-7434908D02*
X28628033Y-7328841D01*
X28521966Y-7328841D01*
X28521966Y-7434908D01*
X28628033Y-7434908D01*
X28628033Y-13149908D02*
X28628033Y-13043841D01*
X28521966Y-13043841D01*
X28521966Y-13149908D01*
X28628033Y-13149908D01*
X29104283Y-5529909D02*
X29104283Y-5423842D01*
X28998216Y-5423842D01*
X28998216Y-5529909D01*
X29104283Y-5529909D01*
X29263033Y-7180908D02*
X29263033Y-7074841D01*
X29156966Y-7074841D01*
X29156966Y-7180908D01*
X29263033Y-7180908D01*
X29263033Y-12895908D02*
X29263033Y-12789841D01*
X29156966Y-12789841D01*
X29156966Y-12895908D01*
X29263033Y-12895908D01*
X29739283Y-5275909D02*
X29739283Y-5169842D01*
X29633216Y-5169842D01*
X29633216Y-5275909D01*
X29739283Y-5275909D01*
X31961783Y-5529909D02*
X31961783Y-5423842D01*
X31855716Y-5423842D01*
X31855716Y-5529909D01*
X31961783Y-5529909D01*
X31961783Y-13149908D02*
X31961783Y-13043841D01*
X31855716Y-13043841D01*
X31855716Y-13149908D01*
X31961783Y-13149908D01*
X32596783Y-5275909D02*
X32596783Y-5169842D01*
X32490716Y-5169842D01*
X32490716Y-5275909D01*
X32596783Y-5275909D01*
X32596783Y-12895908D02*
X32596783Y-12789841D01*
X32490716Y-12789841D01*
X32490716Y-12895908D01*
X32596783Y-12895908D01*
X33866784Y-5529909D02*
X33866784Y-5423842D01*
X33760717Y-5423842D01*
X33760717Y-5529909D01*
X33866784Y-5529909D01*
X33866784Y-11244908D02*
X33866784Y-11138842D01*
X33760717Y-11138842D01*
X33760717Y-11244908D01*
X33866784Y-11244908D01*
X33866784Y-13149908D02*
X33866784Y-13043841D01*
X33760717Y-13043841D01*
X33760717Y-13149908D01*
X33866784Y-13149908D01*
X34501784Y-5275909D02*
X34501784Y-5169842D01*
X34395717Y-5169842D01*
X34395717Y-5275909D01*
X34501784Y-5275909D01*
X34501784Y-10990909D02*
X34501784Y-10884842D01*
X34395717Y-10884842D01*
X34395717Y-10990909D01*
X34501784Y-10990909D01*
X34501784Y-12895908D02*
X34501784Y-12789841D01*
X34395717Y-12789841D01*
X34395717Y-12895908D01*
X34501784Y-12895908D01*
X35771784Y-5529909D02*
X35771784Y-5423842D01*
X35665717Y-5423842D01*
X35665717Y-5529909D01*
X35771784Y-5529909D01*
X35771784Y-13149908D02*
X35771784Y-13043841D01*
X35665717Y-13043841D01*
X35665717Y-13149908D01*
X35771784Y-13149908D01*
X36406784Y-5275909D02*
X36406784Y-5169842D01*
X36300717Y-5169842D01*
X36300717Y-5275909D01*
X36406784Y-5275909D01*
X36406784Y-12895908D02*
X36406784Y-12789841D01*
X36300717Y-12789841D01*
X36300717Y-12895908D01*
X36406784Y-12895908D01*
X38613409Y-11244908D02*
X38613409Y-11138842D01*
X38507342Y-11138842D01*
X38507342Y-11244908D01*
X38613409Y-11244908D01*
X38629284Y-13149908D02*
X38629284Y-13043841D01*
X38523217Y-13043841D01*
X38523217Y-13149908D01*
X38629284Y-13149908D01*
X38786534Y-5212034D02*
X38786534Y-5105967D01*
X38680467Y-5105967D01*
X38680467Y-5212034D01*
X38786534Y-5212034D01*
D12*
X38668500Y-5234000D02*
X38798500Y-5234000D01*
X38798500Y-5084000D02*
G75*
G02*
X38798500Y-5234000I0J-75000D01*
G01*
X38798500Y-5084000D02*
X38668500Y-5084000D01*
X38668500Y-5084000D02*
G75*
G03*
X38668500Y-5234000I0J-75000D01*
G01*
D13*
X38786534Y-6332033D02*
X38786534Y-6225966D01*
X38680467Y-6225966D01*
X38680467Y-6332033D01*
X38786534Y-6332033D01*
D12*
X38668500Y-6354000D02*
X38798500Y-6354000D01*
X38798500Y-6204000D02*
G75*
G02*
X38798500Y-6354000I0J-75000D01*
G01*
X38798500Y-6204000D02*
X38668500Y-6204000D01*
X38668500Y-6204000D02*
G75*
G03*
X38668500Y-6354000I0J-75000D01*
G01*
D13*
X39248409Y-10990909D02*
X39248409Y-10884842D01*
X39142342Y-10884842D01*
X39142342Y-10990909D01*
X39248409Y-10990909D01*
X39264284Y-12895908D02*
X39264284Y-12789841D01*
X39158217Y-12789841D01*
X39158217Y-12895908D01*
X39264284Y-12895908D01*
D14*
X9906000Y-12804775D02*
X10058400Y-12652375D01*
X9906000Y-12499975D01*
X9753600Y-12652375D01*
X9906000Y-12804775D01*
X19907250Y-12804775D02*
X20059650Y-12652375D01*
X19907250Y-12499975D01*
X19754850Y-12652375D01*
X19907250Y-12804775D01*
D11*
X1829902Y-15077734D02*
X1829902Y-14877734D01*
X1829902Y-14877734D02*
X1877521Y-14877734D01*
X1877521Y-14877734D02*
X1906092Y-14887258D01*
X1906092Y-14887258D02*
X1925140Y-14906305D01*
X1925140Y-14906305D02*
X1934664Y-14925353D01*
X1934664Y-14925353D02*
X1944187Y-14963448D01*
X1944187Y-14963448D02*
X1944187Y-14992019D01*
X1944187Y-14992019D02*
X1934664Y-15030115D01*
X1934664Y-15030115D02*
X1925140Y-15049162D01*
X1925140Y-15049162D02*
X1906092Y-15068210D01*
X1906092Y-15068210D02*
X1877521Y-15077734D01*
X1877521Y-15077734D02*
X1829902Y-15077734D01*
X2029902Y-15077734D02*
X2029902Y-14944400D01*
X2029902Y-14982496D02*
X2039426Y-14963448D01*
X2039426Y-14963448D02*
X2048949Y-14953924D01*
X2048949Y-14953924D02*
X2067997Y-14944400D01*
X2067997Y-14944400D02*
X2087045Y-14944400D01*
X2153711Y-15077734D02*
X2153711Y-14944400D01*
X2153711Y-14877734D02*
X2144188Y-14887258D01*
X2144188Y-14887258D02*
X2153711Y-14896781D01*
X2153711Y-14896781D02*
X2163235Y-14887258D01*
X2163235Y-14887258D02*
X2153711Y-14877734D01*
X2153711Y-14877734D02*
X2153711Y-14896781D01*
X2277521Y-15077734D02*
X2258473Y-15068210D01*
X2258473Y-15068210D02*
X2248949Y-15049162D01*
X2248949Y-15049162D02*
X2248949Y-14877734D01*
X2382283Y-15077734D02*
X2363235Y-15068210D01*
X2363235Y-15068210D02*
X2353711Y-15049162D01*
X2353711Y-15049162D02*
X2353711Y-14877734D01*
X2610854Y-15077734D02*
X2610854Y-14877734D01*
X2610854Y-14877734D02*
X2677521Y-15020591D01*
X2677521Y-15020591D02*
X2744188Y-14877734D01*
X2744188Y-14877734D02*
X2744188Y-15077734D01*
X2925140Y-15077734D02*
X2925140Y-14972972D01*
X2925140Y-14972972D02*
X2915616Y-14953924D01*
X2915616Y-14953924D02*
X2896568Y-14944400D01*
X2896568Y-14944400D02*
X2858473Y-14944400D01*
X2858473Y-14944400D02*
X2839426Y-14953924D01*
X2925140Y-15068210D02*
X2906092Y-15077734D01*
X2906092Y-15077734D02*
X2858473Y-15077734D01*
X2858473Y-15077734D02*
X2839426Y-15068210D01*
X2839426Y-15068210D02*
X2829902Y-15049162D01*
X2829902Y-15049162D02*
X2829902Y-15030115D01*
X2829902Y-15030115D02*
X2839426Y-15011067D01*
X2839426Y-15011067D02*
X2858473Y-15001543D01*
X2858473Y-15001543D02*
X2906092Y-15001543D01*
X2906092Y-15001543D02*
X2925140Y-14992019D01*
X3020378Y-14944400D02*
X3020378Y-15144400D01*
X3020378Y-14953924D02*
X3039426Y-14944400D01*
X3039426Y-14944400D02*
X3077521Y-14944400D01*
X3077521Y-14944400D02*
X3096568Y-14953924D01*
X3096568Y-14953924D02*
X3106092Y-14963448D01*
X3106092Y-14963448D02*
X3115616Y-14982496D01*
X3115616Y-14982496D02*
X3115616Y-15039638D01*
X3115616Y-15039638D02*
X3106092Y-15058686D01*
X3106092Y-15058686D02*
X3096568Y-15068210D01*
X3096568Y-15068210D02*
X3077521Y-15077734D01*
X3077521Y-15077734D02*
X3039426Y-15077734D01*
X3039426Y-15077734D02*
X3020378Y-15068210D01*
X3201330Y-15058686D02*
X3210854Y-15068210D01*
X3210854Y-15068210D02*
X3201330Y-15077734D01*
X3201330Y-15077734D02*
X3191807Y-15068210D01*
X3191807Y-15068210D02*
X3201330Y-15058686D01*
X3201330Y-15058686D02*
X3201330Y-15077734D01*
X3201330Y-14953924D02*
X3210854Y-14963448D01*
X3210854Y-14963448D02*
X3201330Y-14972972D01*
X3201330Y-14972972D02*
X3191807Y-14963448D01*
X3191807Y-14963448D02*
X3201330Y-14953924D01*
X3201330Y-14953924D02*
X3201330Y-14972972D01*
D12*
X1539125Y-15391250D02*
X1569125Y-15421250D01*
X1569125Y-15391250D02*
X1539125Y-15421250D01*
D11*
X1867997Y-15297734D02*
X1887045Y-15297734D01*
X1887045Y-15297734D02*
X1906092Y-15307258D01*
X1906092Y-15307258D02*
X1915616Y-15316781D01*
X1915616Y-15316781D02*
X1925140Y-15335829D01*
X1925140Y-15335829D02*
X1934664Y-15373924D01*
X1934664Y-15373924D02*
X1934664Y-15421543D01*
X1934664Y-15421543D02*
X1925140Y-15459638D01*
X1925140Y-15459638D02*
X1915616Y-15478686D01*
X1915616Y-15478686D02*
X1906092Y-15488210D01*
X1906092Y-15488210D02*
X1887045Y-15497734D01*
X1887045Y-15497734D02*
X1867997Y-15497734D01*
X1867997Y-15497734D02*
X1848949Y-15488210D01*
X1848949Y-15488210D02*
X1839426Y-15478686D01*
X1839426Y-15478686D02*
X1829902Y-15459638D01*
X1829902Y-15459638D02*
X1820378Y-15421543D01*
X1820378Y-15421543D02*
X1820378Y-15373924D01*
X1820378Y-15373924D02*
X1829902Y-15335829D01*
X1829902Y-15335829D02*
X1839426Y-15316781D01*
X1839426Y-15316781D02*
X1848949Y-15307258D01*
X1848949Y-15307258D02*
X1867997Y-15297734D01*
X2029902Y-15488210D02*
X2029902Y-15497734D01*
X2029902Y-15497734D02*
X2020378Y-15516781D01*
X2020378Y-15516781D02*
X2010854Y-15526305D01*
X2096568Y-15297734D02*
X2220378Y-15297734D01*
X2220378Y-15297734D02*
X2153711Y-15373924D01*
X2153711Y-15373924D02*
X2182283Y-15373924D01*
X2182283Y-15373924D02*
X2201330Y-15383448D01*
X2201330Y-15383448D02*
X2210854Y-15392972D01*
X2210854Y-15392972D02*
X2220378Y-15412019D01*
X2220378Y-15412019D02*
X2220378Y-15459638D01*
X2220378Y-15459638D02*
X2210854Y-15478686D01*
X2210854Y-15478686D02*
X2201330Y-15488210D01*
X2201330Y-15488210D02*
X2182283Y-15497734D01*
X2182283Y-15497734D02*
X2125140Y-15497734D01*
X2125140Y-15497734D02*
X2106092Y-15488210D01*
X2106092Y-15488210D02*
X2096568Y-15478686D01*
X2344188Y-15297734D02*
X2363235Y-15297734D01*
X2363235Y-15297734D02*
X2382283Y-15307258D01*
X2382283Y-15307258D02*
X2391807Y-15316781D01*
X2391807Y-15316781D02*
X2401330Y-15335829D01*
X2401330Y-15335829D02*
X2410854Y-15373924D01*
X2410854Y-15373924D02*
X2410854Y-15421543D01*
X2410854Y-15421543D02*
X2401330Y-15459638D01*
X2401330Y-15459638D02*
X2391807Y-15478686D01*
X2391807Y-15478686D02*
X2382283Y-15488210D01*
X2382283Y-15488210D02*
X2363235Y-15497734D01*
X2363235Y-15497734D02*
X2344188Y-15497734D01*
X2344188Y-15497734D02*
X2325140Y-15488210D01*
X2325140Y-15488210D02*
X2315616Y-15478686D01*
X2315616Y-15478686D02*
X2306092Y-15459638D01*
X2306092Y-15459638D02*
X2296569Y-15421543D01*
X2296569Y-15421543D02*
X2296569Y-15373924D01*
X2296569Y-15373924D02*
X2306092Y-15335829D01*
X2306092Y-15335829D02*
X2315616Y-15316781D01*
X2315616Y-15316781D02*
X2325140Y-15307258D01*
X2325140Y-15307258D02*
X2344188Y-15297734D01*
X2534664Y-15297734D02*
X2553711Y-15297734D01*
X2553711Y-15297734D02*
X2572759Y-15307258D01*
X2572759Y-15307258D02*
X2582283Y-15316781D01*
X2582283Y-15316781D02*
X2591807Y-15335829D01*
X2591807Y-15335829D02*
X2601330Y-15373924D01*
X2601330Y-15373924D02*
X2601330Y-15421543D01*
X2601330Y-15421543D02*
X2591807Y-15459638D01*
X2591807Y-15459638D02*
X2582283Y-15478686D01*
X2582283Y-15478686D02*
X2572759Y-15488210D01*
X2572759Y-15488210D02*
X2553711Y-15497734D01*
X2553711Y-15497734D02*
X2534664Y-15497734D01*
X2534664Y-15497734D02*
X2515616Y-15488210D01*
X2515616Y-15488210D02*
X2506092Y-15478686D01*
X2506092Y-15478686D02*
X2496569Y-15459638D01*
X2496569Y-15459638D02*
X2487045Y-15421543D01*
X2487045Y-15421543D02*
X2487045Y-15373924D01*
X2487045Y-15373924D02*
X2496569Y-15335829D01*
X2496569Y-15335829D02*
X2506092Y-15316781D01*
X2506092Y-15316781D02*
X2515616Y-15307258D01*
X2515616Y-15307258D02*
X2534664Y-15297734D01*
X2687045Y-15497734D02*
X2687045Y-15364400D01*
X2687045Y-15383448D02*
X2696569Y-15373924D01*
X2696569Y-15373924D02*
X2715616Y-15364400D01*
X2715616Y-15364400D02*
X2744188Y-15364400D01*
X2744188Y-15364400D02*
X2763235Y-15373924D01*
X2763235Y-15373924D02*
X2772759Y-15392972D01*
X2772759Y-15392972D02*
X2772759Y-15497734D01*
X2772759Y-15392972D02*
X2782283Y-15373924D01*
X2782283Y-15373924D02*
X2801330Y-15364400D01*
X2801330Y-15364400D02*
X2829902Y-15364400D01*
X2829902Y-15364400D02*
X2848949Y-15373924D01*
X2848949Y-15373924D02*
X2858473Y-15392972D01*
X2858473Y-15392972D02*
X2858473Y-15497734D01*
X2953711Y-15497734D02*
X2953711Y-15364400D01*
X2953711Y-15383448D02*
X2963235Y-15373924D01*
X2963235Y-15373924D02*
X2982283Y-15364400D01*
X2982283Y-15364400D02*
X3010854Y-15364400D01*
X3010854Y-15364400D02*
X3029902Y-15373924D01*
X3029902Y-15373924D02*
X3039426Y-15392972D01*
X3039426Y-15392972D02*
X3039426Y-15497734D01*
X3039426Y-15392972D02*
X3048949Y-15373924D01*
X3048949Y-15373924D02*
X3067997Y-15364400D01*
X3067997Y-15364400D02*
X3096568Y-15364400D01*
X3096568Y-15364400D02*
X3115616Y-15373924D01*
X3115616Y-15373924D02*
X3125140Y-15392972D01*
X3125140Y-15392972D02*
X3125140Y-15497734D01*
X3515616Y-15288210D02*
X3344188Y-15545353D01*
X3772759Y-15297734D02*
X3791807Y-15297734D01*
X3791807Y-15297734D02*
X3810854Y-15307258D01*
X3810854Y-15307258D02*
X3820378Y-15316781D01*
X3820378Y-15316781D02*
X3829902Y-15335829D01*
X3829902Y-15335829D02*
X3839426Y-15373924D01*
X3839426Y-15373924D02*
X3839426Y-15421543D01*
X3839426Y-15421543D02*
X3829902Y-15459638D01*
X3829902Y-15459638D02*
X3820378Y-15478686D01*
X3820378Y-15478686D02*
X3810854Y-15488210D01*
X3810854Y-15488210D02*
X3791807Y-15497734D01*
X3791807Y-15497734D02*
X3772759Y-15497734D01*
X3772759Y-15497734D02*
X3753711Y-15488210D01*
X3753711Y-15488210D02*
X3744188Y-15478686D01*
X3744188Y-15478686D02*
X3734664Y-15459638D01*
X3734664Y-15459638D02*
X3725140Y-15421543D01*
X3725140Y-15421543D02*
X3725140Y-15373924D01*
X3725140Y-15373924D02*
X3734664Y-15335829D01*
X3734664Y-15335829D02*
X3744188Y-15316781D01*
X3744188Y-15316781D02*
X3753711Y-15307258D01*
X3753711Y-15307258D02*
X3772759Y-15297734D01*
X3934664Y-15488210D02*
X3934664Y-15497734D01*
X3934664Y-15497734D02*
X3925140Y-15516781D01*
X3925140Y-15516781D02*
X3915616Y-15526305D01*
X4058473Y-15297734D02*
X4077521Y-15297734D01*
X4077521Y-15297734D02*
X4096569Y-15307258D01*
X4096569Y-15307258D02*
X4106092Y-15316781D01*
X4106092Y-15316781D02*
X4115616Y-15335829D01*
X4115616Y-15335829D02*
X4125140Y-15373924D01*
X4125140Y-15373924D02*
X4125140Y-15421543D01*
X4125140Y-15421543D02*
X4115616Y-15459638D01*
X4115616Y-15459638D02*
X4106092Y-15478686D01*
X4106092Y-15478686D02*
X4096569Y-15488210D01*
X4096569Y-15488210D02*
X4077521Y-15497734D01*
X4077521Y-15497734D02*
X4058473Y-15497734D01*
X4058473Y-15497734D02*
X4039426Y-15488210D01*
X4039426Y-15488210D02*
X4029902Y-15478686D01*
X4029902Y-15478686D02*
X4020378Y-15459638D01*
X4020378Y-15459638D02*
X4010854Y-15421543D01*
X4010854Y-15421543D02*
X4010854Y-15373924D01*
X4010854Y-15373924D02*
X4020378Y-15335829D01*
X4020378Y-15335829D02*
X4029902Y-15316781D01*
X4029902Y-15316781D02*
X4039426Y-15307258D01*
X4039426Y-15307258D02*
X4058473Y-15297734D01*
X4315616Y-15497734D02*
X4201331Y-15497734D01*
X4258473Y-15497734D02*
X4258473Y-15297734D01*
X4258473Y-15297734D02*
X4239426Y-15326305D01*
X4239426Y-15326305D02*
X4220378Y-15345353D01*
X4220378Y-15345353D02*
X4201331Y-15354877D01*
X4506093Y-15497734D02*
X4391807Y-15497734D01*
X4448950Y-15497734D02*
X4448950Y-15297734D01*
X4448950Y-15297734D02*
X4429902Y-15326305D01*
X4429902Y-15326305D02*
X4410854Y-15345353D01*
X4410854Y-15345353D02*
X4391807Y-15354877D01*
X4620378Y-15383448D02*
X4601331Y-15373924D01*
X4601331Y-15373924D02*
X4591807Y-15364400D01*
X4591807Y-15364400D02*
X4582283Y-15345353D01*
X4582283Y-15345353D02*
X4582283Y-15335829D01*
X4582283Y-15335829D02*
X4591807Y-15316781D01*
X4591807Y-15316781D02*
X4601331Y-15307258D01*
X4601331Y-15307258D02*
X4620378Y-15297734D01*
X4620378Y-15297734D02*
X4658474Y-15297734D01*
X4658474Y-15297734D02*
X4677521Y-15307258D01*
X4677521Y-15307258D02*
X4687045Y-15316781D01*
X4687045Y-15316781D02*
X4696569Y-15335829D01*
X4696569Y-15335829D02*
X4696569Y-15345353D01*
X4696569Y-15345353D02*
X4687045Y-15364400D01*
X4687045Y-15364400D02*
X4677521Y-15373924D01*
X4677521Y-15373924D02*
X4658474Y-15383448D01*
X4658474Y-15383448D02*
X4620378Y-15383448D01*
X4620378Y-15383448D02*
X4601331Y-15392972D01*
X4601331Y-15392972D02*
X4591807Y-15402496D01*
X4591807Y-15402496D02*
X4582283Y-15421543D01*
X4582283Y-15421543D02*
X4582283Y-15459638D01*
X4582283Y-15459638D02*
X4591807Y-15478686D01*
X4591807Y-15478686D02*
X4601331Y-15488210D01*
X4601331Y-15488210D02*
X4620378Y-15497734D01*
X4620378Y-15497734D02*
X4658474Y-15497734D01*
X4658474Y-15497734D02*
X4677521Y-15488210D01*
X4677521Y-15488210D02*
X4687045Y-15478686D01*
X4687045Y-15478686D02*
X4696569Y-15459638D01*
X4696569Y-15459638D02*
X4696569Y-15421543D01*
X4696569Y-15421543D02*
X4687045Y-15402496D01*
X4687045Y-15402496D02*
X4677521Y-15392972D01*
X4677521Y-15392972D02*
X4658474Y-15383448D01*
X4772759Y-15297734D02*
X4772759Y-15335829D01*
X4848950Y-15297734D02*
X4848950Y-15335829D01*
X5144188Y-15573924D02*
X5134664Y-15564400D01*
X5134664Y-15564400D02*
X5115616Y-15535829D01*
X5115616Y-15535829D02*
X5106093Y-15516781D01*
X5106093Y-15516781D02*
X5096569Y-15488210D01*
X5096569Y-15488210D02*
X5087045Y-15440591D01*
X5087045Y-15440591D02*
X5087045Y-15402496D01*
X5087045Y-15402496D02*
X5096569Y-15354877D01*
X5096569Y-15354877D02*
X5106093Y-15326305D01*
X5106093Y-15326305D02*
X5115616Y-15307258D01*
X5115616Y-15307258D02*
X5134664Y-15278686D01*
X5134664Y-15278686D02*
X5144188Y-15269162D01*
X5325140Y-15497734D02*
X5210855Y-15497734D01*
X5267997Y-15497734D02*
X5267997Y-15297734D01*
X5267997Y-15297734D02*
X5248950Y-15326305D01*
X5248950Y-15326305D02*
X5229902Y-15345353D01*
X5229902Y-15345353D02*
X5210855Y-15354877D01*
X5401331Y-15316781D02*
X5410855Y-15307258D01*
X5410855Y-15307258D02*
X5429902Y-15297734D01*
X5429902Y-15297734D02*
X5477521Y-15297734D01*
X5477521Y-15297734D02*
X5496569Y-15307258D01*
X5496569Y-15307258D02*
X5506093Y-15316781D01*
X5506093Y-15316781D02*
X5515616Y-15335829D01*
X5515616Y-15335829D02*
X5515616Y-15354877D01*
X5515616Y-15354877D02*
X5506093Y-15383448D01*
X5506093Y-15383448D02*
X5391807Y-15497734D01*
X5391807Y-15497734D02*
X5515616Y-15497734D01*
X5753712Y-15497734D02*
X5753712Y-15297734D01*
X5839426Y-15497734D02*
X5839426Y-15392972D01*
X5839426Y-15392972D02*
X5829902Y-15373924D01*
X5829902Y-15373924D02*
X5810855Y-15364400D01*
X5810855Y-15364400D02*
X5782283Y-15364400D01*
X5782283Y-15364400D02*
X5763235Y-15373924D01*
X5763235Y-15373924D02*
X5753712Y-15383448D01*
X5963235Y-15497734D02*
X5944188Y-15488210D01*
X5944188Y-15488210D02*
X5934664Y-15478686D01*
X5934664Y-15478686D02*
X5925140Y-15459638D01*
X5925140Y-15459638D02*
X5925140Y-15402496D01*
X5925140Y-15402496D02*
X5934664Y-15383448D01*
X5934664Y-15383448D02*
X5944188Y-15373924D01*
X5944188Y-15373924D02*
X5963235Y-15364400D01*
X5963235Y-15364400D02*
X5991807Y-15364400D01*
X5991807Y-15364400D02*
X6010855Y-15373924D01*
X6010855Y-15373924D02*
X6020378Y-15383448D01*
X6020378Y-15383448D02*
X6029902Y-15402496D01*
X6029902Y-15402496D02*
X6029902Y-15459638D01*
X6029902Y-15459638D02*
X6020378Y-15478686D01*
X6020378Y-15478686D02*
X6010855Y-15488210D01*
X6010855Y-15488210D02*
X5991807Y-15497734D01*
X5991807Y-15497734D02*
X5963235Y-15497734D01*
X6144188Y-15497734D02*
X6125140Y-15488210D01*
X6125140Y-15488210D02*
X6115616Y-15469162D01*
X6115616Y-15469162D02*
X6115616Y-15297734D01*
X6296569Y-15488210D02*
X6277521Y-15497734D01*
X6277521Y-15497734D02*
X6239426Y-15497734D01*
X6239426Y-15497734D02*
X6220378Y-15488210D01*
X6220378Y-15488210D02*
X6210855Y-15469162D01*
X6210855Y-15469162D02*
X6210855Y-15392972D01*
X6210855Y-15392972D02*
X6220378Y-15373924D01*
X6220378Y-15373924D02*
X6239426Y-15364400D01*
X6239426Y-15364400D02*
X6277521Y-15364400D01*
X6277521Y-15364400D02*
X6296569Y-15373924D01*
X6296569Y-15373924D02*
X6306093Y-15392972D01*
X6306093Y-15392972D02*
X6306093Y-15412019D01*
X6306093Y-15412019D02*
X6210855Y-15431067D01*
X6382283Y-15488210D02*
X6401331Y-15497734D01*
X6401331Y-15497734D02*
X6439426Y-15497734D01*
X6439426Y-15497734D02*
X6458474Y-15488210D01*
X6458474Y-15488210D02*
X6467997Y-15469162D01*
X6467997Y-15469162D02*
X6467997Y-15459638D01*
X6467997Y-15459638D02*
X6458474Y-15440591D01*
X6458474Y-15440591D02*
X6439426Y-15431067D01*
X6439426Y-15431067D02*
X6410855Y-15431067D01*
X6410855Y-15431067D02*
X6391807Y-15421543D01*
X6391807Y-15421543D02*
X6382283Y-15402496D01*
X6382283Y-15402496D02*
X6382283Y-15392972D01*
X6382283Y-15392972D02*
X6391807Y-15373924D01*
X6391807Y-15373924D02*
X6410855Y-15364400D01*
X6410855Y-15364400D02*
X6439426Y-15364400D01*
X6439426Y-15364400D02*
X6458474Y-15373924D01*
X6534664Y-15573924D02*
X6544188Y-15564400D01*
X6544188Y-15564400D02*
X6563236Y-15535829D01*
X6563236Y-15535829D02*
X6572759Y-15516781D01*
X6572759Y-15516781D02*
X6582283Y-15488210D01*
X6582283Y-15488210D02*
X6591807Y-15440591D01*
X6591807Y-15440591D02*
X6591807Y-15402496D01*
X6591807Y-15402496D02*
X6582283Y-15354877D01*
X6582283Y-15354877D02*
X6572759Y-15326305D01*
X6572759Y-15326305D02*
X6563236Y-15307258D01*
X6563236Y-15307258D02*
X6544188Y-15278686D01*
X6544188Y-15278686D02*
X6534664Y-15269162D01*
D12*
X1569125Y-15670250D02*
G75*
G02*
X1489125Y-15670250I-40000J0D01*
G01*
X1489125Y-15670250D02*
G75*
G02*
X1569125Y-15670250I40000J0D01*
G01*
D11*
X1867997Y-15561734D02*
X1887045Y-15561734D01*
X1887045Y-15561734D02*
X1906092Y-15571258D01*
X1906092Y-15571258D02*
X1915616Y-15580781D01*
X1915616Y-15580781D02*
X1925140Y-15599829D01*
X1925140Y-15599829D02*
X1934664Y-15637924D01*
X1934664Y-15637924D02*
X1934664Y-15685543D01*
X1934664Y-15685543D02*
X1925140Y-15723638D01*
X1925140Y-15723638D02*
X1915616Y-15742686D01*
X1915616Y-15742686D02*
X1906092Y-15752210D01*
X1906092Y-15752210D02*
X1887045Y-15761734D01*
X1887045Y-15761734D02*
X1867997Y-15761734D01*
X1867997Y-15761734D02*
X1848949Y-15752210D01*
X1848949Y-15752210D02*
X1839426Y-15742686D01*
X1839426Y-15742686D02*
X1829902Y-15723638D01*
X1829902Y-15723638D02*
X1820378Y-15685543D01*
X1820378Y-15685543D02*
X1820378Y-15637924D01*
X1820378Y-15637924D02*
X1829902Y-15599829D01*
X1829902Y-15599829D02*
X1839426Y-15580781D01*
X1839426Y-15580781D02*
X1848949Y-15571258D01*
X1848949Y-15571258D02*
X1867997Y-15561734D01*
X2029902Y-15752210D02*
X2029902Y-15761734D01*
X2029902Y-15761734D02*
X2020378Y-15780781D01*
X2020378Y-15780781D02*
X2010854Y-15790305D01*
X2144188Y-15647448D02*
X2125140Y-15637924D01*
X2125140Y-15637924D02*
X2115616Y-15628400D01*
X2115616Y-15628400D02*
X2106092Y-15609353D01*
X2106092Y-15609353D02*
X2106092Y-15599829D01*
X2106092Y-15599829D02*
X2115616Y-15580781D01*
X2115616Y-15580781D02*
X2125140Y-15571258D01*
X2125140Y-15571258D02*
X2144188Y-15561734D01*
X2144188Y-15561734D02*
X2182283Y-15561734D01*
X2182283Y-15561734D02*
X2201330Y-15571258D01*
X2201330Y-15571258D02*
X2210854Y-15580781D01*
X2210854Y-15580781D02*
X2220378Y-15599829D01*
X2220378Y-15599829D02*
X2220378Y-15609353D01*
X2220378Y-15609353D02*
X2210854Y-15628400D01*
X2210854Y-15628400D02*
X2201330Y-15637924D01*
X2201330Y-15637924D02*
X2182283Y-15647448D01*
X2182283Y-15647448D02*
X2144188Y-15647448D01*
X2144188Y-15647448D02*
X2125140Y-15656972D01*
X2125140Y-15656972D02*
X2115616Y-15666496D01*
X2115616Y-15666496D02*
X2106092Y-15685543D01*
X2106092Y-15685543D02*
X2106092Y-15723638D01*
X2106092Y-15723638D02*
X2115616Y-15742686D01*
X2115616Y-15742686D02*
X2125140Y-15752210D01*
X2125140Y-15752210D02*
X2144188Y-15761734D01*
X2144188Y-15761734D02*
X2182283Y-15761734D01*
X2182283Y-15761734D02*
X2201330Y-15752210D01*
X2201330Y-15752210D02*
X2210854Y-15742686D01*
X2210854Y-15742686D02*
X2220378Y-15723638D01*
X2220378Y-15723638D02*
X2220378Y-15685543D01*
X2220378Y-15685543D02*
X2210854Y-15666496D01*
X2210854Y-15666496D02*
X2201330Y-15656972D01*
X2201330Y-15656972D02*
X2182283Y-15647448D01*
X2344188Y-15561734D02*
X2363235Y-15561734D01*
X2363235Y-15561734D02*
X2382283Y-15571258D01*
X2382283Y-15571258D02*
X2391807Y-15580781D01*
X2391807Y-15580781D02*
X2401330Y-15599829D01*
X2401330Y-15599829D02*
X2410854Y-15637924D01*
X2410854Y-15637924D02*
X2410854Y-15685543D01*
X2410854Y-15685543D02*
X2401330Y-15723638D01*
X2401330Y-15723638D02*
X2391807Y-15742686D01*
X2391807Y-15742686D02*
X2382283Y-15752210D01*
X2382283Y-15752210D02*
X2363235Y-15761734D01*
X2363235Y-15761734D02*
X2344188Y-15761734D01*
X2344188Y-15761734D02*
X2325140Y-15752210D01*
X2325140Y-15752210D02*
X2315616Y-15742686D01*
X2315616Y-15742686D02*
X2306092Y-15723638D01*
X2306092Y-15723638D02*
X2296569Y-15685543D01*
X2296569Y-15685543D02*
X2296569Y-15637924D01*
X2296569Y-15637924D02*
X2306092Y-15599829D01*
X2306092Y-15599829D02*
X2315616Y-15580781D01*
X2315616Y-15580781D02*
X2325140Y-15571258D01*
X2325140Y-15571258D02*
X2344188Y-15561734D01*
X2534664Y-15561734D02*
X2553711Y-15561734D01*
X2553711Y-15561734D02*
X2572759Y-15571258D01*
X2572759Y-15571258D02*
X2582283Y-15580781D01*
X2582283Y-15580781D02*
X2591807Y-15599829D01*
X2591807Y-15599829D02*
X2601330Y-15637924D01*
X2601330Y-15637924D02*
X2601330Y-15685543D01*
X2601330Y-15685543D02*
X2591807Y-15723638D01*
X2591807Y-15723638D02*
X2582283Y-15742686D01*
X2582283Y-15742686D02*
X2572759Y-15752210D01*
X2572759Y-15752210D02*
X2553711Y-15761734D01*
X2553711Y-15761734D02*
X2534664Y-15761734D01*
X2534664Y-15761734D02*
X2515616Y-15752210D01*
X2515616Y-15752210D02*
X2506092Y-15742686D01*
X2506092Y-15742686D02*
X2496569Y-15723638D01*
X2496569Y-15723638D02*
X2487045Y-15685543D01*
X2487045Y-15685543D02*
X2487045Y-15637924D01*
X2487045Y-15637924D02*
X2496569Y-15599829D01*
X2496569Y-15599829D02*
X2506092Y-15580781D01*
X2506092Y-15580781D02*
X2515616Y-15571258D01*
X2515616Y-15571258D02*
X2534664Y-15561734D01*
X2687045Y-15761734D02*
X2687045Y-15628400D01*
X2687045Y-15647448D02*
X2696569Y-15637924D01*
X2696569Y-15637924D02*
X2715616Y-15628400D01*
X2715616Y-15628400D02*
X2744188Y-15628400D01*
X2744188Y-15628400D02*
X2763235Y-15637924D01*
X2763235Y-15637924D02*
X2772759Y-15656972D01*
X2772759Y-15656972D02*
X2772759Y-15761734D01*
X2772759Y-15656972D02*
X2782283Y-15637924D01*
X2782283Y-15637924D02*
X2801330Y-15628400D01*
X2801330Y-15628400D02*
X2829902Y-15628400D01*
X2829902Y-15628400D02*
X2848949Y-15637924D01*
X2848949Y-15637924D02*
X2858473Y-15656972D01*
X2858473Y-15656972D02*
X2858473Y-15761734D01*
X2953711Y-15761734D02*
X2953711Y-15628400D01*
X2953711Y-15647448D02*
X2963235Y-15637924D01*
X2963235Y-15637924D02*
X2982283Y-15628400D01*
X2982283Y-15628400D02*
X3010854Y-15628400D01*
X3010854Y-15628400D02*
X3029902Y-15637924D01*
X3029902Y-15637924D02*
X3039426Y-15656972D01*
X3039426Y-15656972D02*
X3039426Y-15761734D01*
X3039426Y-15656972D02*
X3048949Y-15637924D01*
X3048949Y-15637924D02*
X3067997Y-15628400D01*
X3067997Y-15628400D02*
X3096568Y-15628400D01*
X3096568Y-15628400D02*
X3115616Y-15637924D01*
X3115616Y-15637924D02*
X3125140Y-15656972D01*
X3125140Y-15656972D02*
X3125140Y-15761734D01*
X3515616Y-15552210D02*
X3344188Y-15809353D01*
X3772759Y-15561734D02*
X3791807Y-15561734D01*
X3791807Y-15561734D02*
X3810854Y-15571258D01*
X3810854Y-15571258D02*
X3820378Y-15580781D01*
X3820378Y-15580781D02*
X3829902Y-15599829D01*
X3829902Y-15599829D02*
X3839426Y-15637924D01*
X3839426Y-15637924D02*
X3839426Y-15685543D01*
X3839426Y-15685543D02*
X3829902Y-15723638D01*
X3829902Y-15723638D02*
X3820378Y-15742686D01*
X3820378Y-15742686D02*
X3810854Y-15752210D01*
X3810854Y-15752210D02*
X3791807Y-15761734D01*
X3791807Y-15761734D02*
X3772759Y-15761734D01*
X3772759Y-15761734D02*
X3753711Y-15752210D01*
X3753711Y-15752210D02*
X3744188Y-15742686D01*
X3744188Y-15742686D02*
X3734664Y-15723638D01*
X3734664Y-15723638D02*
X3725140Y-15685543D01*
X3725140Y-15685543D02*
X3725140Y-15637924D01*
X3725140Y-15637924D02*
X3734664Y-15599829D01*
X3734664Y-15599829D02*
X3744188Y-15580781D01*
X3744188Y-15580781D02*
X3753711Y-15571258D01*
X3753711Y-15571258D02*
X3772759Y-15561734D01*
X3934664Y-15752210D02*
X3934664Y-15761734D01*
X3934664Y-15761734D02*
X3925140Y-15780781D01*
X3925140Y-15780781D02*
X3915616Y-15790305D01*
X4058473Y-15561734D02*
X4077521Y-15561734D01*
X4077521Y-15561734D02*
X4096569Y-15571258D01*
X4096569Y-15571258D02*
X4106092Y-15580781D01*
X4106092Y-15580781D02*
X4115616Y-15599829D01*
X4115616Y-15599829D02*
X4125140Y-15637924D01*
X4125140Y-15637924D02*
X4125140Y-15685543D01*
X4125140Y-15685543D02*
X4115616Y-15723638D01*
X4115616Y-15723638D02*
X4106092Y-15742686D01*
X4106092Y-15742686D02*
X4096569Y-15752210D01*
X4096569Y-15752210D02*
X4077521Y-15761734D01*
X4077521Y-15761734D02*
X4058473Y-15761734D01*
X4058473Y-15761734D02*
X4039426Y-15752210D01*
X4039426Y-15752210D02*
X4029902Y-15742686D01*
X4029902Y-15742686D02*
X4020378Y-15723638D01*
X4020378Y-15723638D02*
X4010854Y-15685543D01*
X4010854Y-15685543D02*
X4010854Y-15637924D01*
X4010854Y-15637924D02*
X4020378Y-15599829D01*
X4020378Y-15599829D02*
X4029902Y-15580781D01*
X4029902Y-15580781D02*
X4039426Y-15571258D01*
X4039426Y-15571258D02*
X4058473Y-15561734D01*
X4191807Y-15561734D02*
X4315616Y-15561734D01*
X4315616Y-15561734D02*
X4248950Y-15637924D01*
X4248950Y-15637924D02*
X4277521Y-15637924D01*
X4277521Y-15637924D02*
X4296569Y-15647448D01*
X4296569Y-15647448D02*
X4306093Y-15656972D01*
X4306093Y-15656972D02*
X4315616Y-15676019D01*
X4315616Y-15676019D02*
X4315616Y-15723638D01*
X4315616Y-15723638D02*
X4306093Y-15742686D01*
X4306093Y-15742686D02*
X4296569Y-15752210D01*
X4296569Y-15752210D02*
X4277521Y-15761734D01*
X4277521Y-15761734D02*
X4220378Y-15761734D01*
X4220378Y-15761734D02*
X4201331Y-15752210D01*
X4201331Y-15752210D02*
X4191807Y-15742686D01*
X4506093Y-15761734D02*
X4391807Y-15761734D01*
X4448950Y-15761734D02*
X4448950Y-15561734D01*
X4448950Y-15561734D02*
X4429902Y-15590305D01*
X4429902Y-15590305D02*
X4410854Y-15609353D01*
X4410854Y-15609353D02*
X4391807Y-15618877D01*
X4687045Y-15561734D02*
X4591807Y-15561734D01*
X4591807Y-15561734D02*
X4582283Y-15656972D01*
X4582283Y-15656972D02*
X4591807Y-15647448D01*
X4591807Y-15647448D02*
X4610854Y-15637924D01*
X4610854Y-15637924D02*
X4658474Y-15637924D01*
X4658474Y-15637924D02*
X4677521Y-15647448D01*
X4677521Y-15647448D02*
X4687045Y-15656972D01*
X4687045Y-15656972D02*
X4696569Y-15676019D01*
X4696569Y-15676019D02*
X4696569Y-15723638D01*
X4696569Y-15723638D02*
X4687045Y-15742686D01*
X4687045Y-15742686D02*
X4677521Y-15752210D01*
X4677521Y-15752210D02*
X4658474Y-15761734D01*
X4658474Y-15761734D02*
X4610854Y-15761734D01*
X4610854Y-15761734D02*
X4591807Y-15752210D01*
X4591807Y-15752210D02*
X4582283Y-15742686D01*
X4772759Y-15561734D02*
X4772759Y-15599829D01*
X4848950Y-15561734D02*
X4848950Y-15599829D01*
X5144188Y-15837924D02*
X5134664Y-15828400D01*
X5134664Y-15828400D02*
X5115616Y-15799829D01*
X5115616Y-15799829D02*
X5106093Y-15780781D01*
X5106093Y-15780781D02*
X5096569Y-15752210D01*
X5096569Y-15752210D02*
X5087045Y-15704591D01*
X5087045Y-15704591D02*
X5087045Y-15666496D01*
X5087045Y-15666496D02*
X5096569Y-15618877D01*
X5096569Y-15618877D02*
X5106093Y-15590305D01*
X5106093Y-15590305D02*
X5115616Y-15571258D01*
X5115616Y-15571258D02*
X5134664Y-15542686D01*
X5134664Y-15542686D02*
X5144188Y-15533162D01*
X5325140Y-15761734D02*
X5210855Y-15761734D01*
X5267997Y-15761734D02*
X5267997Y-15561734D01*
X5267997Y-15561734D02*
X5248950Y-15590305D01*
X5248950Y-15590305D02*
X5229902Y-15609353D01*
X5229902Y-15609353D02*
X5210855Y-15618877D01*
X5496569Y-15628400D02*
X5496569Y-15761734D01*
X5448950Y-15552210D02*
X5401331Y-15695067D01*
X5401331Y-15695067D02*
X5525140Y-15695067D01*
X5591807Y-15580781D02*
X5601331Y-15571258D01*
X5601331Y-15571258D02*
X5620378Y-15561734D01*
X5620378Y-15561734D02*
X5667997Y-15561734D01*
X5667997Y-15561734D02*
X5687045Y-15571258D01*
X5687045Y-15571258D02*
X5696569Y-15580781D01*
X5696569Y-15580781D02*
X5706093Y-15599829D01*
X5706093Y-15599829D02*
X5706093Y-15618877D01*
X5706093Y-15618877D02*
X5696569Y-15647448D01*
X5696569Y-15647448D02*
X5582283Y-15761734D01*
X5582283Y-15761734D02*
X5706093Y-15761734D01*
X5944188Y-15761734D02*
X5944188Y-15561734D01*
X6029902Y-15761734D02*
X6029902Y-15656972D01*
X6029902Y-15656972D02*
X6020378Y-15637924D01*
X6020378Y-15637924D02*
X6001331Y-15628400D01*
X6001331Y-15628400D02*
X5972759Y-15628400D01*
X5972759Y-15628400D02*
X5953712Y-15637924D01*
X5953712Y-15637924D02*
X5944188Y-15647448D01*
X6153712Y-15761734D02*
X6134664Y-15752210D01*
X6134664Y-15752210D02*
X6125140Y-15742686D01*
X6125140Y-15742686D02*
X6115616Y-15723638D01*
X6115616Y-15723638D02*
X6115616Y-15666496D01*
X6115616Y-15666496D02*
X6125140Y-15647448D01*
X6125140Y-15647448D02*
X6134664Y-15637924D01*
X6134664Y-15637924D02*
X6153712Y-15628400D01*
X6153712Y-15628400D02*
X6182283Y-15628400D01*
X6182283Y-15628400D02*
X6201331Y-15637924D01*
X6201331Y-15637924D02*
X6210855Y-15647448D01*
X6210855Y-15647448D02*
X6220378Y-15666496D01*
X6220378Y-15666496D02*
X6220378Y-15723638D01*
X6220378Y-15723638D02*
X6210855Y-15742686D01*
X6210855Y-15742686D02*
X6201331Y-15752210D01*
X6201331Y-15752210D02*
X6182283Y-15761734D01*
X6182283Y-15761734D02*
X6153712Y-15761734D01*
X6334664Y-15761734D02*
X6315616Y-15752210D01*
X6315616Y-15752210D02*
X6306093Y-15733162D01*
X6306093Y-15733162D02*
X6306093Y-15561734D01*
X6487045Y-15752210D02*
X6467997Y-15761734D01*
X6467997Y-15761734D02*
X6429902Y-15761734D01*
X6429902Y-15761734D02*
X6410855Y-15752210D01*
X6410855Y-15752210D02*
X6401331Y-15733162D01*
X6401331Y-15733162D02*
X6401331Y-15656972D01*
X6401331Y-15656972D02*
X6410855Y-15637924D01*
X6410855Y-15637924D02*
X6429902Y-15628400D01*
X6429902Y-15628400D02*
X6467997Y-15628400D01*
X6467997Y-15628400D02*
X6487045Y-15637924D01*
X6487045Y-15637924D02*
X6496569Y-15656972D01*
X6496569Y-15656972D02*
X6496569Y-15676019D01*
X6496569Y-15676019D02*
X6401331Y-15695067D01*
X6572759Y-15752210D02*
X6591807Y-15761734D01*
X6591807Y-15761734D02*
X6629902Y-15761734D01*
X6629902Y-15761734D02*
X6648950Y-15752210D01*
X6648950Y-15752210D02*
X6658474Y-15733162D01*
X6658474Y-15733162D02*
X6658474Y-15723638D01*
X6658474Y-15723638D02*
X6648950Y-15704591D01*
X6648950Y-15704591D02*
X6629902Y-15695067D01*
X6629902Y-15695067D02*
X6601331Y-15695067D01*
X6601331Y-15695067D02*
X6582283Y-15685543D01*
X6582283Y-15685543D02*
X6572759Y-15666496D01*
X6572759Y-15666496D02*
X6572759Y-15656972D01*
X6572759Y-15656972D02*
X6582283Y-15637924D01*
X6582283Y-15637924D02*
X6601331Y-15628400D01*
X6601331Y-15628400D02*
X6629902Y-15628400D01*
X6629902Y-15628400D02*
X6648950Y-15637924D01*
X6725140Y-15837924D02*
X6734664Y-15828400D01*
X6734664Y-15828400D02*
X6753712Y-15799829D01*
X6753712Y-15799829D02*
X6763236Y-15780781D01*
X6763236Y-15780781D02*
X6772759Y-15752210D01*
X6772759Y-15752210D02*
X6782283Y-15704591D01*
X6782283Y-15704591D02*
X6782283Y-15666496D01*
X6782283Y-15666496D02*
X6772759Y-15618877D01*
X6772759Y-15618877D02*
X6763236Y-15590305D01*
X6763236Y-15590305D02*
X6753712Y-15571258D01*
X6753712Y-15571258D02*
X6734664Y-15542686D01*
X6734664Y-15542686D02*
X6725140Y-15533162D01*
D12*
X1519125Y-15884250D02*
X1519125Y-15984250D01*
X1469125Y-15934250D02*
X1569125Y-15934250D01*
D11*
X1934664Y-16025734D02*
X1820378Y-16025734D01*
X1877521Y-16025734D02*
X1877521Y-15825734D01*
X1877521Y-15825734D02*
X1858473Y-15854305D01*
X1858473Y-15854305D02*
X1839426Y-15873353D01*
X1839426Y-15873353D02*
X1820378Y-15882877D01*
X2029902Y-16016210D02*
X2029902Y-16025734D01*
X2029902Y-16025734D02*
X2020378Y-16044781D01*
X2020378Y-16044781D02*
X2010854Y-16054305D01*
X2153711Y-15825734D02*
X2172759Y-15825734D01*
X2172759Y-15825734D02*
X2191807Y-15835258D01*
X2191807Y-15835258D02*
X2201330Y-15844781D01*
X2201330Y-15844781D02*
X2210854Y-15863829D01*
X2210854Y-15863829D02*
X2220378Y-15901924D01*
X2220378Y-15901924D02*
X2220378Y-15949543D01*
X2220378Y-15949543D02*
X2210854Y-15987638D01*
X2210854Y-15987638D02*
X2201330Y-16006686D01*
X2201330Y-16006686D02*
X2191807Y-16016210D01*
X2191807Y-16016210D02*
X2172759Y-16025734D01*
X2172759Y-16025734D02*
X2153711Y-16025734D01*
X2153711Y-16025734D02*
X2134664Y-16016210D01*
X2134664Y-16016210D02*
X2125140Y-16006686D01*
X2125140Y-16006686D02*
X2115616Y-15987638D01*
X2115616Y-15987638D02*
X2106092Y-15949543D01*
X2106092Y-15949543D02*
X2106092Y-15901924D01*
X2106092Y-15901924D02*
X2115616Y-15863829D01*
X2115616Y-15863829D02*
X2125140Y-15844781D01*
X2125140Y-15844781D02*
X2134664Y-15835258D01*
X2134664Y-15835258D02*
X2153711Y-15825734D01*
X2344188Y-15825734D02*
X2363235Y-15825734D01*
X2363235Y-15825734D02*
X2382283Y-15835258D01*
X2382283Y-15835258D02*
X2391807Y-15844781D01*
X2391807Y-15844781D02*
X2401330Y-15863829D01*
X2401330Y-15863829D02*
X2410854Y-15901924D01*
X2410854Y-15901924D02*
X2410854Y-15949543D01*
X2410854Y-15949543D02*
X2401330Y-15987638D01*
X2401330Y-15987638D02*
X2391807Y-16006686D01*
X2391807Y-16006686D02*
X2382283Y-16016210D01*
X2382283Y-16016210D02*
X2363235Y-16025734D01*
X2363235Y-16025734D02*
X2344188Y-16025734D01*
X2344188Y-16025734D02*
X2325140Y-16016210D01*
X2325140Y-16016210D02*
X2315616Y-16006686D01*
X2315616Y-16006686D02*
X2306092Y-15987638D01*
X2306092Y-15987638D02*
X2296569Y-15949543D01*
X2296569Y-15949543D02*
X2296569Y-15901924D01*
X2296569Y-15901924D02*
X2306092Y-15863829D01*
X2306092Y-15863829D02*
X2315616Y-15844781D01*
X2315616Y-15844781D02*
X2325140Y-15835258D01*
X2325140Y-15835258D02*
X2344188Y-15825734D01*
X2534664Y-15825734D02*
X2553711Y-15825734D01*
X2553711Y-15825734D02*
X2572759Y-15835258D01*
X2572759Y-15835258D02*
X2582283Y-15844781D01*
X2582283Y-15844781D02*
X2591807Y-15863829D01*
X2591807Y-15863829D02*
X2601330Y-15901924D01*
X2601330Y-15901924D02*
X2601330Y-15949543D01*
X2601330Y-15949543D02*
X2591807Y-15987638D01*
X2591807Y-15987638D02*
X2582283Y-16006686D01*
X2582283Y-16006686D02*
X2572759Y-16016210D01*
X2572759Y-16016210D02*
X2553711Y-16025734D01*
X2553711Y-16025734D02*
X2534664Y-16025734D01*
X2534664Y-16025734D02*
X2515616Y-16016210D01*
X2515616Y-16016210D02*
X2506092Y-16006686D01*
X2506092Y-16006686D02*
X2496569Y-15987638D01*
X2496569Y-15987638D02*
X2487045Y-15949543D01*
X2487045Y-15949543D02*
X2487045Y-15901924D01*
X2487045Y-15901924D02*
X2496569Y-15863829D01*
X2496569Y-15863829D02*
X2506092Y-15844781D01*
X2506092Y-15844781D02*
X2515616Y-15835258D01*
X2515616Y-15835258D02*
X2534664Y-15825734D01*
X2687045Y-16025734D02*
X2687045Y-15892400D01*
X2687045Y-15911448D02*
X2696569Y-15901924D01*
X2696569Y-15901924D02*
X2715616Y-15892400D01*
X2715616Y-15892400D02*
X2744188Y-15892400D01*
X2744188Y-15892400D02*
X2763235Y-15901924D01*
X2763235Y-15901924D02*
X2772759Y-15920972D01*
X2772759Y-15920972D02*
X2772759Y-16025734D01*
X2772759Y-15920972D02*
X2782283Y-15901924D01*
X2782283Y-15901924D02*
X2801330Y-15892400D01*
X2801330Y-15892400D02*
X2829902Y-15892400D01*
X2829902Y-15892400D02*
X2848949Y-15901924D01*
X2848949Y-15901924D02*
X2858473Y-15920972D01*
X2858473Y-15920972D02*
X2858473Y-16025734D01*
X2953711Y-16025734D02*
X2953711Y-15892400D01*
X2953711Y-15911448D02*
X2963235Y-15901924D01*
X2963235Y-15901924D02*
X2982283Y-15892400D01*
X2982283Y-15892400D02*
X3010854Y-15892400D01*
X3010854Y-15892400D02*
X3029902Y-15901924D01*
X3029902Y-15901924D02*
X3039426Y-15920972D01*
X3039426Y-15920972D02*
X3039426Y-16025734D01*
X3039426Y-15920972D02*
X3048949Y-15901924D01*
X3048949Y-15901924D02*
X3067997Y-15892400D01*
X3067997Y-15892400D02*
X3096568Y-15892400D01*
X3096568Y-15892400D02*
X3115616Y-15901924D01*
X3115616Y-15901924D02*
X3125140Y-15920972D01*
X3125140Y-15920972D02*
X3125140Y-16025734D01*
X3515616Y-15816210D02*
X3344188Y-16073353D01*
X3772759Y-15825734D02*
X3791807Y-15825734D01*
X3791807Y-15825734D02*
X3810854Y-15835258D01*
X3810854Y-15835258D02*
X3820378Y-15844781D01*
X3820378Y-15844781D02*
X3829902Y-15863829D01*
X3829902Y-15863829D02*
X3839426Y-15901924D01*
X3839426Y-15901924D02*
X3839426Y-15949543D01*
X3839426Y-15949543D02*
X3829902Y-15987638D01*
X3829902Y-15987638D02*
X3820378Y-16006686D01*
X3820378Y-16006686D02*
X3810854Y-16016210D01*
X3810854Y-16016210D02*
X3791807Y-16025734D01*
X3791807Y-16025734D02*
X3772759Y-16025734D01*
X3772759Y-16025734D02*
X3753711Y-16016210D01*
X3753711Y-16016210D02*
X3744188Y-16006686D01*
X3744188Y-16006686D02*
X3734664Y-15987638D01*
X3734664Y-15987638D02*
X3725140Y-15949543D01*
X3725140Y-15949543D02*
X3725140Y-15901924D01*
X3725140Y-15901924D02*
X3734664Y-15863829D01*
X3734664Y-15863829D02*
X3744188Y-15844781D01*
X3744188Y-15844781D02*
X3753711Y-15835258D01*
X3753711Y-15835258D02*
X3772759Y-15825734D01*
X3934664Y-16016210D02*
X3934664Y-16025734D01*
X3934664Y-16025734D02*
X3925140Y-16044781D01*
X3925140Y-16044781D02*
X3915616Y-16054305D01*
X4058473Y-15825734D02*
X4077521Y-15825734D01*
X4077521Y-15825734D02*
X4096569Y-15835258D01*
X4096569Y-15835258D02*
X4106092Y-15844781D01*
X4106092Y-15844781D02*
X4115616Y-15863829D01*
X4115616Y-15863829D02*
X4125140Y-15901924D01*
X4125140Y-15901924D02*
X4125140Y-15949543D01*
X4125140Y-15949543D02*
X4115616Y-15987638D01*
X4115616Y-15987638D02*
X4106092Y-16006686D01*
X4106092Y-16006686D02*
X4096569Y-16016210D01*
X4096569Y-16016210D02*
X4077521Y-16025734D01*
X4077521Y-16025734D02*
X4058473Y-16025734D01*
X4058473Y-16025734D02*
X4039426Y-16016210D01*
X4039426Y-16016210D02*
X4029902Y-16006686D01*
X4029902Y-16006686D02*
X4020378Y-15987638D01*
X4020378Y-15987638D02*
X4010854Y-15949543D01*
X4010854Y-15949543D02*
X4010854Y-15901924D01*
X4010854Y-15901924D02*
X4020378Y-15863829D01*
X4020378Y-15863829D02*
X4029902Y-15844781D01*
X4029902Y-15844781D02*
X4039426Y-15835258D01*
X4039426Y-15835258D02*
X4058473Y-15825734D01*
X4191807Y-15825734D02*
X4315616Y-15825734D01*
X4315616Y-15825734D02*
X4248950Y-15901924D01*
X4248950Y-15901924D02*
X4277521Y-15901924D01*
X4277521Y-15901924D02*
X4296569Y-15911448D01*
X4296569Y-15911448D02*
X4306093Y-15920972D01*
X4306093Y-15920972D02*
X4315616Y-15940019D01*
X4315616Y-15940019D02*
X4315616Y-15987638D01*
X4315616Y-15987638D02*
X4306093Y-16006686D01*
X4306093Y-16006686D02*
X4296569Y-16016210D01*
X4296569Y-16016210D02*
X4277521Y-16025734D01*
X4277521Y-16025734D02*
X4220378Y-16025734D01*
X4220378Y-16025734D02*
X4201331Y-16016210D01*
X4201331Y-16016210D02*
X4191807Y-16006686D01*
X4410854Y-16025734D02*
X4448950Y-16025734D01*
X4448950Y-16025734D02*
X4467997Y-16016210D01*
X4467997Y-16016210D02*
X4477521Y-16006686D01*
X4477521Y-16006686D02*
X4496569Y-15978115D01*
X4496569Y-15978115D02*
X4506093Y-15940019D01*
X4506093Y-15940019D02*
X4506093Y-15863829D01*
X4506093Y-15863829D02*
X4496569Y-15844781D01*
X4496569Y-15844781D02*
X4487045Y-15835258D01*
X4487045Y-15835258D02*
X4467997Y-15825734D01*
X4467997Y-15825734D02*
X4429902Y-15825734D01*
X4429902Y-15825734D02*
X4410854Y-15835258D01*
X4410854Y-15835258D02*
X4401331Y-15844781D01*
X4401331Y-15844781D02*
X4391807Y-15863829D01*
X4391807Y-15863829D02*
X4391807Y-15911448D01*
X4391807Y-15911448D02*
X4401331Y-15930496D01*
X4401331Y-15930496D02*
X4410854Y-15940019D01*
X4410854Y-15940019D02*
X4429902Y-15949543D01*
X4429902Y-15949543D02*
X4467997Y-15949543D01*
X4467997Y-15949543D02*
X4487045Y-15940019D01*
X4487045Y-15940019D02*
X4496569Y-15930496D01*
X4496569Y-15930496D02*
X4506093Y-15911448D01*
X4677521Y-15892400D02*
X4677521Y-16025734D01*
X4629902Y-15816210D02*
X4582283Y-15959067D01*
X4582283Y-15959067D02*
X4706093Y-15959067D01*
X4772759Y-15825734D02*
X4772759Y-15863829D01*
X4848950Y-15825734D02*
X4848950Y-15863829D01*
X5144188Y-16101924D02*
X5134664Y-16092400D01*
X5134664Y-16092400D02*
X5115616Y-16063829D01*
X5115616Y-16063829D02*
X5106093Y-16044781D01*
X5106093Y-16044781D02*
X5096569Y-16016210D01*
X5096569Y-16016210D02*
X5087045Y-15968591D01*
X5087045Y-15968591D02*
X5087045Y-15930496D01*
X5087045Y-15930496D02*
X5096569Y-15882877D01*
X5096569Y-15882877D02*
X5106093Y-15854305D01*
X5106093Y-15854305D02*
X5115616Y-15835258D01*
X5115616Y-15835258D02*
X5134664Y-15806686D01*
X5134664Y-15806686D02*
X5144188Y-15797162D01*
X5306093Y-15892400D02*
X5306093Y-16025734D01*
X5258474Y-15816210D02*
X5210855Y-15959067D01*
X5210855Y-15959067D02*
X5334664Y-15959067D01*
X5506093Y-15825734D02*
X5410855Y-15825734D01*
X5410855Y-15825734D02*
X5401331Y-15920972D01*
X5401331Y-15920972D02*
X5410855Y-15911448D01*
X5410855Y-15911448D02*
X5429902Y-15901924D01*
X5429902Y-15901924D02*
X5477521Y-15901924D01*
X5477521Y-15901924D02*
X5496569Y-15911448D01*
X5496569Y-15911448D02*
X5506093Y-15920972D01*
X5506093Y-15920972D02*
X5515616Y-15940019D01*
X5515616Y-15940019D02*
X5515616Y-15987638D01*
X5515616Y-15987638D02*
X5506093Y-16006686D01*
X5506093Y-16006686D02*
X5496569Y-16016210D01*
X5496569Y-16016210D02*
X5477521Y-16025734D01*
X5477521Y-16025734D02*
X5429902Y-16025734D01*
X5429902Y-16025734D02*
X5410855Y-16016210D01*
X5410855Y-16016210D02*
X5401331Y-16006686D01*
X5753712Y-16025734D02*
X5753712Y-15825734D01*
X5839426Y-16025734D02*
X5839426Y-15920972D01*
X5839426Y-15920972D02*
X5829902Y-15901924D01*
X5829902Y-15901924D02*
X5810855Y-15892400D01*
X5810855Y-15892400D02*
X5782283Y-15892400D01*
X5782283Y-15892400D02*
X5763235Y-15901924D01*
X5763235Y-15901924D02*
X5753712Y-15911448D01*
X5963235Y-16025734D02*
X5944188Y-16016210D01*
X5944188Y-16016210D02*
X5934664Y-16006686D01*
X5934664Y-16006686D02*
X5925140Y-15987638D01*
X5925140Y-15987638D02*
X5925140Y-15930496D01*
X5925140Y-15930496D02*
X5934664Y-15911448D01*
X5934664Y-15911448D02*
X5944188Y-15901924D01*
X5944188Y-15901924D02*
X5963235Y-15892400D01*
X5963235Y-15892400D02*
X5991807Y-15892400D01*
X5991807Y-15892400D02*
X6010855Y-15901924D01*
X6010855Y-15901924D02*
X6020378Y-15911448D01*
X6020378Y-15911448D02*
X6029902Y-15930496D01*
X6029902Y-15930496D02*
X6029902Y-15987638D01*
X6029902Y-15987638D02*
X6020378Y-16006686D01*
X6020378Y-16006686D02*
X6010855Y-16016210D01*
X6010855Y-16016210D02*
X5991807Y-16025734D01*
X5991807Y-16025734D02*
X5963235Y-16025734D01*
X6144188Y-16025734D02*
X6125140Y-16016210D01*
X6125140Y-16016210D02*
X6115616Y-15997162D01*
X6115616Y-15997162D02*
X6115616Y-15825734D01*
X6296569Y-16016210D02*
X6277521Y-16025734D01*
X6277521Y-16025734D02*
X6239426Y-16025734D01*
X6239426Y-16025734D02*
X6220378Y-16016210D01*
X6220378Y-16016210D02*
X6210855Y-15997162D01*
X6210855Y-15997162D02*
X6210855Y-15920972D01*
X6210855Y-15920972D02*
X6220378Y-15901924D01*
X6220378Y-15901924D02*
X6239426Y-15892400D01*
X6239426Y-15892400D02*
X6277521Y-15892400D01*
X6277521Y-15892400D02*
X6296569Y-15901924D01*
X6296569Y-15901924D02*
X6306093Y-15920972D01*
X6306093Y-15920972D02*
X6306093Y-15940019D01*
X6306093Y-15940019D02*
X6210855Y-15959067D01*
X6382283Y-16016210D02*
X6401331Y-16025734D01*
X6401331Y-16025734D02*
X6439426Y-16025734D01*
X6439426Y-16025734D02*
X6458474Y-16016210D01*
X6458474Y-16016210D02*
X6467997Y-15997162D01*
X6467997Y-15997162D02*
X6467997Y-15987638D01*
X6467997Y-15987638D02*
X6458474Y-15968591D01*
X6458474Y-15968591D02*
X6439426Y-15959067D01*
X6439426Y-15959067D02*
X6410855Y-15959067D01*
X6410855Y-15959067D02*
X6391807Y-15949543D01*
X6391807Y-15949543D02*
X6382283Y-15930496D01*
X6382283Y-15930496D02*
X6382283Y-15920972D01*
X6382283Y-15920972D02*
X6391807Y-15901924D01*
X6391807Y-15901924D02*
X6410855Y-15892400D01*
X6410855Y-15892400D02*
X6439426Y-15892400D01*
X6439426Y-15892400D02*
X6458474Y-15901924D01*
X6534664Y-16101924D02*
X6544188Y-16092400D01*
X6544188Y-16092400D02*
X6563236Y-16063829D01*
X6563236Y-16063829D02*
X6572759Y-16044781D01*
X6572759Y-16044781D02*
X6582283Y-16016210D01*
X6582283Y-16016210D02*
X6591807Y-15968591D01*
X6591807Y-15968591D02*
X6591807Y-15930496D01*
X6591807Y-15930496D02*
X6582283Y-15882877D01*
X6582283Y-15882877D02*
X6572759Y-15854305D01*
X6572759Y-15854305D02*
X6563236Y-15835258D01*
X6563236Y-15835258D02*
X6544188Y-15806686D01*
X6544188Y-15806686D02*
X6534664Y-15797162D01*
D13*
X1547158Y-16251283D02*
X1547158Y-16145216D01*
X1441091Y-16145216D01*
X1441091Y-16251283D01*
X1547158Y-16251283D01*
D11*
X1934664Y-16289734D02*
X1820378Y-16289734D01*
X1877521Y-16289734D02*
X1877521Y-16089734D01*
X1877521Y-16089734D02*
X1858473Y-16118305D01*
X1858473Y-16118305D02*
X1839426Y-16137353D01*
X1839426Y-16137353D02*
X1820378Y-16146877D01*
X2029902Y-16280210D02*
X2029902Y-16289734D01*
X2029902Y-16289734D02*
X2020378Y-16308781D01*
X2020378Y-16308781D02*
X2010854Y-16318305D01*
X2210854Y-16089734D02*
X2115616Y-16089734D01*
X2115616Y-16089734D02*
X2106092Y-16184972D01*
X2106092Y-16184972D02*
X2115616Y-16175448D01*
X2115616Y-16175448D02*
X2134664Y-16165924D01*
X2134664Y-16165924D02*
X2182283Y-16165924D01*
X2182283Y-16165924D02*
X2201330Y-16175448D01*
X2201330Y-16175448D02*
X2210854Y-16184972D01*
X2210854Y-16184972D02*
X2220378Y-16204019D01*
X2220378Y-16204019D02*
X2220378Y-16251638D01*
X2220378Y-16251638D02*
X2210854Y-16270686D01*
X2210854Y-16270686D02*
X2201330Y-16280210D01*
X2201330Y-16280210D02*
X2182283Y-16289734D01*
X2182283Y-16289734D02*
X2134664Y-16289734D01*
X2134664Y-16289734D02*
X2115616Y-16280210D01*
X2115616Y-16280210D02*
X2106092Y-16270686D01*
X2344188Y-16089734D02*
X2363235Y-16089734D01*
X2363235Y-16089734D02*
X2382283Y-16099258D01*
X2382283Y-16099258D02*
X2391807Y-16108781D01*
X2391807Y-16108781D02*
X2401330Y-16127829D01*
X2401330Y-16127829D02*
X2410854Y-16165924D01*
X2410854Y-16165924D02*
X2410854Y-16213543D01*
X2410854Y-16213543D02*
X2401330Y-16251638D01*
X2401330Y-16251638D02*
X2391807Y-16270686D01*
X2391807Y-16270686D02*
X2382283Y-16280210D01*
X2382283Y-16280210D02*
X2363235Y-16289734D01*
X2363235Y-16289734D02*
X2344188Y-16289734D01*
X2344188Y-16289734D02*
X2325140Y-16280210D01*
X2325140Y-16280210D02*
X2315616Y-16270686D01*
X2315616Y-16270686D02*
X2306092Y-16251638D01*
X2306092Y-16251638D02*
X2296569Y-16213543D01*
X2296569Y-16213543D02*
X2296569Y-16165924D01*
X2296569Y-16165924D02*
X2306092Y-16127829D01*
X2306092Y-16127829D02*
X2315616Y-16108781D01*
X2315616Y-16108781D02*
X2325140Y-16099258D01*
X2325140Y-16099258D02*
X2344188Y-16089734D01*
X2534664Y-16089734D02*
X2553711Y-16089734D01*
X2553711Y-16089734D02*
X2572759Y-16099258D01*
X2572759Y-16099258D02*
X2582283Y-16108781D01*
X2582283Y-16108781D02*
X2591807Y-16127829D01*
X2591807Y-16127829D02*
X2601330Y-16165924D01*
X2601330Y-16165924D02*
X2601330Y-16213543D01*
X2601330Y-16213543D02*
X2591807Y-16251638D01*
X2591807Y-16251638D02*
X2582283Y-16270686D01*
X2582283Y-16270686D02*
X2572759Y-16280210D01*
X2572759Y-16280210D02*
X2553711Y-16289734D01*
X2553711Y-16289734D02*
X2534664Y-16289734D01*
X2534664Y-16289734D02*
X2515616Y-16280210D01*
X2515616Y-16280210D02*
X2506092Y-16270686D01*
X2506092Y-16270686D02*
X2496569Y-16251638D01*
X2496569Y-16251638D02*
X2487045Y-16213543D01*
X2487045Y-16213543D02*
X2487045Y-16165924D01*
X2487045Y-16165924D02*
X2496569Y-16127829D01*
X2496569Y-16127829D02*
X2506092Y-16108781D01*
X2506092Y-16108781D02*
X2515616Y-16099258D01*
X2515616Y-16099258D02*
X2534664Y-16089734D01*
X2687045Y-16289734D02*
X2687045Y-16156400D01*
X2687045Y-16175448D02*
X2696569Y-16165924D01*
X2696569Y-16165924D02*
X2715616Y-16156400D01*
X2715616Y-16156400D02*
X2744188Y-16156400D01*
X2744188Y-16156400D02*
X2763235Y-16165924D01*
X2763235Y-16165924D02*
X2772759Y-16184972D01*
X2772759Y-16184972D02*
X2772759Y-16289734D01*
X2772759Y-16184972D02*
X2782283Y-16165924D01*
X2782283Y-16165924D02*
X2801330Y-16156400D01*
X2801330Y-16156400D02*
X2829902Y-16156400D01*
X2829902Y-16156400D02*
X2848949Y-16165924D01*
X2848949Y-16165924D02*
X2858473Y-16184972D01*
X2858473Y-16184972D02*
X2858473Y-16289734D01*
X2953711Y-16289734D02*
X2953711Y-16156400D01*
X2953711Y-16175448D02*
X2963235Y-16165924D01*
X2963235Y-16165924D02*
X2982283Y-16156400D01*
X2982283Y-16156400D02*
X3010854Y-16156400D01*
X3010854Y-16156400D02*
X3029902Y-16165924D01*
X3029902Y-16165924D02*
X3039426Y-16184972D01*
X3039426Y-16184972D02*
X3039426Y-16289734D01*
X3039426Y-16184972D02*
X3048949Y-16165924D01*
X3048949Y-16165924D02*
X3067997Y-16156400D01*
X3067997Y-16156400D02*
X3096568Y-16156400D01*
X3096568Y-16156400D02*
X3115616Y-16165924D01*
X3115616Y-16165924D02*
X3125140Y-16184972D01*
X3125140Y-16184972D02*
X3125140Y-16289734D01*
X3515616Y-16080210D02*
X3344188Y-16337353D01*
X3772759Y-16089734D02*
X3791807Y-16089734D01*
X3791807Y-16089734D02*
X3810854Y-16099258D01*
X3810854Y-16099258D02*
X3820378Y-16108781D01*
X3820378Y-16108781D02*
X3829902Y-16127829D01*
X3829902Y-16127829D02*
X3839426Y-16165924D01*
X3839426Y-16165924D02*
X3839426Y-16213543D01*
X3839426Y-16213543D02*
X3829902Y-16251638D01*
X3829902Y-16251638D02*
X3820378Y-16270686D01*
X3820378Y-16270686D02*
X3810854Y-16280210D01*
X3810854Y-16280210D02*
X3791807Y-16289734D01*
X3791807Y-16289734D02*
X3772759Y-16289734D01*
X3772759Y-16289734D02*
X3753711Y-16280210D01*
X3753711Y-16280210D02*
X3744188Y-16270686D01*
X3744188Y-16270686D02*
X3734664Y-16251638D01*
X3734664Y-16251638D02*
X3725140Y-16213543D01*
X3725140Y-16213543D02*
X3725140Y-16165924D01*
X3725140Y-16165924D02*
X3734664Y-16127829D01*
X3734664Y-16127829D02*
X3744188Y-16108781D01*
X3744188Y-16108781D02*
X3753711Y-16099258D01*
X3753711Y-16099258D02*
X3772759Y-16089734D01*
X3934664Y-16280210D02*
X3934664Y-16289734D01*
X3934664Y-16289734D02*
X3925140Y-16308781D01*
X3925140Y-16308781D02*
X3915616Y-16318305D01*
X4058473Y-16089734D02*
X4077521Y-16089734D01*
X4077521Y-16089734D02*
X4096569Y-16099258D01*
X4096569Y-16099258D02*
X4106092Y-16108781D01*
X4106092Y-16108781D02*
X4115616Y-16127829D01*
X4115616Y-16127829D02*
X4125140Y-16165924D01*
X4125140Y-16165924D02*
X4125140Y-16213543D01*
X4125140Y-16213543D02*
X4115616Y-16251638D01*
X4115616Y-16251638D02*
X4106092Y-16270686D01*
X4106092Y-16270686D02*
X4096569Y-16280210D01*
X4096569Y-16280210D02*
X4077521Y-16289734D01*
X4077521Y-16289734D02*
X4058473Y-16289734D01*
X4058473Y-16289734D02*
X4039426Y-16280210D01*
X4039426Y-16280210D02*
X4029902Y-16270686D01*
X4029902Y-16270686D02*
X4020378Y-16251638D01*
X4020378Y-16251638D02*
X4010854Y-16213543D01*
X4010854Y-16213543D02*
X4010854Y-16165924D01*
X4010854Y-16165924D02*
X4020378Y-16127829D01*
X4020378Y-16127829D02*
X4029902Y-16108781D01*
X4029902Y-16108781D02*
X4039426Y-16099258D01*
X4039426Y-16099258D02*
X4058473Y-16089734D01*
X4306093Y-16089734D02*
X4210854Y-16089734D01*
X4210854Y-16089734D02*
X4201331Y-16184972D01*
X4201331Y-16184972D02*
X4210854Y-16175448D01*
X4210854Y-16175448D02*
X4229902Y-16165924D01*
X4229902Y-16165924D02*
X4277521Y-16165924D01*
X4277521Y-16165924D02*
X4296569Y-16175448D01*
X4296569Y-16175448D02*
X4306093Y-16184972D01*
X4306093Y-16184972D02*
X4315616Y-16204019D01*
X4315616Y-16204019D02*
X4315616Y-16251638D01*
X4315616Y-16251638D02*
X4306093Y-16270686D01*
X4306093Y-16270686D02*
X4296569Y-16280210D01*
X4296569Y-16280210D02*
X4277521Y-16289734D01*
X4277521Y-16289734D02*
X4229902Y-16289734D01*
X4229902Y-16289734D02*
X4210854Y-16280210D01*
X4210854Y-16280210D02*
X4201331Y-16270686D01*
X4410854Y-16289734D02*
X4448950Y-16289734D01*
X4448950Y-16289734D02*
X4467997Y-16280210D01*
X4467997Y-16280210D02*
X4477521Y-16270686D01*
X4477521Y-16270686D02*
X4496569Y-16242115D01*
X4496569Y-16242115D02*
X4506093Y-16204019D01*
X4506093Y-16204019D02*
X4506093Y-16127829D01*
X4506093Y-16127829D02*
X4496569Y-16108781D01*
X4496569Y-16108781D02*
X4487045Y-16099258D01*
X4487045Y-16099258D02*
X4467997Y-16089734D01*
X4467997Y-16089734D02*
X4429902Y-16089734D01*
X4429902Y-16089734D02*
X4410854Y-16099258D01*
X4410854Y-16099258D02*
X4401331Y-16108781D01*
X4401331Y-16108781D02*
X4391807Y-16127829D01*
X4391807Y-16127829D02*
X4391807Y-16175448D01*
X4391807Y-16175448D02*
X4401331Y-16194496D01*
X4401331Y-16194496D02*
X4410854Y-16204019D01*
X4410854Y-16204019D02*
X4429902Y-16213543D01*
X4429902Y-16213543D02*
X4467997Y-16213543D01*
X4467997Y-16213543D02*
X4487045Y-16204019D01*
X4487045Y-16204019D02*
X4496569Y-16194496D01*
X4496569Y-16194496D02*
X4506093Y-16175448D01*
X4696569Y-16289734D02*
X4582283Y-16289734D01*
X4639426Y-16289734D02*
X4639426Y-16089734D01*
X4639426Y-16089734D02*
X4620378Y-16118305D01*
X4620378Y-16118305D02*
X4601331Y-16137353D01*
X4601331Y-16137353D02*
X4582283Y-16146877D01*
X4772759Y-16089734D02*
X4772759Y-16127829D01*
X4848950Y-16089734D02*
X4848950Y-16127829D01*
X5144188Y-16365924D02*
X5134664Y-16356400D01*
X5134664Y-16356400D02*
X5115616Y-16327829D01*
X5115616Y-16327829D02*
X5106093Y-16308781D01*
X5106093Y-16308781D02*
X5096569Y-16280210D01*
X5096569Y-16280210D02*
X5087045Y-16232591D01*
X5087045Y-16232591D02*
X5087045Y-16194496D01*
X5087045Y-16194496D02*
X5096569Y-16146877D01*
X5096569Y-16146877D02*
X5106093Y-16118305D01*
X5106093Y-16118305D02*
X5115616Y-16099258D01*
X5115616Y-16099258D02*
X5134664Y-16070686D01*
X5134664Y-16070686D02*
X5144188Y-16061162D01*
X5325140Y-16289734D02*
X5210855Y-16289734D01*
X5267997Y-16289734D02*
X5267997Y-16089734D01*
X5267997Y-16089734D02*
X5248950Y-16118305D01*
X5248950Y-16118305D02*
X5229902Y-16137353D01*
X5229902Y-16137353D02*
X5210855Y-16146877D01*
X5496569Y-16156400D02*
X5496569Y-16289734D01*
X5448950Y-16080210D02*
X5401331Y-16223067D01*
X5401331Y-16223067D02*
X5525140Y-16223067D01*
X5591807Y-16108781D02*
X5601331Y-16099258D01*
X5601331Y-16099258D02*
X5620378Y-16089734D01*
X5620378Y-16089734D02*
X5667997Y-16089734D01*
X5667997Y-16089734D02*
X5687045Y-16099258D01*
X5687045Y-16099258D02*
X5696569Y-16108781D01*
X5696569Y-16108781D02*
X5706093Y-16127829D01*
X5706093Y-16127829D02*
X5706093Y-16146877D01*
X5706093Y-16146877D02*
X5696569Y-16175448D01*
X5696569Y-16175448D02*
X5582283Y-16289734D01*
X5582283Y-16289734D02*
X5706093Y-16289734D01*
X5944188Y-16289734D02*
X5944188Y-16089734D01*
X6029902Y-16289734D02*
X6029902Y-16184972D01*
X6029902Y-16184972D02*
X6020378Y-16165924D01*
X6020378Y-16165924D02*
X6001331Y-16156400D01*
X6001331Y-16156400D02*
X5972759Y-16156400D01*
X5972759Y-16156400D02*
X5953712Y-16165924D01*
X5953712Y-16165924D02*
X5944188Y-16175448D01*
X6153712Y-16289734D02*
X6134664Y-16280210D01*
X6134664Y-16280210D02*
X6125140Y-16270686D01*
X6125140Y-16270686D02*
X6115616Y-16251638D01*
X6115616Y-16251638D02*
X6115616Y-16194496D01*
X6115616Y-16194496D02*
X6125140Y-16175448D01*
X6125140Y-16175448D02*
X6134664Y-16165924D01*
X6134664Y-16165924D02*
X6153712Y-16156400D01*
X6153712Y-16156400D02*
X6182283Y-16156400D01*
X6182283Y-16156400D02*
X6201331Y-16165924D01*
X6201331Y-16165924D02*
X6210855Y-16175448D01*
X6210855Y-16175448D02*
X6220378Y-16194496D01*
X6220378Y-16194496D02*
X6220378Y-16251638D01*
X6220378Y-16251638D02*
X6210855Y-16270686D01*
X6210855Y-16270686D02*
X6201331Y-16280210D01*
X6201331Y-16280210D02*
X6182283Y-16289734D01*
X6182283Y-16289734D02*
X6153712Y-16289734D01*
X6334664Y-16289734D02*
X6315616Y-16280210D01*
X6315616Y-16280210D02*
X6306093Y-16261162D01*
X6306093Y-16261162D02*
X6306093Y-16089734D01*
X6487045Y-16280210D02*
X6467997Y-16289734D01*
X6467997Y-16289734D02*
X6429902Y-16289734D01*
X6429902Y-16289734D02*
X6410855Y-16280210D01*
X6410855Y-16280210D02*
X6401331Y-16261162D01*
X6401331Y-16261162D02*
X6401331Y-16184972D01*
X6401331Y-16184972D02*
X6410855Y-16165924D01*
X6410855Y-16165924D02*
X6429902Y-16156400D01*
X6429902Y-16156400D02*
X6467997Y-16156400D01*
X6467997Y-16156400D02*
X6487045Y-16165924D01*
X6487045Y-16165924D02*
X6496569Y-16184972D01*
X6496569Y-16184972D02*
X6496569Y-16204019D01*
X6496569Y-16204019D02*
X6401331Y-16223067D01*
X6572759Y-16280210D02*
X6591807Y-16289734D01*
X6591807Y-16289734D02*
X6629902Y-16289734D01*
X6629902Y-16289734D02*
X6648950Y-16280210D01*
X6648950Y-16280210D02*
X6658474Y-16261162D01*
X6658474Y-16261162D02*
X6658474Y-16251638D01*
X6658474Y-16251638D02*
X6648950Y-16232591D01*
X6648950Y-16232591D02*
X6629902Y-16223067D01*
X6629902Y-16223067D02*
X6601331Y-16223067D01*
X6601331Y-16223067D02*
X6582283Y-16213543D01*
X6582283Y-16213543D02*
X6572759Y-16194496D01*
X6572759Y-16194496D02*
X6572759Y-16184972D01*
X6572759Y-16184972D02*
X6582283Y-16165924D01*
X6582283Y-16165924D02*
X6601331Y-16156400D01*
X6601331Y-16156400D02*
X6629902Y-16156400D01*
X6629902Y-16156400D02*
X6648950Y-16165924D01*
X6896569Y-16213543D02*
X7048950Y-16213543D01*
X6972759Y-16289734D02*
X6972759Y-16137353D01*
X7287045Y-16108781D02*
X7296569Y-16099258D01*
X7296569Y-16099258D02*
X7315617Y-16089734D01*
X7315617Y-16089734D02*
X7363236Y-16089734D01*
X7363236Y-16089734D02*
X7382283Y-16099258D01*
X7382283Y-16099258D02*
X7391807Y-16108781D01*
X7391807Y-16108781D02*
X7401331Y-16127829D01*
X7401331Y-16127829D02*
X7401331Y-16146877D01*
X7401331Y-16146877D02*
X7391807Y-16175448D01*
X7391807Y-16175448D02*
X7277521Y-16289734D01*
X7277521Y-16289734D02*
X7401331Y-16289734D01*
X7629902Y-16280210D02*
X7648950Y-16289734D01*
X7648950Y-16289734D02*
X7687045Y-16289734D01*
X7687045Y-16289734D02*
X7706093Y-16280210D01*
X7706093Y-16280210D02*
X7715617Y-16261162D01*
X7715617Y-16261162D02*
X7715617Y-16251638D01*
X7715617Y-16251638D02*
X7706093Y-16232591D01*
X7706093Y-16232591D02*
X7687045Y-16223067D01*
X7687045Y-16223067D02*
X7658474Y-16223067D01*
X7658474Y-16223067D02*
X7639426Y-16213543D01*
X7639426Y-16213543D02*
X7629902Y-16194496D01*
X7629902Y-16194496D02*
X7629902Y-16184972D01*
X7629902Y-16184972D02*
X7639426Y-16165924D01*
X7639426Y-16165924D02*
X7658474Y-16156400D01*
X7658474Y-16156400D02*
X7687045Y-16156400D01*
X7687045Y-16156400D02*
X7706093Y-16165924D01*
X7829902Y-16289734D02*
X7810855Y-16280210D01*
X7810855Y-16280210D02*
X7801331Y-16261162D01*
X7801331Y-16261162D02*
X7801331Y-16089734D01*
X7934664Y-16289734D02*
X7915617Y-16280210D01*
X7915617Y-16280210D02*
X7906093Y-16270686D01*
X7906093Y-16270686D02*
X7896569Y-16251638D01*
X7896569Y-16251638D02*
X7896569Y-16194496D01*
X7896569Y-16194496D02*
X7906093Y-16175448D01*
X7906093Y-16175448D02*
X7915617Y-16165924D01*
X7915617Y-16165924D02*
X7934664Y-16156400D01*
X7934664Y-16156400D02*
X7963236Y-16156400D01*
X7963236Y-16156400D02*
X7982283Y-16165924D01*
X7982283Y-16165924D02*
X7991807Y-16175448D01*
X7991807Y-16175448D02*
X8001331Y-16194496D01*
X8001331Y-16194496D02*
X8001331Y-16251638D01*
X8001331Y-16251638D02*
X7991807Y-16270686D01*
X7991807Y-16270686D02*
X7982283Y-16280210D01*
X7982283Y-16280210D02*
X7963236Y-16289734D01*
X7963236Y-16289734D02*
X7934664Y-16289734D01*
X8058474Y-16156400D02*
X8134664Y-16156400D01*
X8087045Y-16089734D02*
X8087045Y-16261162D01*
X8087045Y-16261162D02*
X8096569Y-16280210D01*
X8096569Y-16280210D02*
X8115617Y-16289734D01*
X8115617Y-16289734D02*
X8134664Y-16289734D01*
X8191807Y-16280210D02*
X8210855Y-16289734D01*
X8210855Y-16289734D02*
X8248950Y-16289734D01*
X8248950Y-16289734D02*
X8267998Y-16280210D01*
X8267998Y-16280210D02*
X8277521Y-16261162D01*
X8277521Y-16261162D02*
X8277521Y-16251638D01*
X8277521Y-16251638D02*
X8267998Y-16232591D01*
X8267998Y-16232591D02*
X8248950Y-16223067D01*
X8248950Y-16223067D02*
X8220379Y-16223067D01*
X8220379Y-16223067D02*
X8201331Y-16213543D01*
X8201331Y-16213543D02*
X8191807Y-16194496D01*
X8191807Y-16194496D02*
X8191807Y-16184972D01*
X8191807Y-16184972D02*
X8201331Y-16165924D01*
X8201331Y-16165924D02*
X8220379Y-16156400D01*
X8220379Y-16156400D02*
X8248950Y-16156400D01*
X8248950Y-16156400D02*
X8267998Y-16165924D01*
X8344188Y-16365924D02*
X8353712Y-16356400D01*
X8353712Y-16356400D02*
X8372760Y-16327829D01*
X8372760Y-16327829D02*
X8382283Y-16308781D01*
X8382283Y-16308781D02*
X8391807Y-16280210D01*
X8391807Y-16280210D02*
X8401331Y-16232591D01*
X8401331Y-16232591D02*
X8401331Y-16194496D01*
X8401331Y-16194496D02*
X8391807Y-16146877D01*
X8391807Y-16146877D02*
X8382283Y-16118305D01*
X8382283Y-16118305D02*
X8372760Y-16099258D01*
X8372760Y-16099258D02*
X8353712Y-16070686D01*
X8353712Y-16070686D02*
X8344188Y-16061162D01*
X1469125Y-16568250D02*
X1569125Y-16468250D01*
X1469125Y-16368250D01*
X1369125Y-16468250D01*
X1469125Y-16568250D01*
X1810854Y-16359734D02*
X1934664Y-16359734D01*
X1934664Y-16359734D02*
X1867997Y-16435924D01*
X1867997Y-16435924D02*
X1896568Y-16435924D01*
X1896568Y-16435924D02*
X1915616Y-16445448D01*
X1915616Y-16445448D02*
X1925140Y-16454972D01*
X1925140Y-16454972D02*
X1934664Y-16474019D01*
X1934664Y-16474019D02*
X1934664Y-16521638D01*
X1934664Y-16521638D02*
X1925140Y-16540686D01*
X1925140Y-16540686D02*
X1915616Y-16550210D01*
X1915616Y-16550210D02*
X1896568Y-16559734D01*
X1896568Y-16559734D02*
X1839426Y-16559734D01*
X1839426Y-16559734D02*
X1820378Y-16550210D01*
X1820378Y-16550210D02*
X1810854Y-16540686D01*
X2029902Y-16550210D02*
X2029902Y-16559734D01*
X2029902Y-16559734D02*
X2020378Y-16578781D01*
X2020378Y-16578781D02*
X2010854Y-16588305D01*
X2153711Y-16359734D02*
X2172759Y-16359734D01*
X2172759Y-16359734D02*
X2191807Y-16369258D01*
X2191807Y-16369258D02*
X2201330Y-16378781D01*
X2201330Y-16378781D02*
X2210854Y-16397829D01*
X2210854Y-16397829D02*
X2220378Y-16435924D01*
X2220378Y-16435924D02*
X2220378Y-16483543D01*
X2220378Y-16483543D02*
X2210854Y-16521638D01*
X2210854Y-16521638D02*
X2201330Y-16540686D01*
X2201330Y-16540686D02*
X2191807Y-16550210D01*
X2191807Y-16550210D02*
X2172759Y-16559734D01*
X2172759Y-16559734D02*
X2153711Y-16559734D01*
X2153711Y-16559734D02*
X2134664Y-16550210D01*
X2134664Y-16550210D02*
X2125140Y-16540686D01*
X2125140Y-16540686D02*
X2115616Y-16521638D01*
X2115616Y-16521638D02*
X2106092Y-16483543D01*
X2106092Y-16483543D02*
X2106092Y-16435924D01*
X2106092Y-16435924D02*
X2115616Y-16397829D01*
X2115616Y-16397829D02*
X2125140Y-16378781D01*
X2125140Y-16378781D02*
X2134664Y-16369258D01*
X2134664Y-16369258D02*
X2153711Y-16359734D01*
X2391807Y-16426400D02*
X2391807Y-16559734D01*
X2344188Y-16350210D02*
X2296569Y-16493067D01*
X2296569Y-16493067D02*
X2420378Y-16493067D01*
X2525140Y-16445448D02*
X2506092Y-16435924D01*
X2506092Y-16435924D02*
X2496569Y-16426400D01*
X2496569Y-16426400D02*
X2487045Y-16407353D01*
X2487045Y-16407353D02*
X2487045Y-16397829D01*
X2487045Y-16397829D02*
X2496569Y-16378781D01*
X2496569Y-16378781D02*
X2506092Y-16369258D01*
X2506092Y-16369258D02*
X2525140Y-16359734D01*
X2525140Y-16359734D02*
X2563235Y-16359734D01*
X2563235Y-16359734D02*
X2582283Y-16369258D01*
X2582283Y-16369258D02*
X2591807Y-16378781D01*
X2591807Y-16378781D02*
X2601330Y-16397829D01*
X2601330Y-16397829D02*
X2601330Y-16407353D01*
X2601330Y-16407353D02*
X2591807Y-16426400D01*
X2591807Y-16426400D02*
X2582283Y-16435924D01*
X2582283Y-16435924D02*
X2563235Y-16445448D01*
X2563235Y-16445448D02*
X2525140Y-16445448D01*
X2525140Y-16445448D02*
X2506092Y-16454972D01*
X2506092Y-16454972D02*
X2496569Y-16464496D01*
X2496569Y-16464496D02*
X2487045Y-16483543D01*
X2487045Y-16483543D02*
X2487045Y-16521638D01*
X2487045Y-16521638D02*
X2496569Y-16540686D01*
X2496569Y-16540686D02*
X2506092Y-16550210D01*
X2506092Y-16550210D02*
X2525140Y-16559734D01*
X2525140Y-16559734D02*
X2563235Y-16559734D01*
X2563235Y-16559734D02*
X2582283Y-16550210D01*
X2582283Y-16550210D02*
X2591807Y-16540686D01*
X2591807Y-16540686D02*
X2601330Y-16521638D01*
X2601330Y-16521638D02*
X2601330Y-16483543D01*
X2601330Y-16483543D02*
X2591807Y-16464496D01*
X2591807Y-16464496D02*
X2582283Y-16454972D01*
X2582283Y-16454972D02*
X2563235Y-16445448D01*
X2687045Y-16559734D02*
X2687045Y-16426400D01*
X2687045Y-16445448D02*
X2696569Y-16435924D01*
X2696569Y-16435924D02*
X2715616Y-16426400D01*
X2715616Y-16426400D02*
X2744188Y-16426400D01*
X2744188Y-16426400D02*
X2763235Y-16435924D01*
X2763235Y-16435924D02*
X2772759Y-16454972D01*
X2772759Y-16454972D02*
X2772759Y-16559734D01*
X2772759Y-16454972D02*
X2782283Y-16435924D01*
X2782283Y-16435924D02*
X2801330Y-16426400D01*
X2801330Y-16426400D02*
X2829902Y-16426400D01*
X2829902Y-16426400D02*
X2848949Y-16435924D01*
X2848949Y-16435924D02*
X2858473Y-16454972D01*
X2858473Y-16454972D02*
X2858473Y-16559734D01*
X2953711Y-16559734D02*
X2953711Y-16426400D01*
X2953711Y-16445448D02*
X2963235Y-16435924D01*
X2963235Y-16435924D02*
X2982283Y-16426400D01*
X2982283Y-16426400D02*
X3010854Y-16426400D01*
X3010854Y-16426400D02*
X3029902Y-16435924D01*
X3029902Y-16435924D02*
X3039426Y-16454972D01*
X3039426Y-16454972D02*
X3039426Y-16559734D01*
X3039426Y-16454972D02*
X3048949Y-16435924D01*
X3048949Y-16435924D02*
X3067997Y-16426400D01*
X3067997Y-16426400D02*
X3096568Y-16426400D01*
X3096568Y-16426400D02*
X3115616Y-16435924D01*
X3115616Y-16435924D02*
X3125140Y-16454972D01*
X3125140Y-16454972D02*
X3125140Y-16559734D01*
X3515616Y-16350210D02*
X3344188Y-16607353D01*
X3772759Y-16359734D02*
X3791807Y-16359734D01*
X3791807Y-16359734D02*
X3810854Y-16369258D01*
X3810854Y-16369258D02*
X3820378Y-16378781D01*
X3820378Y-16378781D02*
X3829902Y-16397829D01*
X3829902Y-16397829D02*
X3839426Y-16435924D01*
X3839426Y-16435924D02*
X3839426Y-16483543D01*
X3839426Y-16483543D02*
X3829902Y-16521638D01*
X3829902Y-16521638D02*
X3820378Y-16540686D01*
X3820378Y-16540686D02*
X3810854Y-16550210D01*
X3810854Y-16550210D02*
X3791807Y-16559734D01*
X3791807Y-16559734D02*
X3772759Y-16559734D01*
X3772759Y-16559734D02*
X3753711Y-16550210D01*
X3753711Y-16550210D02*
X3744188Y-16540686D01*
X3744188Y-16540686D02*
X3734664Y-16521638D01*
X3734664Y-16521638D02*
X3725140Y-16483543D01*
X3725140Y-16483543D02*
X3725140Y-16435924D01*
X3725140Y-16435924D02*
X3734664Y-16397829D01*
X3734664Y-16397829D02*
X3744188Y-16378781D01*
X3744188Y-16378781D02*
X3753711Y-16369258D01*
X3753711Y-16369258D02*
X3772759Y-16359734D01*
X3934664Y-16550210D02*
X3934664Y-16559734D01*
X3934664Y-16559734D02*
X3925140Y-16578781D01*
X3925140Y-16578781D02*
X3915616Y-16588305D01*
X4125140Y-16559734D02*
X4010854Y-16559734D01*
X4067997Y-16559734D02*
X4067997Y-16359734D01*
X4067997Y-16359734D02*
X4048950Y-16388305D01*
X4048950Y-16388305D02*
X4029902Y-16407353D01*
X4029902Y-16407353D02*
X4010854Y-16416877D01*
X4201331Y-16378781D02*
X4210854Y-16369258D01*
X4210854Y-16369258D02*
X4229902Y-16359734D01*
X4229902Y-16359734D02*
X4277521Y-16359734D01*
X4277521Y-16359734D02*
X4296569Y-16369258D01*
X4296569Y-16369258D02*
X4306093Y-16378781D01*
X4306093Y-16378781D02*
X4315616Y-16397829D01*
X4315616Y-16397829D02*
X4315616Y-16416877D01*
X4315616Y-16416877D02*
X4306093Y-16445448D01*
X4306093Y-16445448D02*
X4191807Y-16559734D01*
X4191807Y-16559734D02*
X4315616Y-16559734D01*
X4439426Y-16359734D02*
X4458474Y-16359734D01*
X4458474Y-16359734D02*
X4477521Y-16369258D01*
X4477521Y-16369258D02*
X4487045Y-16378781D01*
X4487045Y-16378781D02*
X4496569Y-16397829D01*
X4496569Y-16397829D02*
X4506093Y-16435924D01*
X4506093Y-16435924D02*
X4506093Y-16483543D01*
X4506093Y-16483543D02*
X4496569Y-16521638D01*
X4496569Y-16521638D02*
X4487045Y-16540686D01*
X4487045Y-16540686D02*
X4477521Y-16550210D01*
X4477521Y-16550210D02*
X4458474Y-16559734D01*
X4458474Y-16559734D02*
X4439426Y-16559734D01*
X4439426Y-16559734D02*
X4420378Y-16550210D01*
X4420378Y-16550210D02*
X4410854Y-16540686D01*
X4410854Y-16540686D02*
X4401331Y-16521638D01*
X4401331Y-16521638D02*
X4391807Y-16483543D01*
X4391807Y-16483543D02*
X4391807Y-16435924D01*
X4391807Y-16435924D02*
X4401331Y-16397829D01*
X4401331Y-16397829D02*
X4410854Y-16378781D01*
X4410854Y-16378781D02*
X4420378Y-16369258D01*
X4420378Y-16369258D02*
X4439426Y-16359734D01*
X4629902Y-16359734D02*
X4648950Y-16359734D01*
X4648950Y-16359734D02*
X4667997Y-16369258D01*
X4667997Y-16369258D02*
X4677521Y-16378781D01*
X4677521Y-16378781D02*
X4687045Y-16397829D01*
X4687045Y-16397829D02*
X4696569Y-16435924D01*
X4696569Y-16435924D02*
X4696569Y-16483543D01*
X4696569Y-16483543D02*
X4687045Y-16521638D01*
X4687045Y-16521638D02*
X4677521Y-16540686D01*
X4677521Y-16540686D02*
X4667997Y-16550210D01*
X4667997Y-16550210D02*
X4648950Y-16559734D01*
X4648950Y-16559734D02*
X4629902Y-16559734D01*
X4629902Y-16559734D02*
X4610854Y-16550210D01*
X4610854Y-16550210D02*
X4601331Y-16540686D01*
X4601331Y-16540686D02*
X4591807Y-16521638D01*
X4591807Y-16521638D02*
X4582283Y-16483543D01*
X4582283Y-16483543D02*
X4582283Y-16435924D01*
X4582283Y-16435924D02*
X4591807Y-16397829D01*
X4591807Y-16397829D02*
X4601331Y-16378781D01*
X4601331Y-16378781D02*
X4610854Y-16369258D01*
X4610854Y-16369258D02*
X4629902Y-16359734D01*
X4772759Y-16359734D02*
X4772759Y-16397829D01*
X4848950Y-16359734D02*
X4848950Y-16397829D01*
X5144188Y-16635924D02*
X5134664Y-16626400D01*
X5134664Y-16626400D02*
X5115616Y-16597829D01*
X5115616Y-16597829D02*
X5106093Y-16578781D01*
X5106093Y-16578781D02*
X5096569Y-16550210D01*
X5096569Y-16550210D02*
X5087045Y-16502591D01*
X5087045Y-16502591D02*
X5087045Y-16464496D01*
X5087045Y-16464496D02*
X5096569Y-16416877D01*
X5096569Y-16416877D02*
X5106093Y-16388305D01*
X5106093Y-16388305D02*
X5115616Y-16369258D01*
X5115616Y-16369258D02*
X5134664Y-16340686D01*
X5134664Y-16340686D02*
X5144188Y-16331162D01*
X5210855Y-16378781D02*
X5220378Y-16369258D01*
X5220378Y-16369258D02*
X5239426Y-16359734D01*
X5239426Y-16359734D02*
X5287045Y-16359734D01*
X5287045Y-16359734D02*
X5306093Y-16369258D01*
X5306093Y-16369258D02*
X5315616Y-16378781D01*
X5315616Y-16378781D02*
X5325140Y-16397829D01*
X5325140Y-16397829D02*
X5325140Y-16416877D01*
X5325140Y-16416877D02*
X5315616Y-16445448D01*
X5315616Y-16445448D02*
X5201331Y-16559734D01*
X5201331Y-16559734D02*
X5325140Y-16559734D01*
X5563236Y-16559734D02*
X5563236Y-16359734D01*
X5648950Y-16559734D02*
X5648950Y-16454972D01*
X5648950Y-16454972D02*
X5639426Y-16435924D01*
X5639426Y-16435924D02*
X5620378Y-16426400D01*
X5620378Y-16426400D02*
X5591807Y-16426400D01*
X5591807Y-16426400D02*
X5572759Y-16435924D01*
X5572759Y-16435924D02*
X5563236Y-16445448D01*
X5772759Y-16559734D02*
X5753712Y-16550210D01*
X5753712Y-16550210D02*
X5744188Y-16540686D01*
X5744188Y-16540686D02*
X5734664Y-16521638D01*
X5734664Y-16521638D02*
X5734664Y-16464496D01*
X5734664Y-16464496D02*
X5744188Y-16445448D01*
X5744188Y-16445448D02*
X5753712Y-16435924D01*
X5753712Y-16435924D02*
X5772759Y-16426400D01*
X5772759Y-16426400D02*
X5801331Y-16426400D01*
X5801331Y-16426400D02*
X5820378Y-16435924D01*
X5820378Y-16435924D02*
X5829902Y-16445448D01*
X5829902Y-16445448D02*
X5839426Y-16464496D01*
X5839426Y-16464496D02*
X5839426Y-16521638D01*
X5839426Y-16521638D02*
X5829902Y-16540686D01*
X5829902Y-16540686D02*
X5820378Y-16550210D01*
X5820378Y-16550210D02*
X5801331Y-16559734D01*
X5801331Y-16559734D02*
X5772759Y-16559734D01*
X5953712Y-16559734D02*
X5934664Y-16550210D01*
X5934664Y-16550210D02*
X5925140Y-16531162D01*
X5925140Y-16531162D02*
X5925140Y-16359734D01*
X6106093Y-16550210D02*
X6087045Y-16559734D01*
X6087045Y-16559734D02*
X6048950Y-16559734D01*
X6048950Y-16559734D02*
X6029902Y-16550210D01*
X6029902Y-16550210D02*
X6020378Y-16531162D01*
X6020378Y-16531162D02*
X6020378Y-16454972D01*
X6020378Y-16454972D02*
X6029902Y-16435924D01*
X6029902Y-16435924D02*
X6048950Y-16426400D01*
X6048950Y-16426400D02*
X6087045Y-16426400D01*
X6087045Y-16426400D02*
X6106093Y-16435924D01*
X6106093Y-16435924D02*
X6115616Y-16454972D01*
X6115616Y-16454972D02*
X6115616Y-16474019D01*
X6115616Y-16474019D02*
X6020378Y-16493067D01*
X6191807Y-16550210D02*
X6210855Y-16559734D01*
X6210855Y-16559734D02*
X6248950Y-16559734D01*
X6248950Y-16559734D02*
X6267997Y-16550210D01*
X6267997Y-16550210D02*
X6277521Y-16531162D01*
X6277521Y-16531162D02*
X6277521Y-16521638D01*
X6277521Y-16521638D02*
X6267997Y-16502591D01*
X6267997Y-16502591D02*
X6248950Y-16493067D01*
X6248950Y-16493067D02*
X6220378Y-16493067D01*
X6220378Y-16493067D02*
X6201331Y-16483543D01*
X6201331Y-16483543D02*
X6191807Y-16464496D01*
X6191807Y-16464496D02*
X6191807Y-16454972D01*
X6191807Y-16454972D02*
X6201331Y-16435924D01*
X6201331Y-16435924D02*
X6220378Y-16426400D01*
X6220378Y-16426400D02*
X6248950Y-16426400D01*
X6248950Y-16426400D02*
X6267997Y-16435924D01*
X6344188Y-16635924D02*
X6353712Y-16626400D01*
X6353712Y-16626400D02*
X6372759Y-16597829D01*
X6372759Y-16597829D02*
X6382283Y-16578781D01*
X6382283Y-16578781D02*
X6391807Y-16550210D01*
X6391807Y-16550210D02*
X6401331Y-16502591D01*
X6401331Y-16502591D02*
X6401331Y-16464496D01*
X6401331Y-16464496D02*
X6391807Y-16416877D01*
X6391807Y-16416877D02*
X6382283Y-16388305D01*
X6382283Y-16388305D02*
X6372759Y-16369258D01*
X6372759Y-16369258D02*
X6353712Y-16340686D01*
X6353712Y-16340686D02*
X6344188Y-16331162D01*
M02*
