M48
; DRILL file KiCad 10.0.5 date 2026-08-20T14:56:19
; FORMAT={-:-/ absolute / metric / decimal}
; #@! TF.CreationDate,2026-08-20T14:56:19+03:00
; #@! TF.GenerationSoftware,Kicad,Pcbnew,10.0.5
; #@! TF.FileFunction,NonPlated,1,2,NPTH
FMAT,2
METRIC
; #@! TA.AperFunction,NonPlated,NPTH,ComponentDrill
T1C1.750
; #@! TA.AperFunction,NonPlated,NPTH,ComponentDrill
T2C1.850
; #@! TA.AperFunction,NonPlated,NPTH,ComponentDrill
T3C2.200
; #@! TA.AperFunction,NonPlated,NPTH,ComponentDrill
T4C3.048
; #@! TA.AperFunction,NonPlated,NPTH,ComponentDrill
T5C3.988
; #@! TA.AperFunction,NonPlated,NPTH,ComponentDrill
T6C4.000
%
G90
G05
T1
X22.543Y-57.309
X24.924Y-133.509
X27.305Y-76.359
X29.686Y-95.409
X32.703Y-57.309
X34.449Y-114.459
X35.084Y-133.509
X37.465Y-76.359
X39.846Y-95.409
X41.593Y-57.309
X44.609Y-114.459
X48.736Y-133.509
X51.117Y-76.359
X51.752Y-57.309
X55.88Y-95.409
X58.896Y-133.509
X60.642Y-57.309
X61.277Y-76.359
X65.405Y-114.459
X66.04Y-95.409
X70.167Y-76.359
X70.802Y-57.309
X72.549Y-133.509
X74.93Y-95.409
X75.565Y-114.459
X79.692Y-57.309
X80.328Y-76.359
X82.709Y-133.509
X84.455Y-114.459
X85.09Y-95.409
X89.218Y-76.359
X89.852Y-57.309
X93.98Y-95.409
X94.615Y-114.459
X98.742Y-57.309
X99.377Y-76.359
X103.505Y-114.459
X104.14Y-95.409
X108.267Y-76.359
X108.902Y-57.309
X113.03Y-95.409
X113.665Y-114.459
X117.792Y-57.309
X118.427Y-76.359
X122.555Y-114.459
X123.19Y-95.409
X127.317Y-76.359
X127.953Y-57.309
X132.08Y-95.409
X132.715Y-114.459
X136.843Y-57.309
X137.477Y-76.359
X141.605Y-114.459
X142.24Y-95.409
X143.986Y-133.509
X146.368Y-76.359
X147.002Y-57.309
X151.13Y-95.409
X151.765Y-114.459
X154.146Y-133.509
X155.892Y-57.309
X156.528Y-76.359
X160.655Y-114.459
X161.29Y-95.409
X165.417Y-76.359
X166.052Y-57.309
X170.18Y-95.409
X170.815Y-114.459
X174.942Y-57.309
X175.577Y-76.359
X179.705Y-114.459
X180.34Y-95.409
X184.468Y-76.359
X185.102Y-57.309
X189.23Y-95.409
X189.865Y-114.459
X193.992Y-57.309
X194.627Y-76.359
X198.755Y-114.459
X199.39Y-95.409
X203.517Y-76.359
X204.153Y-57.309
X208.28Y-95.409
X208.915Y-114.459
X213.042Y-57.309
X213.677Y-76.359
X214.471Y-133.509
X217.805Y-114.459
X218.44Y-95.409
X222.567Y-76.359
X223.202Y-57.309
X224.631Y-133.509
X227.33Y-95.409
X227.965Y-114.459
X232.093Y-57.309
X232.727Y-76.359
X236.855Y-114.459
X237.49Y-95.409
X238.919Y-133.509
X241.617Y-76.359
X242.252Y-57.309
X246.38Y-95.409
X247.015Y-114.459
X249.079Y-133.509
X251.142Y-57.309
X251.777Y-76.359
X256.54Y-95.409
X260.667Y-76.359
X260.667Y-133.509
X261.303Y-57.309
X270.192Y-57.309
X270.827Y-76.359
X270.827Y-133.509
X272.574Y-114.459
X277.336Y-95.409
X280.352Y-57.309
X282.734Y-114.459
X284.48Y-76.359
X284.48Y-133.509
X287.496Y-95.409
X289.243Y-57.309
X294.64Y-76.359
X294.64Y-133.509
X299.402Y-57.309
X317.817Y-57.309
X317.817Y-133.509
X327.977Y-57.309
X327.977Y-133.509
X336.868Y-57.309
X336.868Y-114.459
X336.868Y-133.509
X347.027Y-57.309
X347.027Y-114.459
X347.027Y-133.509
X355.917Y-57.309
X355.917Y-133.509
X366.077Y-57.309
X366.077Y-133.509
X384.334Y-114.459
X384.493Y-133.509
X394.494Y-114.459
X394.652Y-133.509
T2
X393.874Y-81.078
X393.874Y-85.927
T3
X396.904Y-80.778
X396.904Y-86.227
T4
X27.622Y-107.474
X51.435Y-107.474
X265.748Y-107.474
X270.51Y-88.424
X289.56Y-107.474
X294.322Y-88.424
T5
X27.622Y-122.714
X51.435Y-122.714
X99.06Y-141.764
X199.072Y-141.764
X265.748Y-122.714
X270.51Y-103.664
X289.56Y-122.714
X294.322Y-103.664
T6
X27.622Y-57.309
X30.004Y-133.509
X32.385Y-76.359
X34.766Y-95.409
X39.529Y-114.459
X46.672Y-57.309
X53.816Y-133.509
X56.197Y-76.359
X60.96Y-95.409
X65.722Y-57.309
X70.485Y-114.459
X75.248Y-76.359
X77.629Y-133.509
X80.01Y-95.409
X84.772Y-57.309
X89.535Y-114.459
X94.297Y-76.359
X99.06Y-95.409
X103.822Y-57.309
X108.585Y-114.459
X113.347Y-76.359
X118.11Y-95.409
X122.872Y-57.309
X127.635Y-114.459
X132.398Y-76.359
X137.16Y-95.409
X141.922Y-57.309
X146.685Y-114.459
X149.066Y-133.509
X151.447Y-76.359
X156.21Y-95.409
X160.972Y-57.309
X165.735Y-114.459
X170.498Y-76.359
X175.26Y-95.409
X180.022Y-57.309
X184.785Y-114.459
X189.547Y-76.359
X194.31Y-95.409
X199.072Y-57.309
X203.835Y-114.459
X208.597Y-76.359
X213.36Y-95.409
X218.123Y-57.309
X219.551Y-133.509
X222.885Y-114.459
X227.647Y-76.359
X232.41Y-95.409
X237.172Y-57.309
X241.935Y-114.459
X243.999Y-133.509
X246.697Y-76.359
X251.46Y-95.409
X256.222Y-57.309
X265.748Y-76.359
X265.748Y-133.509
X275.272Y-57.309
X277.654Y-114.459
X282.416Y-95.409
X289.56Y-76.359
X289.56Y-133.509
X294.322Y-57.309
X322.897Y-57.309
X322.897Y-133.509
X341.947Y-57.309
X341.947Y-114.459
X341.947Y-133.509
X360.998Y-57.309
X360.998Y-133.509
X389.414Y-114.459
X389.572Y-133.509
M30
