G04 #@! TF.GenerationSoftware,KiCad,Pcbnew,10.0.5*
G04 #@! TF.CreationDate,2026-08-20T14:56:18+03:00*
G04 #@! TF.ProjectId,keeb,6b656562-2e6b-4696-9361-645f70636258,rev?*
G04 #@! TF.SameCoordinates,Original*
G04 #@! TF.FileFunction,Soldermask,Bot*
G04 #@! TF.FilePolarity,Negative*
%FSLAX46Y46*%
G04 Gerber Fmt 4.6, Leading zero omitted, Abs format (unit mm)*
G04 Created by KiCad (PCBNEW 10.0.5) date 2026-08-20 14:56:18*
%MOMM*%
%LPD*%
G01*
G04 APERTURE LIST*
G04 Aperture macros list*
%AMRoundRect*
0 Rectangle with rounded corners*
0 $1 Rounding radius*
0 $2 $3 $4 $5 $6 $7 $8 $9 X,Y pos of 4 corners*
0 Add a 4 corners polygon primitive as box body*
4,1,4,$2,$3,$4,$5,$6,$7,$8,$9,$2,$3,0*
0 Add four circle primitives for the rounded corners*
1,1,$1+$1,$2,$3*
1,1,$1+$1,$4,$5*
1,1,$1+$1,$6,$7*
1,1,$1+$1,$8,$9*
0 Add four rect primitives between the rounded corners*
20,1,$1+$1,$2,$3,$4,$5,0*
20,1,$1+$1,$4,$5,$6,$7,0*
20,1,$1+$1,$6,$7,$8,$9,0*
20,1,$1+$1,$8,$9,$2,$3,0*%
%AMFreePoly0*
4,1,37,0.603843,0.796157,0.639018,0.796157,0.711114,0.766294,0.766294,0.711114,0.796157,0.639018,0.796157,0.603843,0.800000,0.600000,0.800000,-0.600000,0.796157,-0.603843,0.796157,-0.639018,0.766294,-0.711114,0.711114,-0.766294,0.639018,-0.796157,0.603843,-0.796157,0.600000,-0.800000,0.000000,-0.800000,0.000000,-0.796148,-0.078414,-0.796148,-0.232228,-0.765552,-0.377117,-0.705537,
-0.507515,-0.618408,-0.618408,-0.507515,-0.705537,-0.377117,-0.765552,-0.232228,-0.796148,-0.078414,-0.796148,0.078414,-0.765552,0.232228,-0.705537,0.377117,-0.618408,0.507515,-0.507515,0.618408,-0.377117,0.705537,-0.232228,0.765552,-0.078414,0.796148,0.000000,0.796148,0.000000,0.800000,0.600000,0.800000,0.603843,0.796157,0.603843,0.796157,$1*%
%AMFreePoly1*
4,1,37,0.000000,0.796148,0.078414,0.796148,0.232228,0.765552,0.377117,0.705537,0.507515,0.618408,0.618408,0.507515,0.705537,0.377117,0.765552,0.232228,0.796148,0.078414,0.796148,-0.078414,0.765552,-0.232228,0.705537,-0.377117,0.618408,-0.507515,0.507515,-0.618408,0.377117,-0.705537,0.232228,-0.765552,0.078414,-0.796148,0.000000,-0.796148,0.000000,-0.800000,-0.600000,-0.800000,
-0.603843,-0.796157,-0.639018,-0.796157,-0.711114,-0.766294,-0.766294,-0.711114,-0.796157,-0.639018,-0.796157,-0.603843,-0.800000,-0.600000,-0.800000,0.600000,-0.796157,0.603843,-0.796157,0.639018,-0.766294,0.711114,-0.711114,0.766294,-0.639018,0.796157,-0.603843,0.796157,-0.600000,0.800000,0.000000,0.800000,0.000000,0.796148,0.000000,0.796148,$1*%
G04 Aperture macros list end*
%ADD10C,3.048000*%
%ADD11C,3.987800*%
%ADD12C,4.000000*%
%ADD13C,1.750000*%
%ADD14C,2.500000*%
%ADD15C,2.200000*%
%ADD16C,1.850000*%
%ADD17RoundRect,0.200000X-0.600000X0.600000X-0.600000X-0.600000X0.600000X-0.600000X0.600000X0.600000X0*%
%ADD18C,1.600000*%
%ADD19FreePoly0,270.000000*%
%ADD20FreePoly1,270.000000*%
%ADD21C,1.500000*%
%ADD22R,2.000000X2.000000*%
%ADD23C,2.000000*%
%ADD24R,3.200000X2.000000*%
%ADD25R,1.600000X1.600000*%
%ADD26O,1.600000X1.600000*%
G04 APERTURE END LIST*
D10*
G04 #@! TO.C,S57*
X265747500Y-107473750D03*
D11*
X265747500Y-122713750D03*
D10*
X289560000Y-107473750D03*
D11*
X289560000Y-122713750D03*
G04 #@! TD*
D10*
G04 #@! TO.C,S56*
X27622500Y-107473750D03*
D11*
X27622500Y-122713750D03*
D10*
X51435000Y-107473750D03*
D11*
X51435000Y-122713750D03*
G04 #@! TD*
D10*
G04 #@! TO.C,S55*
X270510000Y-88423750D03*
D11*
X270510000Y-103663750D03*
D10*
X294322500Y-88423750D03*
D11*
X294322500Y-103663750D03*
G04 #@! TD*
D12*
G04 #@! TO.C,S54*
X99060000Y-126523750D03*
D11*
X99060000Y-141763750D03*
D12*
X199072500Y-126523750D03*
D11*
X199072500Y-141763750D03*
G04 #@! TD*
D13*
G04 #@! TO.C,S49*
X160655000Y-114458750D03*
D12*
X165735000Y-114458750D03*
D13*
X170815000Y-114458750D03*
D14*
X161925000Y-111918750D03*
X168275000Y-109378750D03*
G04 #@! TD*
D13*
G04 #@! TO.C,S24*
X184467500Y-76358750D03*
D12*
X189547500Y-76358750D03*
D13*
X194627500Y-76358750D03*
D14*
X185737500Y-73818750D03*
X192087500Y-71278750D03*
G04 #@! TD*
D15*
G04 #@! TO.C,A1*
X396903750Y-80777500D03*
D16*
X393873750Y-81077500D03*
X393873750Y-85927500D03*
D15*
X396903750Y-86227500D03*
D17*
X397033750Y-74612500D03*
D18*
X394493750Y-74612500D03*
D19*
X391953750Y-74612500D03*
D18*
X389413750Y-74612500D03*
X386873750Y-74612500D03*
X384333750Y-74612500D03*
X381793750Y-74612500D03*
D19*
X379253750Y-74612500D03*
D18*
X376713750Y-74612500D03*
X374173750Y-74612500D03*
X371633750Y-74612500D03*
X369093750Y-74612500D03*
D19*
X366553750Y-74612500D03*
D18*
X364013750Y-74612500D03*
X361473750Y-74612500D03*
X358933750Y-74612500D03*
X356393750Y-74612500D03*
D19*
X353853750Y-74612500D03*
D18*
X351313750Y-74612500D03*
X348773750Y-74612500D03*
X348773750Y-92392500D03*
X351313750Y-92392500D03*
D20*
X353853750Y-92392500D03*
D18*
X356393750Y-92392500D03*
X358933750Y-92392500D03*
X361473750Y-92392500D03*
X364013750Y-92392500D03*
D20*
X366553750Y-92392500D03*
D18*
X369093750Y-92392500D03*
X371633750Y-92392500D03*
X374173750Y-92392500D03*
X376713750Y-92392500D03*
D20*
X379253750Y-92392500D03*
D18*
X381793750Y-92392500D03*
X384333750Y-92392500D03*
X386873750Y-92392500D03*
X389413750Y-92392500D03*
D20*
X391953750Y-92392500D03*
D18*
X394493750Y-92392500D03*
X397033750Y-92392500D03*
G04 #@! TD*
D13*
G04 #@! TO.C,S34*
X113030000Y-95408750D03*
D12*
X118110000Y-95408750D03*
D13*
X123190000Y-95408750D03*
D14*
X114300000Y-92868750D03*
X120650000Y-90328750D03*
G04 #@! TD*
D13*
G04 #@! TO.C,S40*
X227330000Y-95408750D03*
D12*
X232410000Y-95408750D03*
D13*
X237490000Y-95408750D03*
D14*
X228600000Y-92868750D03*
X234950000Y-90328750D03*
G04 #@! TD*
D13*
G04 #@! TO.C,S14*
X270192500Y-57308750D03*
D12*
X275272500Y-57308750D03*
D13*
X280352500Y-57308750D03*
D14*
X271462500Y-54768750D03*
X277812500Y-52228750D03*
G04 #@! TD*
D13*
G04 #@! TO.C,S82*
X336867500Y-114458750D03*
D12*
X341947500Y-114458750D03*
D13*
X347027500Y-114458750D03*
D14*
X338137500Y-111918750D03*
X344487500Y-109378750D03*
G04 #@! TD*
D13*
G04 #@! TO.C,S75*
X214471250Y-133508750D03*
D12*
X219551250Y-133508750D03*
D13*
X224631250Y-133508750D03*
D14*
X215741250Y-130968750D03*
X222091250Y-128428750D03*
G04 #@! TD*
D13*
G04 #@! TO.C,S39*
X208280000Y-95408750D03*
D12*
X213360000Y-95408750D03*
D13*
X218440000Y-95408750D03*
D14*
X209550000Y-92868750D03*
X215900000Y-90328750D03*
G04 #@! TD*
D13*
G04 #@! TO.C,S77*
X260667500Y-133508750D03*
D12*
X265747500Y-133508750D03*
D13*
X270827500Y-133508750D03*
D14*
X261937500Y-130968750D03*
X268287500Y-128428750D03*
G04 #@! TD*
D13*
G04 #@! TO.C,S20*
X108267500Y-76358750D03*
D12*
X113347500Y-76358750D03*
D13*
X118427500Y-76358750D03*
D14*
X109537500Y-73818750D03*
X115887500Y-71278750D03*
G04 #@! TD*
D13*
G04 #@! TO.C,S22*
X146367500Y-76358750D03*
D12*
X151447500Y-76358750D03*
D13*
X156527500Y-76358750D03*
D14*
X147637500Y-73818750D03*
X153987500Y-71278750D03*
G04 #@! TD*
D13*
G04 #@! TO.C,S78*
X284480000Y-133508750D03*
D12*
X289560000Y-133508750D03*
D13*
X294640000Y-133508750D03*
D14*
X285750000Y-130968750D03*
X292100000Y-128428750D03*
G04 #@! TD*
D13*
G04 #@! TO.C,S21*
X127317500Y-76358750D03*
D12*
X132397500Y-76358750D03*
D13*
X137477500Y-76358750D03*
D14*
X128587500Y-73818750D03*
X134937500Y-71278750D03*
G04 #@! TD*
D13*
G04 #@! TO.C,S6*
X117792500Y-57308750D03*
D12*
X122872500Y-57308750D03*
D13*
X127952500Y-57308750D03*
D14*
X119062500Y-54768750D03*
X125412500Y-52228750D03*
G04 #@! TD*
D13*
G04 #@! TO.C,S16*
X27305000Y-76358750D03*
D12*
X32385000Y-76358750D03*
D13*
X37465000Y-76358750D03*
D14*
X28575000Y-73818750D03*
X34925000Y-71278750D03*
G04 #@! TD*
D13*
G04 #@! TO.C,S9*
X174942500Y-57308750D03*
D12*
X180022500Y-57308750D03*
D13*
X185102500Y-57308750D03*
D14*
X176212500Y-54768750D03*
X182562500Y-52228750D03*
G04 #@! TD*
D21*
G04 #@! TO.C,SW1*
X394335000Y-54690000D03*
X394335000Y-59690000D03*
D22*
X379835000Y-54690000D03*
D23*
X379835000Y-59690000D03*
X379835000Y-57190000D03*
D24*
X387335000Y-51590000D03*
X387335000Y-62790000D03*
G04 #@! TD*
D13*
G04 #@! TO.C,S46*
X103505000Y-114458750D03*
D12*
X108585000Y-114458750D03*
D13*
X113665000Y-114458750D03*
D14*
X104775000Y-111918750D03*
X111125000Y-109378750D03*
G04 #@! TD*
D13*
G04 #@! TO.C,S28*
X260667500Y-76358750D03*
D12*
X265747500Y-76358750D03*
D13*
X270827500Y-76358750D03*
D14*
X261937500Y-73818750D03*
X268287500Y-71278750D03*
G04 #@! TD*
D13*
G04 #@! TO.C,S19*
X89217500Y-76358750D03*
D12*
X94297500Y-76358750D03*
D13*
X99377500Y-76358750D03*
D14*
X90487500Y-73818750D03*
X96837500Y-71278750D03*
G04 #@! TD*
D13*
G04 #@! TO.C,S7*
X136842500Y-57308750D03*
D12*
X141922500Y-57308750D03*
D13*
X147002500Y-57308750D03*
D14*
X138112500Y-54768750D03*
X144462500Y-52228750D03*
G04 #@! TD*
D13*
G04 #@! TO.C,S3*
X60642500Y-57308750D03*
D12*
X65722500Y-57308750D03*
D13*
X70802500Y-57308750D03*
D14*
X61912500Y-54768750D03*
X68262500Y-52228750D03*
G04 #@! TD*
D13*
G04 #@! TO.C,S53*
X236855000Y-114458750D03*
D12*
X241935000Y-114458750D03*
D13*
X247015000Y-114458750D03*
D14*
X238125000Y-111918750D03*
X244475000Y-109378750D03*
G04 #@! TD*
D13*
G04 #@! TO.C,S2*
X41592500Y-57308750D03*
D12*
X46672500Y-57308750D03*
D13*
X51752500Y-57308750D03*
D14*
X42862500Y-54768750D03*
X49212500Y-52228750D03*
G04 #@! TD*
D13*
G04 #@! TO.C,S43*
X34448750Y-114458750D03*
D12*
X39528750Y-114458750D03*
D13*
X44608750Y-114458750D03*
D14*
X35718750Y-111918750D03*
X42068750Y-109378750D03*
G04 #@! TD*
D13*
G04 #@! TO.C,S47*
X122555000Y-114458750D03*
D12*
X127635000Y-114458750D03*
D13*
X132715000Y-114458750D03*
D14*
X123825000Y-111918750D03*
X130175000Y-109378750D03*
G04 #@! TD*
D13*
G04 #@! TO.C,S23*
X165417500Y-76358750D03*
D12*
X170497500Y-76358750D03*
D13*
X175577500Y-76358750D03*
D14*
X166687500Y-73818750D03*
X173037500Y-71278750D03*
G04 #@! TD*
D13*
G04 #@! TO.C,S41*
X246380000Y-95408750D03*
D12*
X251460000Y-95408750D03*
D13*
X256540000Y-95408750D03*
D14*
X247650000Y-92868750D03*
X254000000Y-90328750D03*
G04 #@! TD*
D13*
G04 #@! TO.C,S26*
X222567500Y-76358750D03*
D12*
X227647500Y-76358750D03*
D13*
X232727500Y-76358750D03*
D14*
X223837500Y-73818750D03*
X230187500Y-71278750D03*
G04 #@! TD*
D13*
G04 #@! TO.C,S18*
X70167500Y-76358750D03*
D12*
X75247500Y-76358750D03*
D13*
X80327500Y-76358750D03*
D14*
X71437500Y-73818750D03*
X77787500Y-71278750D03*
G04 #@! TD*
D13*
G04 #@! TO.C,S79*
X317817500Y-133508750D03*
D12*
X322897500Y-133508750D03*
D13*
X327977500Y-133508750D03*
D14*
X319087500Y-130968750D03*
X325437500Y-128428750D03*
G04 #@! TD*
D13*
G04 #@! TO.C,S37*
X170180000Y-95408750D03*
D12*
X175260000Y-95408750D03*
D13*
X180340000Y-95408750D03*
D14*
X171450000Y-92868750D03*
X177800000Y-90328750D03*
G04 #@! TD*
D13*
G04 #@! TO.C,S8*
X155892500Y-57308750D03*
D12*
X160972500Y-57308750D03*
D13*
X166052500Y-57308750D03*
D14*
X157162500Y-54768750D03*
X163512500Y-52228750D03*
G04 #@! TD*
D13*
G04 #@! TO.C,S35*
X132080000Y-95408750D03*
D12*
X137160000Y-95408750D03*
D13*
X142240000Y-95408750D03*
D14*
X133350000Y-92868750D03*
X139700000Y-90328750D03*
G04 #@! TD*
D13*
G04 #@! TO.C,S45*
X84455000Y-114458750D03*
D12*
X89535000Y-114458750D03*
D13*
X94615000Y-114458750D03*
D14*
X85725000Y-111918750D03*
X92075000Y-109378750D03*
G04 #@! TD*
D13*
G04 #@! TO.C,S86*
X384333750Y-114458750D03*
D12*
X389413750Y-114458750D03*
D13*
X394493750Y-114458750D03*
D14*
X385603750Y-111918750D03*
X391953750Y-109378750D03*
G04 #@! TD*
D13*
G04 #@! TO.C,S13*
X251142500Y-57308750D03*
D12*
X256222500Y-57308750D03*
D13*
X261302500Y-57308750D03*
D14*
X252412500Y-54768750D03*
X258762500Y-52228750D03*
G04 #@! TD*
D13*
G04 #@! TO.C,S11*
X213042500Y-57308750D03*
D12*
X218122500Y-57308750D03*
D13*
X223202500Y-57308750D03*
D14*
X214312500Y-54768750D03*
X220662500Y-52228750D03*
G04 #@! TD*
D13*
G04 #@! TO.C,S38*
X189230000Y-95408750D03*
D12*
X194310000Y-95408750D03*
D13*
X199390000Y-95408750D03*
D14*
X190500000Y-92868750D03*
X196850000Y-90328750D03*
G04 #@! TD*
D13*
G04 #@! TO.C,S31*
X55880000Y-95408750D03*
D12*
X60960000Y-95408750D03*
D13*
X66040000Y-95408750D03*
D14*
X57150000Y-92868750D03*
X63500000Y-90328750D03*
G04 #@! TD*
D13*
G04 #@! TO.C,S50*
X179705000Y-114458750D03*
D12*
X184785000Y-114458750D03*
D13*
X189865000Y-114458750D03*
D14*
X180975000Y-111918750D03*
X187325000Y-109378750D03*
G04 #@! TD*
D13*
G04 #@! TO.C,S30*
X29686250Y-95408750D03*
D12*
X34766250Y-95408750D03*
D13*
X39846250Y-95408750D03*
D14*
X30956250Y-92868750D03*
X37306250Y-90328750D03*
G04 #@! TD*
D13*
G04 #@! TO.C,S42*
X277336250Y-95408750D03*
D12*
X282416250Y-95408750D03*
D13*
X287496250Y-95408750D03*
D14*
X278606250Y-92868750D03*
X284956250Y-90328750D03*
G04 #@! TD*
D13*
G04 #@! TO.C,S83*
X317817500Y-57308750D03*
D12*
X322897500Y-57308750D03*
D13*
X327977500Y-57308750D03*
D14*
X319087500Y-54768750D03*
X325437500Y-52228750D03*
G04 #@! TD*
D13*
G04 #@! TO.C,S5*
X98742500Y-57308750D03*
D12*
X103822500Y-57308750D03*
D13*
X108902500Y-57308750D03*
D14*
X100012500Y-54768750D03*
X106362500Y-52228750D03*
G04 #@! TD*
D13*
G04 #@! TO.C,S63*
X24923750Y-133508750D03*
D12*
X30003750Y-133508750D03*
D13*
X35083750Y-133508750D03*
D14*
X26193750Y-130968750D03*
X32543750Y-128428750D03*
G04 #@! TD*
D13*
G04 #@! TO.C,S36*
X151130000Y-95408750D03*
D12*
X156210000Y-95408750D03*
D13*
X161290000Y-95408750D03*
D14*
X152400000Y-92868750D03*
X158750000Y-90328750D03*
G04 #@! TD*
D13*
G04 #@! TO.C,S10*
X193992500Y-57308750D03*
D12*
X199072500Y-57308750D03*
D13*
X204152500Y-57308750D03*
D14*
X195262500Y-54768750D03*
X201612500Y-52228750D03*
G04 #@! TD*
D13*
G04 #@! TO.C,S44*
X65405000Y-114458750D03*
D12*
X70485000Y-114458750D03*
D13*
X75565000Y-114458750D03*
D14*
X66675000Y-111918750D03*
X73025000Y-109378750D03*
G04 #@! TD*
D13*
G04 #@! TO.C,S32*
X74930000Y-95408750D03*
D12*
X80010000Y-95408750D03*
D13*
X85090000Y-95408750D03*
D14*
X76200000Y-92868750D03*
X82550000Y-90328750D03*
G04 #@! TD*
D13*
G04 #@! TO.C,S29*
X284480000Y-76358750D03*
D12*
X289560000Y-76358750D03*
D13*
X294640000Y-76358750D03*
D14*
X285750000Y-73818750D03*
X292100000Y-71278750D03*
G04 #@! TD*
D13*
G04 #@! TO.C,S4*
X79692500Y-57308750D03*
D12*
X84772500Y-57308750D03*
D13*
X89852500Y-57308750D03*
D14*
X80962500Y-54768750D03*
X87312500Y-52228750D03*
G04 #@! TD*
D13*
G04 #@! TO.C,S12*
X232092500Y-57308750D03*
D12*
X237172500Y-57308750D03*
D13*
X242252500Y-57308750D03*
D14*
X233362500Y-54768750D03*
X239712500Y-52228750D03*
G04 #@! TD*
D13*
G04 #@! TO.C,S15*
X289242500Y-57308750D03*
D12*
X294322500Y-57308750D03*
D13*
X299402500Y-57308750D03*
D14*
X290512500Y-54768750D03*
X296862500Y-52228750D03*
G04 #@! TD*
D13*
G04 #@! TO.C,S84*
X336867500Y-57308750D03*
D12*
X341947500Y-57308750D03*
D13*
X347027500Y-57308750D03*
D14*
X338137500Y-54768750D03*
X344487500Y-52228750D03*
G04 #@! TD*
D13*
G04 #@! TO.C,S87*
X384492500Y-133508750D03*
D12*
X389572500Y-133508750D03*
D13*
X394652500Y-133508750D03*
D14*
X385762500Y-130968750D03*
X392112500Y-128428750D03*
G04 #@! TD*
D13*
G04 #@! TO.C,S66*
X143986250Y-133508750D03*
D12*
X149066250Y-133508750D03*
D13*
X154146250Y-133508750D03*
D14*
X145256250Y-130968750D03*
X151606250Y-128428750D03*
G04 #@! TD*
D13*
G04 #@! TO.C,S27*
X241617500Y-76358750D03*
D12*
X246697500Y-76358750D03*
D13*
X251777500Y-76358750D03*
D14*
X242887500Y-73818750D03*
X249237500Y-71278750D03*
G04 #@! TD*
D13*
G04 #@! TO.C,S17*
X51117500Y-76358750D03*
D12*
X56197500Y-76358750D03*
D13*
X61277500Y-76358750D03*
D14*
X52387500Y-73818750D03*
X58737500Y-71278750D03*
G04 #@! TD*
D13*
G04 #@! TO.C,S65*
X72548750Y-133508750D03*
D12*
X77628750Y-133508750D03*
D13*
X82708750Y-133508750D03*
D14*
X73818750Y-130968750D03*
X80168750Y-128428750D03*
G04 #@! TD*
D13*
G04 #@! TO.C,S76*
X238918750Y-133508750D03*
D12*
X243998750Y-133508750D03*
D13*
X249078750Y-133508750D03*
D14*
X240188750Y-130968750D03*
X246538750Y-128428750D03*
G04 #@! TD*
D13*
G04 #@! TO.C,S25*
X203517500Y-76358750D03*
D12*
X208597500Y-76358750D03*
D13*
X213677500Y-76358750D03*
D14*
X204787500Y-73818750D03*
X211137500Y-71278750D03*
G04 #@! TD*
D13*
G04 #@! TO.C,S52*
X217805000Y-114458750D03*
D12*
X222885000Y-114458750D03*
D13*
X227965000Y-114458750D03*
D14*
X219075000Y-111918750D03*
X225425000Y-109378750D03*
G04 #@! TD*
D13*
G04 #@! TO.C,S33*
X93980000Y-95408750D03*
D12*
X99060000Y-95408750D03*
D13*
X104140000Y-95408750D03*
D14*
X95250000Y-92868750D03*
X101600000Y-90328750D03*
G04 #@! TD*
D13*
G04 #@! TO.C,S85*
X355917500Y-57308750D03*
D12*
X360997500Y-57308750D03*
D13*
X366077500Y-57308750D03*
D14*
X357187500Y-54768750D03*
X363537500Y-52228750D03*
G04 #@! TD*
D13*
G04 #@! TO.C,S48*
X141605000Y-114458750D03*
D12*
X146685000Y-114458750D03*
D13*
X151765000Y-114458750D03*
D14*
X142875000Y-111918750D03*
X149225000Y-109378750D03*
G04 #@! TD*
D13*
G04 #@! TO.C,S64*
X48736250Y-133508750D03*
D12*
X53816250Y-133508750D03*
D13*
X58896250Y-133508750D03*
D14*
X50006250Y-130968750D03*
X56356250Y-128428750D03*
G04 #@! TD*
D13*
G04 #@! TO.C,S1*
X22542500Y-57308750D03*
D12*
X27622500Y-57308750D03*
D13*
X32702500Y-57308750D03*
D14*
X23812500Y-54768750D03*
X30162500Y-52228750D03*
G04 #@! TD*
D13*
G04 #@! TO.C,S81*
X355917500Y-133508750D03*
D12*
X360997500Y-133508750D03*
D13*
X366077500Y-133508750D03*
D14*
X357187500Y-130968750D03*
X363537500Y-128428750D03*
G04 #@! TD*
D13*
G04 #@! TO.C,S51*
X198755000Y-114458750D03*
D12*
X203835000Y-114458750D03*
D13*
X208915000Y-114458750D03*
D14*
X200025000Y-111918750D03*
X206375000Y-109378750D03*
G04 #@! TD*
D13*
G04 #@! TO.C,S62*
X272573750Y-114458750D03*
D12*
X277653750Y-114458750D03*
D13*
X282733750Y-114458750D03*
D14*
X273843750Y-111918750D03*
X280193750Y-109378750D03*
G04 #@! TD*
D13*
G04 #@! TO.C,S80*
X336867500Y-133508750D03*
D12*
X341947500Y-133508750D03*
D13*
X347027500Y-133508750D03*
D14*
X338137500Y-130968750D03*
X344487500Y-128428750D03*
G04 #@! TD*
D25*
G04 #@! TO.C,D23*
X180022500Y-80168750D03*
D26*
X180022500Y-72548750D03*
G04 #@! TD*
D25*
G04 #@! TO.C,D83*
X332422500Y-61118750D03*
D26*
X332422500Y-53498750D03*
G04 #@! TD*
D25*
G04 #@! TO.C,D40*
X241935000Y-99218750D03*
D26*
X241935000Y-91598750D03*
G04 #@! TD*
D25*
G04 #@! TO.C,D11*
X227647500Y-61118750D03*
D26*
X227647500Y-53498750D03*
G04 #@! TD*
D25*
G04 #@! TO.C,D79*
X332422500Y-137318750D03*
D26*
X332422500Y-129698750D03*
G04 #@! TD*
D25*
G04 #@! TO.C,D84*
X351472500Y-61118750D03*
D26*
X351472500Y-53498750D03*
G04 #@! TD*
D25*
G04 #@! TO.C,D50*
X194310000Y-118268750D03*
D26*
X194310000Y-110648750D03*
G04 #@! TD*
D25*
G04 #@! TO.C,D66*
X158591250Y-137318750D03*
D26*
X158591250Y-129698750D03*
G04 #@! TD*
D25*
G04 #@! TO.C,D16*
X41910000Y-80168750D03*
D26*
X41910000Y-72548750D03*
G04 #@! TD*
D25*
G04 #@! TO.C,D6*
X132397500Y-60166250D03*
D26*
X132397500Y-52546250D03*
G04 #@! TD*
D25*
G04 #@! TO.C,D15*
X303847500Y-61118750D03*
D26*
X303847500Y-53498750D03*
G04 #@! TD*
D25*
G04 #@! TO.C,D64*
X63341250Y-136366250D03*
D26*
X63341250Y-128746250D03*
G04 #@! TD*
D25*
G04 #@! TO.C,D46*
X118110000Y-118268750D03*
D26*
X118110000Y-110648750D03*
G04 #@! TD*
D25*
G04 #@! TO.C,D38*
X203835000Y-99218750D03*
D26*
X203835000Y-91598750D03*
G04 #@! TD*
D25*
G04 #@! TO.C,D24*
X199072500Y-80168750D03*
D26*
X199072500Y-72548750D03*
G04 #@! TD*
D25*
G04 #@! TO.C,D32*
X89535000Y-99218750D03*
D26*
X89535000Y-91598750D03*
G04 #@! TD*
D25*
G04 #@! TO.C,D34*
X127635000Y-99218750D03*
D26*
X127635000Y-91598750D03*
G04 #@! TD*
D25*
G04 #@! TO.C,D3*
X75247500Y-61118750D03*
D26*
X75247500Y-53498750D03*
G04 #@! TD*
D25*
G04 #@! TO.C,D39*
X222885000Y-99218750D03*
D26*
X222885000Y-91598750D03*
G04 #@! TD*
D25*
G04 #@! TO.C,D20*
X122872500Y-80168750D03*
D26*
X122872500Y-72548750D03*
G04 #@! TD*
D25*
G04 #@! TO.C,D42*
X291941250Y-99218750D03*
D26*
X291941250Y-91598750D03*
G04 #@! TD*
D25*
G04 #@! TO.C,D2*
X56197500Y-60166250D03*
D26*
X56197500Y-52546250D03*
G04 #@! TD*
D25*
G04 #@! TO.C,D52*
X232410000Y-118268750D03*
D26*
X232410000Y-110648750D03*
G04 #@! TD*
D25*
G04 #@! TO.C,D33*
X108585000Y-99218750D03*
D26*
X108585000Y-91598750D03*
G04 #@! TD*
D25*
G04 #@! TO.C,D76*
X253841250Y-137318750D03*
D26*
X253841250Y-129698750D03*
G04 #@! TD*
D25*
G04 #@! TO.C,D44*
X80010000Y-118268750D03*
D26*
X80010000Y-110648750D03*
G04 #@! TD*
D25*
G04 #@! TO.C,D36*
X165735000Y-99218750D03*
D26*
X165735000Y-91598750D03*
G04 #@! TD*
D25*
G04 #@! TO.C,D87*
X393382500Y-143033750D03*
D26*
X385762500Y-143033750D03*
G04 #@! TD*
D25*
G04 #@! TO.C,D26*
X237172500Y-79216250D03*
D26*
X237172500Y-71596250D03*
G04 #@! TD*
D25*
G04 #@! TO.C,D21*
X141922500Y-80168750D03*
D26*
X141922500Y-72548750D03*
G04 #@! TD*
D25*
G04 #@! TO.C,D53*
X251460000Y-118268750D03*
D26*
X251460000Y-110648750D03*
G04 #@! TD*
D25*
G04 #@! TO.C,D86*
X393382500Y-123983750D03*
D26*
X385762500Y-123983750D03*
G04 #@! TD*
D25*
G04 #@! TO.C,D62*
X287178750Y-118268750D03*
D26*
X287178750Y-110648750D03*
G04 #@! TD*
D25*
G04 #@! TO.C,D37*
X184785000Y-99218750D03*
D26*
X184785000Y-91598750D03*
G04 #@! TD*
D25*
G04 #@! TO.C,D81*
X370522500Y-137318750D03*
D26*
X370522500Y-129698750D03*
G04 #@! TD*
D25*
G04 #@! TO.C,D47*
X137160000Y-118268750D03*
D26*
X137160000Y-110648750D03*
G04 #@! TD*
D25*
G04 #@! TO.C,D9*
X189547500Y-61118750D03*
D26*
X189547500Y-53498750D03*
G04 #@! TD*
D25*
G04 #@! TO.C,D17*
X65722500Y-80168750D03*
D26*
X65722500Y-72548750D03*
G04 #@! TD*
D25*
G04 #@! TO.C,D4*
X94297500Y-60166250D03*
D26*
X94297500Y-52546250D03*
G04 #@! TD*
D25*
G04 #@! TO.C,D41*
X260985000Y-99218750D03*
D26*
X260985000Y-91598750D03*
G04 #@! TD*
D25*
G04 #@! TO.C,D1*
X37147500Y-61118750D03*
D26*
X37147500Y-53498750D03*
G04 #@! TD*
D25*
G04 #@! TO.C,D45*
X99060000Y-118268750D03*
D26*
X99060000Y-110648750D03*
G04 #@! TD*
D25*
G04 #@! TO.C,D82*
X351472500Y-117316250D03*
D26*
X351472500Y-109696250D03*
G04 #@! TD*
D25*
G04 #@! TO.C,D18*
X84772500Y-80168750D03*
D26*
X84772500Y-72548750D03*
G04 #@! TD*
D25*
G04 #@! TO.C,D14*
X284797500Y-61118750D03*
D26*
X284797500Y-53498750D03*
G04 #@! TD*
D25*
G04 #@! TO.C,D51*
X213360000Y-118268750D03*
D26*
X213360000Y-110648750D03*
G04 #@! TD*
D25*
G04 #@! TO.C,D28*
X275272500Y-80168750D03*
D26*
X275272500Y-72548750D03*
G04 #@! TD*
D25*
G04 #@! TO.C,D48*
X156210000Y-118268750D03*
D26*
X156210000Y-110648750D03*
G04 #@! TD*
D25*
G04 #@! TO.C,D19*
X103822500Y-80168750D03*
D26*
X103822500Y-72548750D03*
G04 #@! TD*
D25*
G04 #@! TO.C,D75*
X230028750Y-137318750D03*
D26*
X230028750Y-129698750D03*
G04 #@! TD*
D25*
G04 #@! TO.C,D43*
X49053750Y-118268750D03*
D26*
X49053750Y-110648750D03*
G04 #@! TD*
D25*
G04 #@! TO.C,D7*
X151447500Y-61118750D03*
D26*
X151447500Y-53498750D03*
G04 #@! TD*
D25*
G04 #@! TO.C,D30*
X44291250Y-99218750D03*
D26*
X44291250Y-91598750D03*
G04 #@! TD*
D25*
G04 #@! TO.C,D85*
X370522500Y-61118750D03*
D26*
X370522500Y-53498750D03*
G04 #@! TD*
D25*
G04 #@! TO.C,D80*
X351472500Y-136366250D03*
D26*
X351472500Y-128746250D03*
G04 #@! TD*
D25*
G04 #@! TO.C,D63*
X39528750Y-136366250D03*
D26*
X39528750Y-128746250D03*
G04 #@! TD*
D25*
G04 #@! TO.C,D8*
X170497500Y-61118750D03*
D26*
X170497500Y-53498750D03*
G04 #@! TD*
D25*
G04 #@! TO.C,D77*
X275272500Y-137318750D03*
D26*
X275272500Y-129698750D03*
G04 #@! TD*
D25*
G04 #@! TO.C,D65*
X87153750Y-137318750D03*
D26*
X87153750Y-129698750D03*
G04 #@! TD*
D25*
G04 #@! TO.C,D27*
X256222500Y-80168750D03*
D26*
X256222500Y-72548750D03*
G04 #@! TD*
D25*
G04 #@! TO.C,D78*
X299085000Y-137318750D03*
D26*
X299085000Y-129698750D03*
G04 #@! TD*
D25*
G04 #@! TO.C,D25*
X218122500Y-80168750D03*
D26*
X218122500Y-72548750D03*
G04 #@! TD*
D25*
G04 #@! TO.C,D12*
X246697500Y-61118750D03*
D26*
X246697500Y-53498750D03*
G04 #@! TD*
D25*
G04 #@! TO.C,D5*
X113347500Y-60166250D03*
D26*
X113347500Y-52546250D03*
G04 #@! TD*
D25*
G04 #@! TO.C,D29*
X299085000Y-80168750D03*
D26*
X299085000Y-72548750D03*
G04 #@! TD*
D25*
G04 #@! TO.C,D31*
X70485000Y-99218750D03*
D26*
X70485000Y-91598750D03*
G04 #@! TD*
D25*
G04 #@! TO.C,D49*
X175260000Y-118268750D03*
D26*
X175260000Y-110648750D03*
G04 #@! TD*
D25*
G04 #@! TO.C,D35*
X146685000Y-99218750D03*
D26*
X146685000Y-91598750D03*
G04 #@! TD*
D25*
G04 #@! TO.C,D22*
X160972500Y-80168750D03*
D26*
X160972500Y-72548750D03*
G04 #@! TD*
D25*
G04 #@! TO.C,D13*
X265747500Y-60166250D03*
D26*
X265747500Y-52546250D03*
G04 #@! TD*
D25*
G04 #@! TO.C,D10*
X208597500Y-61118750D03*
D26*
X208597500Y-53498750D03*
G04 #@! TD*
M02*
