G04 #@! TF.GenerationSoftware,KiCad,Pcbnew,10.0.5*
G04 #@! TF.CreationDate,2026-08-20T14:56:18+03:00*
G04 #@! TF.ProjectId,keeb,6b656562-2e6b-4696-9361-645f70636258,rev?*
G04 #@! TF.SameCoordinates,Original*
G04 #@! TF.FileFunction,Legend,Bot*
G04 #@! TF.FilePolarity,Positive*
%FSLAX46Y46*%
G04 Gerber Fmt 4.6, Leading zero omitted, Abs format (unit mm)*
G04 Created by KiCad (PCBNEW 10.0.5) date 2026-08-20 14:56:18*
%MOMM*%
%LPD*%
G01*
G04 APERTURE LIST*
G04 Aperture macros list*
%AMRoundRect*
0 Rectangle with rounded corners*
0 $1 Rounding radius*
0 $2 $3 $4 $5 $6 $7 $8 $9 X,Y pos of 4 corners*
0 Add a 4 corners polygon primitive as box body*
4,1,4,$2,$3,$4,$5,$6,$7,$8,$9,$2,$3,0*
0 Add four circle primitives for the rounded corners*
1,1,$1+$1,$2,$3*
1,1,$1+$1,$4,$5*
1,1,$1+$1,$6,$7*
1,1,$1+$1,$8,$9*
0 Add four rect primitives between the rounded corners*
20,1,$1+$1,$2,$3,$4,$5,0*
20,1,$1+$1,$4,$5,$6,$7,0*
20,1,$1+$1,$6,$7,$8,$9,0*
20,1,$1+$1,$8,$9,$2,$3,0*%
%AMFreePoly0*
4,1,37,0.603843,0.796157,0.639018,0.796157,0.711114,0.766294,0.766294,0.711114,0.796157,0.639018,0.796157,0.603843,0.800000,0.600000,0.800000,-0.600000,0.796157,-0.603843,0.796157,-0.639018,0.766294,-0.711114,0.711114,-0.766294,0.639018,-0.796157,0.603843,-0.796157,0.600000,-0.800000,0.000000,-0.800000,0.000000,-0.796148,-0.078414,-0.796148,-0.232228,-0.765552,-0.377117,-0.705537,
-0.507515,-0.618408,-0.618408,-0.507515,-0.705537,-0.377117,-0.765552,-0.232228,-0.796148,-0.078414,-0.796148,0.078414,-0.765552,0.232228,-0.705537,0.377117,-0.618408,0.507515,-0.507515,0.618408,-0.377117,0.705537,-0.232228,0.765552,-0.078414,0.796148,0.000000,0.796148,0.000000,0.800000,0.600000,0.800000,0.603843,0.796157,0.603843,0.796157,$1*%
%AMFreePoly1*
4,1,37,0.000000,0.796148,0.078414,0.796148,0.232228,0.765552,0.377117,0.705537,0.507515,0.618408,0.618408,0.507515,0.705537,0.377117,0.765552,0.232228,0.796148,0.078414,0.796148,-0.078414,0.765552,-0.232228,0.705537,-0.377117,0.618408,-0.507515,0.507515,-0.618408,0.377117,-0.705537,0.232228,-0.765552,0.078414,-0.796148,0.000000,-0.796148,0.000000,-0.800000,-0.600000,-0.800000,
-0.603843,-0.796157,-0.639018,-0.796157,-0.711114,-0.766294,-0.766294,-0.711114,-0.796157,-0.639018,-0.796157,-0.603843,-0.800000,-0.600000,-0.800000,0.600000,-0.796157,0.603843,-0.796157,0.639018,-0.766294,0.711114,-0.711114,0.766294,-0.639018,0.796157,-0.603843,0.796157,-0.600000,0.800000,0.000000,0.800000,0.000000,0.796148,0.000000,0.796148,$1*%
G04 Aperture macros list end*
%ADD10C,0.150000*%
%ADD11C,0.100000*%
%ADD12C,3.048000*%
%ADD13C,3.987800*%
%ADD14C,4.000000*%
%ADD15C,1.750000*%
%ADD16C,2.500000*%
%ADD17C,2.200000*%
%ADD18C,1.850000*%
%ADD19RoundRect,0.200000X-0.600000X0.600000X-0.600000X-0.600000X0.600000X-0.600000X0.600000X0.600000X0*%
%ADD20C,1.600000*%
%ADD21FreePoly0,270.000000*%
%ADD22FreePoly1,270.000000*%
%ADD23C,1.500000*%
%ADD24R,2.000000X2.000000*%
%ADD25C,2.000000*%
%ADD26R,3.200000X2.000000*%
%ADD27R,1.600000X1.600000*%
%ADD28O,1.600000X1.600000*%
G04 APERTURE END LIST*
D10*
X347969645Y-99690089D02*
X347969645Y-99213899D01*
X347683930Y-99785327D02*
X348683930Y-99451994D01*
X348683930Y-99451994D02*
X347683930Y-99118661D01*
X347683930Y-98261518D02*
X347683930Y-98832946D01*
X347683930Y-98547232D02*
X348683930Y-98547232D01*
X348683930Y-98547232D02*
X348541073Y-98642470D01*
X348541073Y-98642470D02*
X348445835Y-98737708D01*
X348445835Y-98737708D02*
X348398216Y-98832946D01*
G04 #@! TO.C,D23*
D11*
X179622500Y-76108750D02*
X180022500Y-76708750D01*
X180022500Y-76108750D02*
X180022500Y-75608750D01*
X180022500Y-76708750D02*
X180422500Y-76108750D01*
X180022500Y-77108750D02*
X180022500Y-76708750D01*
X180422500Y-76108750D02*
X179622500Y-76108750D01*
X180572500Y-76708750D02*
X179472500Y-76708750D01*
G04 #@! TO.C,D83*
X332022500Y-57058750D02*
X332422500Y-57658750D01*
X332422500Y-57058750D02*
X332422500Y-56558750D01*
X332422500Y-57658750D02*
X332822500Y-57058750D01*
X332422500Y-58058750D02*
X332422500Y-57658750D01*
X332822500Y-57058750D02*
X332022500Y-57058750D01*
X332972500Y-57658750D02*
X331872500Y-57658750D01*
G04 #@! TO.C,D40*
X241535000Y-95158750D02*
X241935000Y-95758750D01*
X241935000Y-95158750D02*
X241935000Y-94658750D01*
X241935000Y-95758750D02*
X242335000Y-95158750D01*
X241935000Y-96158750D02*
X241935000Y-95758750D01*
X242335000Y-95158750D02*
X241535000Y-95158750D01*
X242485000Y-95758750D02*
X241385000Y-95758750D01*
G04 #@! TO.C,D11*
X227247500Y-57058750D02*
X227647500Y-57658750D01*
X227647500Y-57058750D02*
X227647500Y-56558750D01*
X227647500Y-57658750D02*
X228047500Y-57058750D01*
X227647500Y-58058750D02*
X227647500Y-57658750D01*
X228047500Y-57058750D02*
X227247500Y-57058750D01*
X228197500Y-57658750D02*
X227097500Y-57658750D01*
G04 #@! TO.C,D79*
X332022500Y-133258750D02*
X332422500Y-133858750D01*
X332422500Y-133258750D02*
X332422500Y-132758750D01*
X332422500Y-133858750D02*
X332822500Y-133258750D01*
X332422500Y-134258750D02*
X332422500Y-133858750D01*
X332822500Y-133258750D02*
X332022500Y-133258750D01*
X332972500Y-133858750D02*
X331872500Y-133858750D01*
G04 #@! TO.C,D84*
X351072500Y-57058750D02*
X351472500Y-57658750D01*
X351472500Y-57058750D02*
X351472500Y-56558750D01*
X351472500Y-57658750D02*
X351872500Y-57058750D01*
X351472500Y-58058750D02*
X351472500Y-57658750D01*
X351872500Y-57058750D02*
X351072500Y-57058750D01*
X352022500Y-57658750D02*
X350922500Y-57658750D01*
G04 #@! TO.C,D50*
X193910000Y-114208750D02*
X194310000Y-114808750D01*
X194310000Y-114208750D02*
X194310000Y-113708750D01*
X194310000Y-114808750D02*
X194710000Y-114208750D01*
X194310000Y-115208750D02*
X194310000Y-114808750D01*
X194710000Y-114208750D02*
X193910000Y-114208750D01*
X194860000Y-114808750D02*
X193760000Y-114808750D01*
G04 #@! TO.C,D66*
X158191250Y-133258750D02*
X158591250Y-133858750D01*
X158591250Y-133258750D02*
X158591250Y-132758750D01*
X158591250Y-133858750D02*
X158991250Y-133258750D01*
X158591250Y-134258750D02*
X158591250Y-133858750D01*
X158991250Y-133258750D02*
X158191250Y-133258750D01*
X159141250Y-133858750D02*
X158041250Y-133858750D01*
G04 #@! TO.C,D16*
X41510000Y-76108750D02*
X41910000Y-76708750D01*
X41910000Y-76108750D02*
X41910000Y-75608750D01*
X41910000Y-76708750D02*
X42310000Y-76108750D01*
X41910000Y-77108750D02*
X41910000Y-76708750D01*
X42310000Y-76108750D02*
X41510000Y-76108750D01*
X42460000Y-76708750D02*
X41360000Y-76708750D01*
G04 #@! TO.C,D6*
X131997500Y-56106250D02*
X132397500Y-56706250D01*
X132397500Y-56106250D02*
X132397500Y-55606250D01*
X132397500Y-56706250D02*
X132797500Y-56106250D01*
X132397500Y-57106250D02*
X132397500Y-56706250D01*
X132797500Y-56106250D02*
X131997500Y-56106250D01*
X132947500Y-56706250D02*
X131847500Y-56706250D01*
G04 #@! TO.C,D15*
X303447500Y-57058750D02*
X303847500Y-57658750D01*
X303847500Y-57058750D02*
X303847500Y-56558750D01*
X303847500Y-57658750D02*
X304247500Y-57058750D01*
X303847500Y-58058750D02*
X303847500Y-57658750D01*
X304247500Y-57058750D02*
X303447500Y-57058750D01*
X304397500Y-57658750D02*
X303297500Y-57658750D01*
G04 #@! TO.C,D64*
X62941250Y-132306250D02*
X63341250Y-132906250D01*
X63341250Y-132306250D02*
X63341250Y-131806250D01*
X63341250Y-132906250D02*
X63741250Y-132306250D01*
X63341250Y-133306250D02*
X63341250Y-132906250D01*
X63741250Y-132306250D02*
X62941250Y-132306250D01*
X63891250Y-132906250D02*
X62791250Y-132906250D01*
G04 #@! TO.C,D46*
X117710000Y-114208750D02*
X118110000Y-114808750D01*
X118110000Y-114208750D02*
X118110000Y-113708750D01*
X118110000Y-114808750D02*
X118510000Y-114208750D01*
X118110000Y-115208750D02*
X118110000Y-114808750D01*
X118510000Y-114208750D02*
X117710000Y-114208750D01*
X118660000Y-114808750D02*
X117560000Y-114808750D01*
G04 #@! TO.C,D38*
X203435000Y-95158750D02*
X203835000Y-95758750D01*
X203835000Y-95158750D02*
X203835000Y-94658750D01*
X203835000Y-95758750D02*
X204235000Y-95158750D01*
X203835000Y-96158750D02*
X203835000Y-95758750D01*
X204235000Y-95158750D02*
X203435000Y-95158750D01*
X204385000Y-95758750D02*
X203285000Y-95758750D01*
G04 #@! TO.C,D24*
X198672500Y-76108750D02*
X199072500Y-76708750D01*
X199072500Y-76108750D02*
X199072500Y-75608750D01*
X199072500Y-76708750D02*
X199472500Y-76108750D01*
X199072500Y-77108750D02*
X199072500Y-76708750D01*
X199472500Y-76108750D02*
X198672500Y-76108750D01*
X199622500Y-76708750D02*
X198522500Y-76708750D01*
G04 #@! TO.C,D32*
X89135000Y-95158750D02*
X89535000Y-95758750D01*
X89535000Y-95158750D02*
X89535000Y-94658750D01*
X89535000Y-95758750D02*
X89935000Y-95158750D01*
X89535000Y-96158750D02*
X89535000Y-95758750D01*
X89935000Y-95158750D02*
X89135000Y-95158750D01*
X90085000Y-95758750D02*
X88985000Y-95758750D01*
G04 #@! TO.C,D34*
X127235000Y-95158750D02*
X127635000Y-95758750D01*
X127635000Y-95158750D02*
X127635000Y-94658750D01*
X127635000Y-95758750D02*
X128035000Y-95158750D01*
X127635000Y-96158750D02*
X127635000Y-95758750D01*
X128035000Y-95158750D02*
X127235000Y-95158750D01*
X128185000Y-95758750D02*
X127085000Y-95758750D01*
G04 #@! TO.C,D3*
X74847500Y-57058750D02*
X75247500Y-57658750D01*
X75247500Y-57058750D02*
X75247500Y-56558750D01*
X75247500Y-57658750D02*
X75647500Y-57058750D01*
X75247500Y-58058750D02*
X75247500Y-57658750D01*
X75647500Y-57058750D02*
X74847500Y-57058750D01*
X75797500Y-57658750D02*
X74697500Y-57658750D01*
G04 #@! TO.C,D39*
X222485000Y-95158750D02*
X222885000Y-95758750D01*
X222885000Y-95158750D02*
X222885000Y-94658750D01*
X222885000Y-95758750D02*
X223285000Y-95158750D01*
X222885000Y-96158750D02*
X222885000Y-95758750D01*
X223285000Y-95158750D02*
X222485000Y-95158750D01*
X223435000Y-95758750D02*
X222335000Y-95758750D01*
G04 #@! TO.C,D20*
X122472500Y-76108750D02*
X122872500Y-76708750D01*
X122872500Y-76108750D02*
X122872500Y-75608750D01*
X122872500Y-76708750D02*
X123272500Y-76108750D01*
X122872500Y-77108750D02*
X122872500Y-76708750D01*
X123272500Y-76108750D02*
X122472500Y-76108750D01*
X123422500Y-76708750D02*
X122322500Y-76708750D01*
G04 #@! TO.C,D42*
X291541250Y-95158750D02*
X291941250Y-95758750D01*
X291941250Y-95158750D02*
X291941250Y-94658750D01*
X291941250Y-95758750D02*
X292341250Y-95158750D01*
X291941250Y-96158750D02*
X291941250Y-95758750D01*
X292341250Y-95158750D02*
X291541250Y-95158750D01*
X292491250Y-95758750D02*
X291391250Y-95758750D01*
G04 #@! TO.C,D2*
X55797500Y-56106250D02*
X56197500Y-56706250D01*
X56197500Y-56106250D02*
X56197500Y-55606250D01*
X56197500Y-56706250D02*
X56597500Y-56106250D01*
X56197500Y-57106250D02*
X56197500Y-56706250D01*
X56597500Y-56106250D02*
X55797500Y-56106250D01*
X56747500Y-56706250D02*
X55647500Y-56706250D01*
G04 #@! TO.C,D52*
X232010000Y-114208750D02*
X232410000Y-114808750D01*
X232410000Y-114208750D02*
X232410000Y-113708750D01*
X232410000Y-114808750D02*
X232810000Y-114208750D01*
X232410000Y-115208750D02*
X232410000Y-114808750D01*
X232810000Y-114208750D02*
X232010000Y-114208750D01*
X232960000Y-114808750D02*
X231860000Y-114808750D01*
G04 #@! TO.C,D33*
X108185000Y-95158750D02*
X108585000Y-95758750D01*
X108585000Y-95158750D02*
X108585000Y-94658750D01*
X108585000Y-95758750D02*
X108985000Y-95158750D01*
X108585000Y-96158750D02*
X108585000Y-95758750D01*
X108985000Y-95158750D02*
X108185000Y-95158750D01*
X109135000Y-95758750D02*
X108035000Y-95758750D01*
G04 #@! TO.C,D76*
X253441250Y-133258750D02*
X253841250Y-133858750D01*
X253841250Y-133258750D02*
X253841250Y-132758750D01*
X253841250Y-133858750D02*
X254241250Y-133258750D01*
X253841250Y-134258750D02*
X253841250Y-133858750D01*
X254241250Y-133258750D02*
X253441250Y-133258750D01*
X254391250Y-133858750D02*
X253291250Y-133858750D01*
G04 #@! TO.C,D44*
X79610000Y-114208750D02*
X80010000Y-114808750D01*
X80010000Y-114208750D02*
X80010000Y-113708750D01*
X80010000Y-114808750D02*
X80410000Y-114208750D01*
X80010000Y-115208750D02*
X80010000Y-114808750D01*
X80410000Y-114208750D02*
X79610000Y-114208750D01*
X80560000Y-114808750D02*
X79460000Y-114808750D01*
G04 #@! TO.C,D36*
X165335000Y-95158750D02*
X165735000Y-95758750D01*
X165735000Y-95158750D02*
X165735000Y-94658750D01*
X165735000Y-95758750D02*
X166135000Y-95158750D01*
X165735000Y-96158750D02*
X165735000Y-95758750D01*
X166135000Y-95158750D02*
X165335000Y-95158750D01*
X166285000Y-95758750D02*
X165185000Y-95758750D01*
G04 #@! TO.C,D87*
X389322500Y-142633750D02*
X389322500Y-143433750D01*
X389322500Y-143033750D02*
X388822500Y-143033750D01*
X389322500Y-143433750D02*
X389922500Y-143033750D01*
X389922500Y-142483750D02*
X389922500Y-143583750D01*
X389922500Y-143033750D02*
X389322500Y-142633750D01*
X390322500Y-143033750D02*
X389922500Y-143033750D01*
G04 #@! TO.C,D26*
X236772500Y-75156250D02*
X237172500Y-75756250D01*
X237172500Y-75156250D02*
X237172500Y-74656250D01*
X237172500Y-75756250D02*
X237572500Y-75156250D01*
X237172500Y-76156250D02*
X237172500Y-75756250D01*
X237572500Y-75156250D02*
X236772500Y-75156250D01*
X237722500Y-75756250D02*
X236622500Y-75756250D01*
G04 #@! TO.C,D21*
X141522500Y-76108750D02*
X141922500Y-76708750D01*
X141922500Y-76108750D02*
X141922500Y-75608750D01*
X141922500Y-76708750D02*
X142322500Y-76108750D01*
X141922500Y-77108750D02*
X141922500Y-76708750D01*
X142322500Y-76108750D02*
X141522500Y-76108750D01*
X142472500Y-76708750D02*
X141372500Y-76708750D01*
G04 #@! TO.C,D53*
X251060000Y-114208750D02*
X251460000Y-114808750D01*
X251460000Y-114208750D02*
X251460000Y-113708750D01*
X251460000Y-114808750D02*
X251860000Y-114208750D01*
X251460000Y-115208750D02*
X251460000Y-114808750D01*
X251860000Y-114208750D02*
X251060000Y-114208750D01*
X252010000Y-114808750D02*
X250910000Y-114808750D01*
G04 #@! TO.C,D86*
X389322500Y-123583750D02*
X389322500Y-124383750D01*
X389322500Y-123983750D02*
X388822500Y-123983750D01*
X389322500Y-124383750D02*
X389922500Y-123983750D01*
X389922500Y-123433750D02*
X389922500Y-124533750D01*
X389922500Y-123983750D02*
X389322500Y-123583750D01*
X390322500Y-123983750D02*
X389922500Y-123983750D01*
G04 #@! TO.C,D62*
X286778750Y-114208750D02*
X287178750Y-114808750D01*
X287178750Y-114208750D02*
X287178750Y-113708750D01*
X287178750Y-114808750D02*
X287578750Y-114208750D01*
X287178750Y-115208750D02*
X287178750Y-114808750D01*
X287578750Y-114208750D02*
X286778750Y-114208750D01*
X287728750Y-114808750D02*
X286628750Y-114808750D01*
G04 #@! TO.C,D37*
X184385000Y-95158750D02*
X184785000Y-95758750D01*
X184785000Y-95158750D02*
X184785000Y-94658750D01*
X184785000Y-95758750D02*
X185185000Y-95158750D01*
X184785000Y-96158750D02*
X184785000Y-95758750D01*
X185185000Y-95158750D02*
X184385000Y-95158750D01*
X185335000Y-95758750D02*
X184235000Y-95758750D01*
G04 #@! TO.C,D81*
X370122500Y-133258750D02*
X370522500Y-133858750D01*
X370522500Y-133258750D02*
X370522500Y-132758750D01*
X370522500Y-133858750D02*
X370922500Y-133258750D01*
X370522500Y-134258750D02*
X370522500Y-133858750D01*
X370922500Y-133258750D02*
X370122500Y-133258750D01*
X371072500Y-133858750D02*
X369972500Y-133858750D01*
G04 #@! TO.C,D47*
X136760000Y-114208750D02*
X137160000Y-114808750D01*
X137160000Y-114208750D02*
X137160000Y-113708750D01*
X137160000Y-114808750D02*
X137560000Y-114208750D01*
X137160000Y-115208750D02*
X137160000Y-114808750D01*
X137560000Y-114208750D02*
X136760000Y-114208750D01*
X137710000Y-114808750D02*
X136610000Y-114808750D01*
G04 #@! TO.C,D9*
X189147500Y-57058750D02*
X189547500Y-57658750D01*
X189547500Y-57058750D02*
X189547500Y-56558750D01*
X189547500Y-57658750D02*
X189947500Y-57058750D01*
X189547500Y-58058750D02*
X189547500Y-57658750D01*
X189947500Y-57058750D02*
X189147500Y-57058750D01*
X190097500Y-57658750D02*
X188997500Y-57658750D01*
G04 #@! TO.C,D17*
X65322500Y-76108750D02*
X65722500Y-76708750D01*
X65722500Y-76108750D02*
X65722500Y-75608750D01*
X65722500Y-76708750D02*
X66122500Y-76108750D01*
X65722500Y-77108750D02*
X65722500Y-76708750D01*
X66122500Y-76108750D02*
X65322500Y-76108750D01*
X66272500Y-76708750D02*
X65172500Y-76708750D01*
G04 #@! TO.C,D4*
X93897500Y-56106250D02*
X94297500Y-56706250D01*
X94297500Y-56106250D02*
X94297500Y-55606250D01*
X94297500Y-56706250D02*
X94697500Y-56106250D01*
X94297500Y-57106250D02*
X94297500Y-56706250D01*
X94697500Y-56106250D02*
X93897500Y-56106250D01*
X94847500Y-56706250D02*
X93747500Y-56706250D01*
G04 #@! TO.C,D41*
X260585000Y-95158750D02*
X260985000Y-95758750D01*
X260985000Y-95158750D02*
X260985000Y-94658750D01*
X260985000Y-95758750D02*
X261385000Y-95158750D01*
X260985000Y-96158750D02*
X260985000Y-95758750D01*
X261385000Y-95158750D02*
X260585000Y-95158750D01*
X261535000Y-95758750D02*
X260435000Y-95758750D01*
G04 #@! TO.C,D1*
X36747500Y-57058750D02*
X37147500Y-57658750D01*
X37147500Y-57058750D02*
X37147500Y-56558750D01*
X37147500Y-57658750D02*
X37547500Y-57058750D01*
X37147500Y-58058750D02*
X37147500Y-57658750D01*
X37547500Y-57058750D02*
X36747500Y-57058750D01*
X37697500Y-57658750D02*
X36597500Y-57658750D01*
G04 #@! TO.C,D45*
X98660000Y-114208750D02*
X99060000Y-114808750D01*
X99060000Y-114208750D02*
X99060000Y-113708750D01*
X99060000Y-114808750D02*
X99460000Y-114208750D01*
X99060000Y-115208750D02*
X99060000Y-114808750D01*
X99460000Y-114208750D02*
X98660000Y-114208750D01*
X99610000Y-114808750D02*
X98510000Y-114808750D01*
G04 #@! TO.C,D82*
X351072500Y-113256250D02*
X351472500Y-113856250D01*
X351472500Y-113256250D02*
X351472500Y-112756250D01*
X351472500Y-113856250D02*
X351872500Y-113256250D01*
X351472500Y-114256250D02*
X351472500Y-113856250D01*
X351872500Y-113256250D02*
X351072500Y-113256250D01*
X352022500Y-113856250D02*
X350922500Y-113856250D01*
G04 #@! TO.C,D18*
X84372500Y-76108750D02*
X84772500Y-76708750D01*
X84772500Y-76108750D02*
X84772500Y-75608750D01*
X84772500Y-76708750D02*
X85172500Y-76108750D01*
X84772500Y-77108750D02*
X84772500Y-76708750D01*
X85172500Y-76108750D02*
X84372500Y-76108750D01*
X85322500Y-76708750D02*
X84222500Y-76708750D01*
G04 #@! TO.C,D14*
X284397500Y-57058750D02*
X284797500Y-57658750D01*
X284797500Y-57058750D02*
X284797500Y-56558750D01*
X284797500Y-57658750D02*
X285197500Y-57058750D01*
X284797500Y-58058750D02*
X284797500Y-57658750D01*
X285197500Y-57058750D02*
X284397500Y-57058750D01*
X285347500Y-57658750D02*
X284247500Y-57658750D01*
G04 #@! TO.C,D51*
X212960000Y-114208750D02*
X213360000Y-114808750D01*
X213360000Y-114208750D02*
X213360000Y-113708750D01*
X213360000Y-114808750D02*
X213760000Y-114208750D01*
X213360000Y-115208750D02*
X213360000Y-114808750D01*
X213760000Y-114208750D02*
X212960000Y-114208750D01*
X213910000Y-114808750D02*
X212810000Y-114808750D01*
G04 #@! TO.C,D28*
X274872500Y-76108750D02*
X275272500Y-76708750D01*
X275272500Y-76108750D02*
X275272500Y-75608750D01*
X275272500Y-76708750D02*
X275672500Y-76108750D01*
X275272500Y-77108750D02*
X275272500Y-76708750D01*
X275672500Y-76108750D02*
X274872500Y-76108750D01*
X275822500Y-76708750D02*
X274722500Y-76708750D01*
G04 #@! TO.C,D48*
X155810000Y-114208750D02*
X156210000Y-114808750D01*
X156210000Y-114208750D02*
X156210000Y-113708750D01*
X156210000Y-114808750D02*
X156610000Y-114208750D01*
X156210000Y-115208750D02*
X156210000Y-114808750D01*
X156610000Y-114208750D02*
X155810000Y-114208750D01*
X156760000Y-114808750D02*
X155660000Y-114808750D01*
G04 #@! TO.C,D19*
X103422500Y-76108750D02*
X103822500Y-76708750D01*
X103822500Y-76108750D02*
X103822500Y-75608750D01*
X103822500Y-76708750D02*
X104222500Y-76108750D01*
X103822500Y-77108750D02*
X103822500Y-76708750D01*
X104222500Y-76108750D02*
X103422500Y-76108750D01*
X104372500Y-76708750D02*
X103272500Y-76708750D01*
G04 #@! TO.C,D75*
X229628750Y-133258750D02*
X230028750Y-133858750D01*
X230028750Y-133258750D02*
X230028750Y-132758750D01*
X230028750Y-133858750D02*
X230428750Y-133258750D01*
X230028750Y-134258750D02*
X230028750Y-133858750D01*
X230428750Y-133258750D02*
X229628750Y-133258750D01*
X230578750Y-133858750D02*
X229478750Y-133858750D01*
G04 #@! TO.C,D43*
X48653750Y-114208750D02*
X49053750Y-114808750D01*
X49053750Y-114208750D02*
X49053750Y-113708750D01*
X49053750Y-114808750D02*
X49453750Y-114208750D01*
X49053750Y-115208750D02*
X49053750Y-114808750D01*
X49453750Y-114208750D02*
X48653750Y-114208750D01*
X49603750Y-114808750D02*
X48503750Y-114808750D01*
G04 #@! TO.C,D7*
X151047500Y-57058750D02*
X151447500Y-57658750D01*
X151447500Y-57058750D02*
X151447500Y-56558750D01*
X151447500Y-57658750D02*
X151847500Y-57058750D01*
X151447500Y-58058750D02*
X151447500Y-57658750D01*
X151847500Y-57058750D02*
X151047500Y-57058750D01*
X151997500Y-57658750D02*
X150897500Y-57658750D01*
G04 #@! TO.C,D30*
X43891250Y-95158750D02*
X44291250Y-95758750D01*
X44291250Y-95158750D02*
X44291250Y-94658750D01*
X44291250Y-95758750D02*
X44691250Y-95158750D01*
X44291250Y-96158750D02*
X44291250Y-95758750D01*
X44691250Y-95158750D02*
X43891250Y-95158750D01*
X44841250Y-95758750D02*
X43741250Y-95758750D01*
G04 #@! TO.C,D85*
X370122500Y-57058750D02*
X370522500Y-57658750D01*
X370522500Y-57058750D02*
X370522500Y-56558750D01*
X370522500Y-57658750D02*
X370922500Y-57058750D01*
X370522500Y-58058750D02*
X370522500Y-57658750D01*
X370922500Y-57058750D02*
X370122500Y-57058750D01*
X371072500Y-57658750D02*
X369972500Y-57658750D01*
G04 #@! TO.C,D80*
X351072500Y-132306250D02*
X351472500Y-132906250D01*
X351472500Y-132306250D02*
X351472500Y-131806250D01*
X351472500Y-132906250D02*
X351872500Y-132306250D01*
X351472500Y-133306250D02*
X351472500Y-132906250D01*
X351872500Y-132306250D02*
X351072500Y-132306250D01*
X352022500Y-132906250D02*
X350922500Y-132906250D01*
G04 #@! TO.C,D63*
X39128750Y-132306250D02*
X39528750Y-132906250D01*
X39528750Y-132306250D02*
X39528750Y-131806250D01*
X39528750Y-132906250D02*
X39928750Y-132306250D01*
X39528750Y-133306250D02*
X39528750Y-132906250D01*
X39928750Y-132306250D02*
X39128750Y-132306250D01*
X40078750Y-132906250D02*
X38978750Y-132906250D01*
G04 #@! TO.C,D8*
X170097500Y-57058750D02*
X170497500Y-57658750D01*
X170497500Y-57058750D02*
X170497500Y-56558750D01*
X170497500Y-57658750D02*
X170897500Y-57058750D01*
X170497500Y-58058750D02*
X170497500Y-57658750D01*
X170897500Y-57058750D02*
X170097500Y-57058750D01*
X171047500Y-57658750D02*
X169947500Y-57658750D01*
G04 #@! TO.C,D77*
X274872500Y-133258750D02*
X275272500Y-133858750D01*
X275272500Y-133258750D02*
X275272500Y-132758750D01*
X275272500Y-133858750D02*
X275672500Y-133258750D01*
X275272500Y-134258750D02*
X275272500Y-133858750D01*
X275672500Y-133258750D02*
X274872500Y-133258750D01*
X275822500Y-133858750D02*
X274722500Y-133858750D01*
G04 #@! TO.C,D65*
X86753750Y-133258750D02*
X87153750Y-133858750D01*
X87153750Y-133258750D02*
X87153750Y-132758750D01*
X87153750Y-133858750D02*
X87553750Y-133258750D01*
X87153750Y-134258750D02*
X87153750Y-133858750D01*
X87553750Y-133258750D02*
X86753750Y-133258750D01*
X87703750Y-133858750D02*
X86603750Y-133858750D01*
G04 #@! TO.C,D27*
X255822500Y-76108750D02*
X256222500Y-76708750D01*
X256222500Y-76108750D02*
X256222500Y-75608750D01*
X256222500Y-76708750D02*
X256622500Y-76108750D01*
X256222500Y-77108750D02*
X256222500Y-76708750D01*
X256622500Y-76108750D02*
X255822500Y-76108750D01*
X256772500Y-76708750D02*
X255672500Y-76708750D01*
G04 #@! TO.C,D78*
X298685000Y-133258750D02*
X299085000Y-133858750D01*
X299085000Y-133258750D02*
X299085000Y-132758750D01*
X299085000Y-133858750D02*
X299485000Y-133258750D01*
X299085000Y-134258750D02*
X299085000Y-133858750D01*
X299485000Y-133258750D02*
X298685000Y-133258750D01*
X299635000Y-133858750D02*
X298535000Y-133858750D01*
G04 #@! TO.C,D25*
X217722500Y-76108750D02*
X218122500Y-76708750D01*
X218122500Y-76108750D02*
X218122500Y-75608750D01*
X218122500Y-76708750D02*
X218522500Y-76108750D01*
X218122500Y-77108750D02*
X218122500Y-76708750D01*
X218522500Y-76108750D02*
X217722500Y-76108750D01*
X218672500Y-76708750D02*
X217572500Y-76708750D01*
G04 #@! TO.C,D12*
X246297500Y-57058750D02*
X246697500Y-57658750D01*
X246697500Y-57058750D02*
X246697500Y-56558750D01*
X246697500Y-57658750D02*
X247097500Y-57058750D01*
X246697500Y-58058750D02*
X246697500Y-57658750D01*
X247097500Y-57058750D02*
X246297500Y-57058750D01*
X247247500Y-57658750D02*
X246147500Y-57658750D01*
G04 #@! TO.C,D5*
X112947500Y-56106250D02*
X113347500Y-56706250D01*
X113347500Y-56106250D02*
X113347500Y-55606250D01*
X113347500Y-56706250D02*
X113747500Y-56106250D01*
X113347500Y-57106250D02*
X113347500Y-56706250D01*
X113747500Y-56106250D02*
X112947500Y-56106250D01*
X113897500Y-56706250D02*
X112797500Y-56706250D01*
G04 #@! TO.C,D29*
X298685000Y-76108750D02*
X299085000Y-76708750D01*
X299085000Y-76108750D02*
X299085000Y-75608750D01*
X299085000Y-76708750D02*
X299485000Y-76108750D01*
X299085000Y-77108750D02*
X299085000Y-76708750D01*
X299485000Y-76108750D02*
X298685000Y-76108750D01*
X299635000Y-76708750D02*
X298535000Y-76708750D01*
G04 #@! TO.C,D31*
X70085000Y-95158750D02*
X70485000Y-95758750D01*
X70485000Y-95158750D02*
X70485000Y-94658750D01*
X70485000Y-95758750D02*
X70885000Y-95158750D01*
X70485000Y-96158750D02*
X70485000Y-95758750D01*
X70885000Y-95158750D02*
X70085000Y-95158750D01*
X71035000Y-95758750D02*
X69935000Y-95758750D01*
G04 #@! TO.C,D49*
X174860000Y-114208750D02*
X175260000Y-114808750D01*
X175260000Y-114208750D02*
X175260000Y-113708750D01*
X175260000Y-114808750D02*
X175660000Y-114208750D01*
X175260000Y-115208750D02*
X175260000Y-114808750D01*
X175660000Y-114208750D02*
X174860000Y-114208750D01*
X175810000Y-114808750D02*
X174710000Y-114808750D01*
G04 #@! TO.C,D35*
X146285000Y-95158750D02*
X146685000Y-95758750D01*
X146685000Y-95158750D02*
X146685000Y-94658750D01*
X146685000Y-95758750D02*
X147085000Y-95158750D01*
X146685000Y-96158750D02*
X146685000Y-95758750D01*
X147085000Y-95158750D02*
X146285000Y-95158750D01*
X147235000Y-95758750D02*
X146135000Y-95758750D01*
G04 #@! TO.C,D22*
X160572500Y-76108750D02*
X160972500Y-76708750D01*
X160972500Y-76108750D02*
X160972500Y-75608750D01*
X160972500Y-76708750D02*
X161372500Y-76108750D01*
X160972500Y-77108750D02*
X160972500Y-76708750D01*
X161372500Y-76108750D02*
X160572500Y-76108750D01*
X161522500Y-76708750D02*
X160422500Y-76708750D01*
G04 #@! TO.C,D13*
X265347500Y-56106250D02*
X265747500Y-56706250D01*
X265747500Y-56106250D02*
X265747500Y-55606250D01*
X265747500Y-56706250D02*
X266147500Y-56106250D01*
X265747500Y-57106250D02*
X265747500Y-56706250D01*
X266147500Y-56106250D02*
X265347500Y-56106250D01*
X266297500Y-56706250D02*
X265197500Y-56706250D01*
G04 #@! TO.C,D10*
X208197500Y-57058750D02*
X208597500Y-57658750D01*
X208597500Y-57058750D02*
X208597500Y-56558750D01*
X208597500Y-57658750D02*
X208997500Y-57058750D01*
X208597500Y-58058750D02*
X208597500Y-57658750D01*
X208997500Y-57058750D02*
X208197500Y-57058750D01*
X209147500Y-57658750D02*
X208047500Y-57658750D01*
G04 #@! TD*
%LPC*%
D12*
G04 #@! TO.C,S57*
X265747500Y-107473750D03*
D13*
X265747500Y-122713750D03*
D12*
X289560000Y-107473750D03*
D13*
X289560000Y-122713750D03*
G04 #@! TD*
D12*
G04 #@! TO.C,S56*
X27622500Y-107473750D03*
D13*
X27622500Y-122713750D03*
D12*
X51435000Y-107473750D03*
D13*
X51435000Y-122713750D03*
G04 #@! TD*
D12*
G04 #@! TO.C,S55*
X270510000Y-88423750D03*
D13*
X270510000Y-103663750D03*
D12*
X294322500Y-88423750D03*
D13*
X294322500Y-103663750D03*
G04 #@! TD*
D14*
G04 #@! TO.C,S54*
X99060000Y-126523750D03*
D13*
X99060000Y-141763750D03*
D14*
X199072500Y-126523750D03*
D13*
X199072500Y-141763750D03*
G04 #@! TD*
D15*
G04 #@! TO.C,S49*
X160655000Y-114458750D03*
D14*
X165735000Y-114458750D03*
D15*
X170815000Y-114458750D03*
D16*
X161925000Y-111918750D03*
X168275000Y-109378750D03*
G04 #@! TD*
D15*
G04 #@! TO.C,S24*
X184467500Y-76358750D03*
D14*
X189547500Y-76358750D03*
D15*
X194627500Y-76358750D03*
D16*
X185737500Y-73818750D03*
X192087500Y-71278750D03*
G04 #@! TD*
D17*
G04 #@! TO.C,A1*
X396903750Y-80777500D03*
D18*
X393873750Y-81077500D03*
X393873750Y-85927500D03*
D17*
X396903750Y-86227500D03*
D19*
X397033750Y-74612500D03*
D20*
X394493750Y-74612500D03*
D21*
X391953750Y-74612500D03*
D20*
X389413750Y-74612500D03*
X386873750Y-74612500D03*
X384333750Y-74612500D03*
X381793750Y-74612500D03*
D21*
X379253750Y-74612500D03*
D20*
X376713750Y-74612500D03*
X374173750Y-74612500D03*
X371633750Y-74612500D03*
X369093750Y-74612500D03*
D21*
X366553750Y-74612500D03*
D20*
X364013750Y-74612500D03*
X361473750Y-74612500D03*
X358933750Y-74612500D03*
X356393750Y-74612500D03*
D21*
X353853750Y-74612500D03*
D20*
X351313750Y-74612500D03*
X348773750Y-74612500D03*
X348773750Y-92392500D03*
X351313750Y-92392500D03*
D22*
X353853750Y-92392500D03*
D20*
X356393750Y-92392500D03*
X358933750Y-92392500D03*
X361473750Y-92392500D03*
X364013750Y-92392500D03*
D22*
X366553750Y-92392500D03*
D20*
X369093750Y-92392500D03*
X371633750Y-92392500D03*
X374173750Y-92392500D03*
X376713750Y-92392500D03*
D22*
X379253750Y-92392500D03*
D20*
X381793750Y-92392500D03*
X384333750Y-92392500D03*
X386873750Y-92392500D03*
X389413750Y-92392500D03*
D22*
X391953750Y-92392500D03*
D20*
X394493750Y-92392500D03*
X397033750Y-92392500D03*
G04 #@! TD*
D15*
G04 #@! TO.C,S34*
X113030000Y-95408750D03*
D14*
X118110000Y-95408750D03*
D15*
X123190000Y-95408750D03*
D16*
X114300000Y-92868750D03*
X120650000Y-90328750D03*
G04 #@! TD*
D15*
G04 #@! TO.C,S40*
X227330000Y-95408750D03*
D14*
X232410000Y-95408750D03*
D15*
X237490000Y-95408750D03*
D16*
X228600000Y-92868750D03*
X234950000Y-90328750D03*
G04 #@! TD*
D15*
G04 #@! TO.C,S14*
X270192500Y-57308750D03*
D14*
X275272500Y-57308750D03*
D15*
X280352500Y-57308750D03*
D16*
X271462500Y-54768750D03*
X277812500Y-52228750D03*
G04 #@! TD*
D15*
G04 #@! TO.C,S82*
X336867500Y-114458750D03*
D14*
X341947500Y-114458750D03*
D15*
X347027500Y-114458750D03*
D16*
X338137500Y-111918750D03*
X344487500Y-109378750D03*
G04 #@! TD*
D15*
G04 #@! TO.C,S75*
X214471250Y-133508750D03*
D14*
X219551250Y-133508750D03*
D15*
X224631250Y-133508750D03*
D16*
X215741250Y-130968750D03*
X222091250Y-128428750D03*
G04 #@! TD*
D15*
G04 #@! TO.C,S39*
X208280000Y-95408750D03*
D14*
X213360000Y-95408750D03*
D15*
X218440000Y-95408750D03*
D16*
X209550000Y-92868750D03*
X215900000Y-90328750D03*
G04 #@! TD*
D15*
G04 #@! TO.C,S77*
X260667500Y-133508750D03*
D14*
X265747500Y-133508750D03*
D15*
X270827500Y-133508750D03*
D16*
X261937500Y-130968750D03*
X268287500Y-128428750D03*
G04 #@! TD*
D15*
G04 #@! TO.C,S20*
X108267500Y-76358750D03*
D14*
X113347500Y-76358750D03*
D15*
X118427500Y-76358750D03*
D16*
X109537500Y-73818750D03*
X115887500Y-71278750D03*
G04 #@! TD*
D15*
G04 #@! TO.C,S22*
X146367500Y-76358750D03*
D14*
X151447500Y-76358750D03*
D15*
X156527500Y-76358750D03*
D16*
X147637500Y-73818750D03*
X153987500Y-71278750D03*
G04 #@! TD*
D15*
G04 #@! TO.C,S78*
X284480000Y-133508750D03*
D14*
X289560000Y-133508750D03*
D15*
X294640000Y-133508750D03*
D16*
X285750000Y-130968750D03*
X292100000Y-128428750D03*
G04 #@! TD*
D15*
G04 #@! TO.C,S21*
X127317500Y-76358750D03*
D14*
X132397500Y-76358750D03*
D15*
X137477500Y-76358750D03*
D16*
X128587500Y-73818750D03*
X134937500Y-71278750D03*
G04 #@! TD*
D15*
G04 #@! TO.C,S6*
X117792500Y-57308750D03*
D14*
X122872500Y-57308750D03*
D15*
X127952500Y-57308750D03*
D16*
X119062500Y-54768750D03*
X125412500Y-52228750D03*
G04 #@! TD*
D15*
G04 #@! TO.C,S16*
X27305000Y-76358750D03*
D14*
X32385000Y-76358750D03*
D15*
X37465000Y-76358750D03*
D16*
X28575000Y-73818750D03*
X34925000Y-71278750D03*
G04 #@! TD*
D15*
G04 #@! TO.C,S9*
X174942500Y-57308750D03*
D14*
X180022500Y-57308750D03*
D15*
X185102500Y-57308750D03*
D16*
X176212500Y-54768750D03*
X182562500Y-52228750D03*
G04 #@! TD*
D23*
G04 #@! TO.C,SW1*
X394335000Y-54690000D03*
X394335000Y-59690000D03*
D24*
X379835000Y-54690000D03*
D25*
X379835000Y-59690000D03*
X379835000Y-57190000D03*
D26*
X387335000Y-51590000D03*
X387335000Y-62790000D03*
G04 #@! TD*
D15*
G04 #@! TO.C,S46*
X103505000Y-114458750D03*
D14*
X108585000Y-114458750D03*
D15*
X113665000Y-114458750D03*
D16*
X104775000Y-111918750D03*
X111125000Y-109378750D03*
G04 #@! TD*
D15*
G04 #@! TO.C,S28*
X260667500Y-76358750D03*
D14*
X265747500Y-76358750D03*
D15*
X270827500Y-76358750D03*
D16*
X261937500Y-73818750D03*
X268287500Y-71278750D03*
G04 #@! TD*
D15*
G04 #@! TO.C,S19*
X89217500Y-76358750D03*
D14*
X94297500Y-76358750D03*
D15*
X99377500Y-76358750D03*
D16*
X90487500Y-73818750D03*
X96837500Y-71278750D03*
G04 #@! TD*
D15*
G04 #@! TO.C,S7*
X136842500Y-57308750D03*
D14*
X141922500Y-57308750D03*
D15*
X147002500Y-57308750D03*
D16*
X138112500Y-54768750D03*
X144462500Y-52228750D03*
G04 #@! TD*
D15*
G04 #@! TO.C,S3*
X60642500Y-57308750D03*
D14*
X65722500Y-57308750D03*
D15*
X70802500Y-57308750D03*
D16*
X61912500Y-54768750D03*
X68262500Y-52228750D03*
G04 #@! TD*
D15*
G04 #@! TO.C,S53*
X236855000Y-114458750D03*
D14*
X241935000Y-114458750D03*
D15*
X247015000Y-114458750D03*
D16*
X238125000Y-111918750D03*
X244475000Y-109378750D03*
G04 #@! TD*
D15*
G04 #@! TO.C,S2*
X41592500Y-57308750D03*
D14*
X46672500Y-57308750D03*
D15*
X51752500Y-57308750D03*
D16*
X42862500Y-54768750D03*
X49212500Y-52228750D03*
G04 #@! TD*
D15*
G04 #@! TO.C,S43*
X34448750Y-114458750D03*
D14*
X39528750Y-114458750D03*
D15*
X44608750Y-114458750D03*
D16*
X35718750Y-111918750D03*
X42068750Y-109378750D03*
G04 #@! TD*
D15*
G04 #@! TO.C,S47*
X122555000Y-114458750D03*
D14*
X127635000Y-114458750D03*
D15*
X132715000Y-114458750D03*
D16*
X123825000Y-111918750D03*
X130175000Y-109378750D03*
G04 #@! TD*
D15*
G04 #@! TO.C,S23*
X165417500Y-76358750D03*
D14*
X170497500Y-76358750D03*
D15*
X175577500Y-76358750D03*
D16*
X166687500Y-73818750D03*
X173037500Y-71278750D03*
G04 #@! TD*
D15*
G04 #@! TO.C,S41*
X246380000Y-95408750D03*
D14*
X251460000Y-95408750D03*
D15*
X256540000Y-95408750D03*
D16*
X247650000Y-92868750D03*
X254000000Y-90328750D03*
G04 #@! TD*
D15*
G04 #@! TO.C,S26*
X222567500Y-76358750D03*
D14*
X227647500Y-76358750D03*
D15*
X232727500Y-76358750D03*
D16*
X223837500Y-73818750D03*
X230187500Y-71278750D03*
G04 #@! TD*
D15*
G04 #@! TO.C,S18*
X70167500Y-76358750D03*
D14*
X75247500Y-76358750D03*
D15*
X80327500Y-76358750D03*
D16*
X71437500Y-73818750D03*
X77787500Y-71278750D03*
G04 #@! TD*
D15*
G04 #@! TO.C,S79*
X317817500Y-133508750D03*
D14*
X322897500Y-133508750D03*
D15*
X327977500Y-133508750D03*
D16*
X319087500Y-130968750D03*
X325437500Y-128428750D03*
G04 #@! TD*
D15*
G04 #@! TO.C,S37*
X170180000Y-95408750D03*
D14*
X175260000Y-95408750D03*
D15*
X180340000Y-95408750D03*
D16*
X171450000Y-92868750D03*
X177800000Y-90328750D03*
G04 #@! TD*
D15*
G04 #@! TO.C,S8*
X155892500Y-57308750D03*
D14*
X160972500Y-57308750D03*
D15*
X166052500Y-57308750D03*
D16*
X157162500Y-54768750D03*
X163512500Y-52228750D03*
G04 #@! TD*
D15*
G04 #@! TO.C,S35*
X132080000Y-95408750D03*
D14*
X137160000Y-95408750D03*
D15*
X142240000Y-95408750D03*
D16*
X133350000Y-92868750D03*
X139700000Y-90328750D03*
G04 #@! TD*
D15*
G04 #@! TO.C,S45*
X84455000Y-114458750D03*
D14*
X89535000Y-114458750D03*
D15*
X94615000Y-114458750D03*
D16*
X85725000Y-111918750D03*
X92075000Y-109378750D03*
G04 #@! TD*
D15*
G04 #@! TO.C,S86*
X384333750Y-114458750D03*
D14*
X389413750Y-114458750D03*
D15*
X394493750Y-114458750D03*
D16*
X385603750Y-111918750D03*
X391953750Y-109378750D03*
G04 #@! TD*
D15*
G04 #@! TO.C,S13*
X251142500Y-57308750D03*
D14*
X256222500Y-57308750D03*
D15*
X261302500Y-57308750D03*
D16*
X252412500Y-54768750D03*
X258762500Y-52228750D03*
G04 #@! TD*
D15*
G04 #@! TO.C,S11*
X213042500Y-57308750D03*
D14*
X218122500Y-57308750D03*
D15*
X223202500Y-57308750D03*
D16*
X214312500Y-54768750D03*
X220662500Y-52228750D03*
G04 #@! TD*
D15*
G04 #@! TO.C,S38*
X189230000Y-95408750D03*
D14*
X194310000Y-95408750D03*
D15*
X199390000Y-95408750D03*
D16*
X190500000Y-92868750D03*
X196850000Y-90328750D03*
G04 #@! TD*
D15*
G04 #@! TO.C,S31*
X55880000Y-95408750D03*
D14*
X60960000Y-95408750D03*
D15*
X66040000Y-95408750D03*
D16*
X57150000Y-92868750D03*
X63500000Y-90328750D03*
G04 #@! TD*
D15*
G04 #@! TO.C,S50*
X179705000Y-114458750D03*
D14*
X184785000Y-114458750D03*
D15*
X189865000Y-114458750D03*
D16*
X180975000Y-111918750D03*
X187325000Y-109378750D03*
G04 #@! TD*
D15*
G04 #@! TO.C,S30*
X29686250Y-95408750D03*
D14*
X34766250Y-95408750D03*
D15*
X39846250Y-95408750D03*
D16*
X30956250Y-92868750D03*
X37306250Y-90328750D03*
G04 #@! TD*
D15*
G04 #@! TO.C,S42*
X277336250Y-95408750D03*
D14*
X282416250Y-95408750D03*
D15*
X287496250Y-95408750D03*
D16*
X278606250Y-92868750D03*
X284956250Y-90328750D03*
G04 #@! TD*
D15*
G04 #@! TO.C,S83*
X317817500Y-57308750D03*
D14*
X322897500Y-57308750D03*
D15*
X327977500Y-57308750D03*
D16*
X319087500Y-54768750D03*
X325437500Y-52228750D03*
G04 #@! TD*
D15*
G04 #@! TO.C,S5*
X98742500Y-57308750D03*
D14*
X103822500Y-57308750D03*
D15*
X108902500Y-57308750D03*
D16*
X100012500Y-54768750D03*
X106362500Y-52228750D03*
G04 #@! TD*
D15*
G04 #@! TO.C,S63*
X24923750Y-133508750D03*
D14*
X30003750Y-133508750D03*
D15*
X35083750Y-133508750D03*
D16*
X26193750Y-130968750D03*
X32543750Y-128428750D03*
G04 #@! TD*
D15*
G04 #@! TO.C,S36*
X151130000Y-95408750D03*
D14*
X156210000Y-95408750D03*
D15*
X161290000Y-95408750D03*
D16*
X152400000Y-92868750D03*
X158750000Y-90328750D03*
G04 #@! TD*
D15*
G04 #@! TO.C,S10*
X193992500Y-57308750D03*
D14*
X199072500Y-57308750D03*
D15*
X204152500Y-57308750D03*
D16*
X195262500Y-54768750D03*
X201612500Y-52228750D03*
G04 #@! TD*
D15*
G04 #@! TO.C,S44*
X65405000Y-114458750D03*
D14*
X70485000Y-114458750D03*
D15*
X75565000Y-114458750D03*
D16*
X66675000Y-111918750D03*
X73025000Y-109378750D03*
G04 #@! TD*
D15*
G04 #@! TO.C,S32*
X74930000Y-95408750D03*
D14*
X80010000Y-95408750D03*
D15*
X85090000Y-95408750D03*
D16*
X76200000Y-92868750D03*
X82550000Y-90328750D03*
G04 #@! TD*
D15*
G04 #@! TO.C,S29*
X284480000Y-76358750D03*
D14*
X289560000Y-76358750D03*
D15*
X294640000Y-76358750D03*
D16*
X285750000Y-73818750D03*
X292100000Y-71278750D03*
G04 #@! TD*
D15*
G04 #@! TO.C,S4*
X79692500Y-57308750D03*
D14*
X84772500Y-57308750D03*
D15*
X89852500Y-57308750D03*
D16*
X80962500Y-54768750D03*
X87312500Y-52228750D03*
G04 #@! TD*
D15*
G04 #@! TO.C,S12*
X232092500Y-57308750D03*
D14*
X237172500Y-57308750D03*
D15*
X242252500Y-57308750D03*
D16*
X233362500Y-54768750D03*
X239712500Y-52228750D03*
G04 #@! TD*
D15*
G04 #@! TO.C,S15*
X289242500Y-57308750D03*
D14*
X294322500Y-57308750D03*
D15*
X299402500Y-57308750D03*
D16*
X290512500Y-54768750D03*
X296862500Y-52228750D03*
G04 #@! TD*
D15*
G04 #@! TO.C,S84*
X336867500Y-57308750D03*
D14*
X341947500Y-57308750D03*
D15*
X347027500Y-57308750D03*
D16*
X338137500Y-54768750D03*
X344487500Y-52228750D03*
G04 #@! TD*
D15*
G04 #@! TO.C,S87*
X384492500Y-133508750D03*
D14*
X389572500Y-133508750D03*
D15*
X394652500Y-133508750D03*
D16*
X385762500Y-130968750D03*
X392112500Y-128428750D03*
G04 #@! TD*
D15*
G04 #@! TO.C,S66*
X143986250Y-133508750D03*
D14*
X149066250Y-133508750D03*
D15*
X154146250Y-133508750D03*
D16*
X145256250Y-130968750D03*
X151606250Y-128428750D03*
G04 #@! TD*
D15*
G04 #@! TO.C,S27*
X241617500Y-76358750D03*
D14*
X246697500Y-76358750D03*
D15*
X251777500Y-76358750D03*
D16*
X242887500Y-73818750D03*
X249237500Y-71278750D03*
G04 #@! TD*
D15*
G04 #@! TO.C,S17*
X51117500Y-76358750D03*
D14*
X56197500Y-76358750D03*
D15*
X61277500Y-76358750D03*
D16*
X52387500Y-73818750D03*
X58737500Y-71278750D03*
G04 #@! TD*
D15*
G04 #@! TO.C,S65*
X72548750Y-133508750D03*
D14*
X77628750Y-133508750D03*
D15*
X82708750Y-133508750D03*
D16*
X73818750Y-130968750D03*
X80168750Y-128428750D03*
G04 #@! TD*
D15*
G04 #@! TO.C,S76*
X238918750Y-133508750D03*
D14*
X243998750Y-133508750D03*
D15*
X249078750Y-133508750D03*
D16*
X240188750Y-130968750D03*
X246538750Y-128428750D03*
G04 #@! TD*
D15*
G04 #@! TO.C,S25*
X203517500Y-76358750D03*
D14*
X208597500Y-76358750D03*
D15*
X213677500Y-76358750D03*
D16*
X204787500Y-73818750D03*
X211137500Y-71278750D03*
G04 #@! TD*
D15*
G04 #@! TO.C,S52*
X217805000Y-114458750D03*
D14*
X222885000Y-114458750D03*
D15*
X227965000Y-114458750D03*
D16*
X219075000Y-111918750D03*
X225425000Y-109378750D03*
G04 #@! TD*
D15*
G04 #@! TO.C,S33*
X93980000Y-95408750D03*
D14*
X99060000Y-95408750D03*
D15*
X104140000Y-95408750D03*
D16*
X95250000Y-92868750D03*
X101600000Y-90328750D03*
G04 #@! TD*
D15*
G04 #@! TO.C,S85*
X355917500Y-57308750D03*
D14*
X360997500Y-57308750D03*
D15*
X366077500Y-57308750D03*
D16*
X357187500Y-54768750D03*
X363537500Y-52228750D03*
G04 #@! TD*
D15*
G04 #@! TO.C,S48*
X141605000Y-114458750D03*
D14*
X146685000Y-114458750D03*
D15*
X151765000Y-114458750D03*
D16*
X142875000Y-111918750D03*
X149225000Y-109378750D03*
G04 #@! TD*
D15*
G04 #@! TO.C,S64*
X48736250Y-133508750D03*
D14*
X53816250Y-133508750D03*
D15*
X58896250Y-133508750D03*
D16*
X50006250Y-130968750D03*
X56356250Y-128428750D03*
G04 #@! TD*
D15*
G04 #@! TO.C,S1*
X22542500Y-57308750D03*
D14*
X27622500Y-57308750D03*
D15*
X32702500Y-57308750D03*
D16*
X23812500Y-54768750D03*
X30162500Y-52228750D03*
G04 #@! TD*
D15*
G04 #@! TO.C,S81*
X355917500Y-133508750D03*
D14*
X360997500Y-133508750D03*
D15*
X366077500Y-133508750D03*
D16*
X357187500Y-130968750D03*
X363537500Y-128428750D03*
G04 #@! TD*
D15*
G04 #@! TO.C,S51*
X198755000Y-114458750D03*
D14*
X203835000Y-114458750D03*
D15*
X208915000Y-114458750D03*
D16*
X200025000Y-111918750D03*
X206375000Y-109378750D03*
G04 #@! TD*
D15*
G04 #@! TO.C,S62*
X272573750Y-114458750D03*
D14*
X277653750Y-114458750D03*
D15*
X282733750Y-114458750D03*
D16*
X273843750Y-111918750D03*
X280193750Y-109378750D03*
G04 #@! TD*
D15*
G04 #@! TO.C,S80*
X336867500Y-133508750D03*
D14*
X341947500Y-133508750D03*
D15*
X347027500Y-133508750D03*
D16*
X338137500Y-130968750D03*
X344487500Y-128428750D03*
G04 #@! TD*
D27*
G04 #@! TO.C,D23*
X180022500Y-80168750D03*
D28*
X180022500Y-72548750D03*
G04 #@! TD*
D27*
G04 #@! TO.C,D83*
X332422500Y-61118750D03*
D28*
X332422500Y-53498750D03*
G04 #@! TD*
D27*
G04 #@! TO.C,D40*
X241935000Y-99218750D03*
D28*
X241935000Y-91598750D03*
G04 #@! TD*
D27*
G04 #@! TO.C,D11*
X227647500Y-61118750D03*
D28*
X227647500Y-53498750D03*
G04 #@! TD*
D27*
G04 #@! TO.C,D79*
X332422500Y-137318750D03*
D28*
X332422500Y-129698750D03*
G04 #@! TD*
D27*
G04 #@! TO.C,D84*
X351472500Y-61118750D03*
D28*
X351472500Y-53498750D03*
G04 #@! TD*
D27*
G04 #@! TO.C,D50*
X194310000Y-118268750D03*
D28*
X194310000Y-110648750D03*
G04 #@! TD*
D27*
G04 #@! TO.C,D66*
X158591250Y-137318750D03*
D28*
X158591250Y-129698750D03*
G04 #@! TD*
D27*
G04 #@! TO.C,D16*
X41910000Y-80168750D03*
D28*
X41910000Y-72548750D03*
G04 #@! TD*
D27*
G04 #@! TO.C,D6*
X132397500Y-60166250D03*
D28*
X132397500Y-52546250D03*
G04 #@! TD*
D27*
G04 #@! TO.C,D15*
X303847500Y-61118750D03*
D28*
X303847500Y-53498750D03*
G04 #@! TD*
D27*
G04 #@! TO.C,D64*
X63341250Y-136366250D03*
D28*
X63341250Y-128746250D03*
G04 #@! TD*
D27*
G04 #@! TO.C,D46*
X118110000Y-118268750D03*
D28*
X118110000Y-110648750D03*
G04 #@! TD*
D27*
G04 #@! TO.C,D38*
X203835000Y-99218750D03*
D28*
X203835000Y-91598750D03*
G04 #@! TD*
D27*
G04 #@! TO.C,D24*
X199072500Y-80168750D03*
D28*
X199072500Y-72548750D03*
G04 #@! TD*
D27*
G04 #@! TO.C,D32*
X89535000Y-99218750D03*
D28*
X89535000Y-91598750D03*
G04 #@! TD*
D27*
G04 #@! TO.C,D34*
X127635000Y-99218750D03*
D28*
X127635000Y-91598750D03*
G04 #@! TD*
D27*
G04 #@! TO.C,D3*
X75247500Y-61118750D03*
D28*
X75247500Y-53498750D03*
G04 #@! TD*
D27*
G04 #@! TO.C,D39*
X222885000Y-99218750D03*
D28*
X222885000Y-91598750D03*
G04 #@! TD*
D27*
G04 #@! TO.C,D20*
X122872500Y-80168750D03*
D28*
X122872500Y-72548750D03*
G04 #@! TD*
D27*
G04 #@! TO.C,D42*
X291941250Y-99218750D03*
D28*
X291941250Y-91598750D03*
G04 #@! TD*
D27*
G04 #@! TO.C,D2*
X56197500Y-60166250D03*
D28*
X56197500Y-52546250D03*
G04 #@! TD*
D27*
G04 #@! TO.C,D52*
X232410000Y-118268750D03*
D28*
X232410000Y-110648750D03*
G04 #@! TD*
D27*
G04 #@! TO.C,D33*
X108585000Y-99218750D03*
D28*
X108585000Y-91598750D03*
G04 #@! TD*
D27*
G04 #@! TO.C,D76*
X253841250Y-137318750D03*
D28*
X253841250Y-129698750D03*
G04 #@! TD*
D27*
G04 #@! TO.C,D44*
X80010000Y-118268750D03*
D28*
X80010000Y-110648750D03*
G04 #@! TD*
D27*
G04 #@! TO.C,D36*
X165735000Y-99218750D03*
D28*
X165735000Y-91598750D03*
G04 #@! TD*
D27*
G04 #@! TO.C,D87*
X393382500Y-143033750D03*
D28*
X385762500Y-143033750D03*
G04 #@! TD*
D27*
G04 #@! TO.C,D26*
X237172500Y-79216250D03*
D28*
X237172500Y-71596250D03*
G04 #@! TD*
D27*
G04 #@! TO.C,D21*
X141922500Y-80168750D03*
D28*
X141922500Y-72548750D03*
G04 #@! TD*
D27*
G04 #@! TO.C,D53*
X251460000Y-118268750D03*
D28*
X251460000Y-110648750D03*
G04 #@! TD*
D27*
G04 #@! TO.C,D86*
X393382500Y-123983750D03*
D28*
X385762500Y-123983750D03*
G04 #@! TD*
D27*
G04 #@! TO.C,D62*
X287178750Y-118268750D03*
D28*
X287178750Y-110648750D03*
G04 #@! TD*
D27*
G04 #@! TO.C,D37*
X184785000Y-99218750D03*
D28*
X184785000Y-91598750D03*
G04 #@! TD*
D27*
G04 #@! TO.C,D81*
X370522500Y-137318750D03*
D28*
X370522500Y-129698750D03*
G04 #@! TD*
D27*
G04 #@! TO.C,D47*
X137160000Y-118268750D03*
D28*
X137160000Y-110648750D03*
G04 #@! TD*
D27*
G04 #@! TO.C,D9*
X189547500Y-61118750D03*
D28*
X189547500Y-53498750D03*
G04 #@! TD*
D27*
G04 #@! TO.C,D17*
X65722500Y-80168750D03*
D28*
X65722500Y-72548750D03*
G04 #@! TD*
D27*
G04 #@! TO.C,D4*
X94297500Y-60166250D03*
D28*
X94297500Y-52546250D03*
G04 #@! TD*
D27*
G04 #@! TO.C,D41*
X260985000Y-99218750D03*
D28*
X260985000Y-91598750D03*
G04 #@! TD*
D27*
G04 #@! TO.C,D1*
X37147500Y-61118750D03*
D28*
X37147500Y-53498750D03*
G04 #@! TD*
D27*
G04 #@! TO.C,D45*
X99060000Y-118268750D03*
D28*
X99060000Y-110648750D03*
G04 #@! TD*
D27*
G04 #@! TO.C,D82*
X351472500Y-117316250D03*
D28*
X351472500Y-109696250D03*
G04 #@! TD*
D27*
G04 #@! TO.C,D18*
X84772500Y-80168750D03*
D28*
X84772500Y-72548750D03*
G04 #@! TD*
D27*
G04 #@! TO.C,D14*
X284797500Y-61118750D03*
D28*
X284797500Y-53498750D03*
G04 #@! TD*
D27*
G04 #@! TO.C,D51*
X213360000Y-118268750D03*
D28*
X213360000Y-110648750D03*
G04 #@! TD*
D27*
G04 #@! TO.C,D28*
X275272500Y-80168750D03*
D28*
X275272500Y-72548750D03*
G04 #@! TD*
D27*
G04 #@! TO.C,D48*
X156210000Y-118268750D03*
D28*
X156210000Y-110648750D03*
G04 #@! TD*
D27*
G04 #@! TO.C,D19*
X103822500Y-80168750D03*
D28*
X103822500Y-72548750D03*
G04 #@! TD*
D27*
G04 #@! TO.C,D75*
X230028750Y-137318750D03*
D28*
X230028750Y-129698750D03*
G04 #@! TD*
D27*
G04 #@! TO.C,D43*
X49053750Y-118268750D03*
D28*
X49053750Y-110648750D03*
G04 #@! TD*
D27*
G04 #@! TO.C,D7*
X151447500Y-61118750D03*
D28*
X151447500Y-53498750D03*
G04 #@! TD*
D27*
G04 #@! TO.C,D30*
X44291250Y-99218750D03*
D28*
X44291250Y-91598750D03*
G04 #@! TD*
D27*
G04 #@! TO.C,D85*
X370522500Y-61118750D03*
D28*
X370522500Y-53498750D03*
G04 #@! TD*
D27*
G04 #@! TO.C,D80*
X351472500Y-136366250D03*
D28*
X351472500Y-128746250D03*
G04 #@! TD*
D27*
G04 #@! TO.C,D63*
X39528750Y-136366250D03*
D28*
X39528750Y-128746250D03*
G04 #@! TD*
D27*
G04 #@! TO.C,D8*
X170497500Y-61118750D03*
D28*
X170497500Y-53498750D03*
G04 #@! TD*
D27*
G04 #@! TO.C,D77*
X275272500Y-137318750D03*
D28*
X275272500Y-129698750D03*
G04 #@! TD*
D27*
G04 #@! TO.C,D65*
X87153750Y-137318750D03*
D28*
X87153750Y-129698750D03*
G04 #@! TD*
D27*
G04 #@! TO.C,D27*
X256222500Y-80168750D03*
D28*
X256222500Y-72548750D03*
G04 #@! TD*
D27*
G04 #@! TO.C,D78*
X299085000Y-137318750D03*
D28*
X299085000Y-129698750D03*
G04 #@! TD*
D27*
G04 #@! TO.C,D25*
X218122500Y-80168750D03*
D28*
X218122500Y-72548750D03*
G04 #@! TD*
D27*
G04 #@! TO.C,D12*
X246697500Y-61118750D03*
D28*
X246697500Y-53498750D03*
G04 #@! TD*
D27*
G04 #@! TO.C,D5*
X113347500Y-60166250D03*
D28*
X113347500Y-52546250D03*
G04 #@! TD*
D27*
G04 #@! TO.C,D29*
X299085000Y-80168750D03*
D28*
X299085000Y-72548750D03*
G04 #@! TD*
D27*
G04 #@! TO.C,D31*
X70485000Y-99218750D03*
D28*
X70485000Y-91598750D03*
G04 #@! TD*
D27*
G04 #@! TO.C,D49*
X175260000Y-118268750D03*
D28*
X175260000Y-110648750D03*
G04 #@! TD*
D27*
G04 #@! TO.C,D35*
X146685000Y-99218750D03*
D28*
X146685000Y-91598750D03*
G04 #@! TD*
D27*
G04 #@! TO.C,D22*
X160972500Y-80168750D03*
D28*
X160972500Y-72548750D03*
G04 #@! TD*
D27*
G04 #@! TO.C,D13*
X265747500Y-60166250D03*
D28*
X265747500Y-52546250D03*
G04 #@! TD*
D27*
G04 #@! TO.C,D10*
X208597500Y-61118750D03*
D28*
X208597500Y-53498750D03*
G04 #@! TD*
%LPD*%
M02*
